{"glyphs":{"0":{"ha":446,"x_min":81,"x_max":365,"o":"m 232 -9 q 209 -3 227 -9 q 187 8 192 4 q 98 267 119 60 q 85 462 89 366 q 81 703 81 558 q 82 814 81 764 q 83 925 83 863 q 83 954 83 942 q 87 983 84 966 q 95 1007 89 998 q 113 1027 100 1017 q 182 1046 132 1046 q 334 824 307 1046 q 365 334 365 595 q 364 264 365 296 q 361 197 363 232 q 353 132 358 159 q 338 77 347 105 q 314 31 328 48 q 279 2 300 14 q 232 -9 258 -9 m 244 22 q 279 39 264 22 q 302 87 294 56 q 326 218 321 154 q 329 321 329 282 q 321 515 329 366 q 313 706 313 664 q 312 739 313 726 q 294 871 307 822 q 267 946 281 915 q 230 996 253 977 q 172 1016 205 1016 q 125 999 138 1016 q 113 947 113 983 q 113 925 113 935 l 113 901 q 117 772 113 868 q 119 642 119 695 l 119 506 q 127 334 119 436 q 163 125 136 224 q 197 50 176 77 q 244 22 218 22 z "},"1":{"ha":382,"x_min":37,"x_max":338,"o":"m 83 4 q 67 10 72 4 q 62 31 62 16 q 65 40 62 35 q 73 44 68 44 l 112 44 l 152 43 q 174 45 168 43 q 184 52 181 47 q 186 71 186 58 q 155 871 186 389 l 156 915 l 157 960 q 153 991 157 983 q 136 1003 149 1000 q 93 1006 124 1006 l 77 1004 l 61 1003 q 37 1018 37 1003 q 66 1035 37 1032 q 175 1038 91 1038 q 191 1031 184 1038 q 197 1015 197 1024 l 197 972 q 201 842 197 939 q 204 710 204 745 q 212 552 204 703 l 214 513 q 222 244 222 340 l 222 227 l 226 151 q 229 69 229 92 q 228 59 229 64 l 227 49 l 233 45 q 264 47 243 45 q 295 49 286 49 q 338 29 338 49 q 307 9 338 9 q 195 7 269 9 q 83 4 121 4 z "},"2":{"ha":470,"x_min":81,"x_max":349,"o":"m 116 -11 q 92 -3 102 -11 q 81 17 81 5 l 156 186 q 276 521 237 364 q 315 847 315 678 q 229 1047 315 1047 q 198 1019 210 1039 q 184 977 186 998 q 161 926 179 926 q 148 931 153 926 q 143 941 144 935 q 142 954 142 944 q 150 1005 142 979 q 175 1053 158 1031 q 216 1075 193 1075 q 283 1055 254 1075 q 330 1001 313 1035 q 348 926 347 967 l 345 924 q 347 873 345 907 q 349 822 349 838 q 335 646 349 748 q 296 446 320 544 q 243 285 271 348 l 203 194 l 172 125 q 140 49 151 78 q 136 33 136 37 q 144 26 136 26 q 311 41 220 41 q 331 20 331 41 q 319 1 331 1 q 220 -5 288 1 q 116 -11 152 -11 z "},"3":{"ha":461,"x_min":62,"x_max":356,"o":"m 229 -1 q 170 13 197 -1 q 142 50 142 27 l 153 57 q 172 52 163 56 q 195 37 182 47 q 213 25 206 28 q 319 201 319 25 q 318 287 319 258 q 312 357 317 315 q 297 436 307 403 q 269 507 288 470 q 224 572 250 545 q 218 572 220 572 q 210 571 214 571 q 184 576 196 571 l 184 582 l 177 589 q 192 610 178 594 q 209 629 196 614 q 233 662 222 644 q 252 699 244 679 q 266 766 266 734 q 258 877 266 822 q 244 944 253 917 q 218 991 235 971 q 177 1011 201 1011 q 140 999 156 1011 q 118 972 124 987 q 85 932 103 932 q 70 938 77 932 q 62 951 62 943 q 112 1021 85 998 q 181 1044 140 1044 q 216 1035 199 1044 q 243 1011 233 1026 l 248 1010 q 303 747 303 930 q 278 669 303 713 q 256 637 272 665 q 233 603 237 608 q 309 519 287 581 q 323 466 318 491 q 336 399 329 441 q 345 345 340 365 q 355 297 353 308 q 356 249 356 286 q 352 161 356 205 q 345 112 349 132 q 330 70 340 92 q 308 32 321 47 q 275 8 295 18 q 229 -1 254 -1 z "},"4":{"ha":416,"x_min":102,"x_max":348,"o":"m 243 -8 l 243 41 l 242 45 q 248 94 248 68 q 243 165 248 121 q 238 236 238 209 l 239 267 l 241 298 q 227 359 241 353 q 186 355 212 359 q 145 351 159 351 q 127 353 132 351 q 115 361 121 356 q 107 367 111 364 l 107 371 q 115 415 107 376 l 102 443 q 109 477 102 456 q 115 511 115 499 q 121 647 115 561 q 128 783 128 733 l 128 1004 q 125 1022 128 1011 q 123 1039 123 1032 q 139 1057 123 1057 q 157 1052 149 1057 q 164 1038 164 1047 q 161 982 164 1015 q 159 926 159 949 q 163 879 159 903 l 160 875 q 163 836 163 853 q 155 661 163 779 q 146 486 146 545 q 151 466 146 478 q 156 446 156 454 q 151 427 156 437 q 146 408 146 416 q 160 382 146 382 q 198 386 174 382 q 230 395 222 391 q 220 694 230 446 q 214 749 218 720 q 209 806 209 789 q 217 818 209 813 q 235 822 224 822 l 248 807 q 252 709 248 774 q 256 611 256 644 q 260 480 256 559 q 270 395 264 400 q 295 397 279 395 q 321 400 311 400 q 348 385 348 400 q 340 371 348 376 q 319 367 332 367 q 309 368 313 367 q 281 362 293 369 q 270 338 270 355 q 274 202 270 291 q 282 103 278 113 q 281 79 281 96 q 287 46 281 56 l 282 29 l 287 20 l 287 0 l 264 -17 l 243 -8 z "},"5":{"ha":439,"x_min":88,"x_max":357,"o":"m 241 -14 q 173 8 173 -14 q 199 24 173 24 q 218 18 205 24 q 235 12 229 12 q 274 37 256 12 q 302 100 292 62 q 317 169 312 136 q 323 222 323 202 q 308 458 323 325 q 277 592 299 536 q 222 646 254 646 l 190 646 l 184 642 q 182 642 182 642 q 180 643 181 643 q 164 637 176 643 q 149 631 153 631 q 129 637 136 631 q 119 652 121 644 q 116 675 117 658 q 115 696 115 696 q 121 766 121 734 q 106 916 121 815 q 88 1061 89 1017 l 102 1075 l 209 1076 l 212 1076 q 251 1057 251 1076 l 235 1044 l 206 1044 l 202 1042 l 146 1048 l 137 1046 l 132 1047 q 136 972 132 1017 l 141 916 q 159 682 149 800 l 157 681 q 182 677 157 681 q 240 669 212 674 q 277 656 268 663 q 323 564 302 637 q 351 414 343 491 q 357 297 357 347 q 355 201 357 242 q 349 149 353 170 q 338 100 345 128 q 319 54 330 73 q 291 16 308 35 q 252 -14 273 -3 l 241 -14 m 132 907 q 130 905 130 907 l 132 907 z "},"6":{"ha":435,"x_min":109,"x_max":334,"o":"m 238 -20 q 192 -5 212 -20 q 162 33 172 9 q 146 86 153 55 q 138 146 139 118 l 135 183 q 133 218 134 195 q 130 250 131 241 q 109 547 109 400 l 109 553 q 111 677 109 614 q 115 755 112 720 q 126 847 119 790 q 141 928 132 892 q 165 998 151 964 q 199 1047 179 1030 q 242 1064 218 1064 q 253 1060 247 1064 q 259 1051 259 1055 q 251 1037 259 1043 q 229 1024 243 1030 q 212 1015 218 1020 q 175 912 191 998 q 152 739 158 827 q 145 608 146 649 q 176 619 161 619 q 218 608 199 619 q 252 577 238 597 q 280 529 269 553 q 299 473 292 505 q 314 404 309 433 q 323 340 320 376 q 325 323 325 328 q 332 210 332 254 l 333 183 q 334 157 333 163 l 334 115 q 332 73 334 90 q 325 39 330 56 q 309 8 319 20 q 281 -12 298 -4 q 238 -20 262 -20 m 249 8 q 300 118 300 8 q 295 275 300 184 q 264 484 288 384 q 232 561 252 533 q 186 589 212 589 q 145 514 145 562 l 145 494 q 180 113 145 309 l 182 94 q 189 53 184 75 q 195 37 191 43 q 208 22 199 31 q 249 8 220 8 z "},"7":{"ha":407,"x_min":111,"x_max":301,"o":"m 112 -3 q 116 26 112 12 q 127 66 119 41 q 137 97 132 76 q 177 310 161 198 q 213 597 194 422 q 238 822 223 696 q 248 886 245 874 q 262 1028 262 979 q 214 1036 262 1036 q 172 1034 199 1036 q 132 1032 144 1032 l 111 1046 l 123 1059 q 197 1061 147 1059 q 270 1063 245 1063 q 289 1055 279 1063 q 301 1038 298 1048 q 292 975 292 1013 l 292 961 q 291 946 292 949 q 256 662 286 880 q 198 257 227 444 q 161 58 170 71 q 162 47 162 53 q 153 4 162 25 q 129 -18 144 -18 l 112 -3 z "},"8":{"ha":404,"x_min":88,"x_max":330,"o":"m 213 -53 q 168 -34 188 -53 q 138 16 149 -15 q 119 126 119 75 q 163 513 119 338 q 172 536 165 522 q 184 589 184 570 q 178 618 184 595 q 172 636 174 630 l 162 668 l 152 699 q 88 978 88 892 q 105 1055 88 1021 q 131 1082 114 1072 q 169 1092 147 1092 l 194 1092 l 208 1086 q 221 1079 216 1082 q 233 1071 227 1076 q 242 1057 239 1065 q 269 903 269 998 q 241 684 269 833 q 220 589 220 592 q 232 554 220 581 q 238 539 237 543 q 330 71 330 264 q 328 54 330 66 q 326 37 326 43 q 327 31 326 35 q 279 -34 303 -15 q 213 -53 254 -53 m 195 657 q 237 905 237 789 q 233 967 237 939 q 219 1027 230 996 q 186 1061 207 1061 l 180 1061 q 172 1060 176 1060 q 155 1064 161 1060 q 123 975 123 1038 q 136 870 123 946 q 166 729 149 794 q 195 657 183 665 m 213 -26 q 276 3 255 -26 q 296 81 296 32 q 243 406 296 212 q 233 449 239 420 q 220 502 226 481 q 206 534 214 522 q 176 437 189 511 q 157 275 163 364 q 151 114 151 186 q 169 40 151 86 l 168 36 q 181 -7 169 12 q 213 -26 194 -26 z "},"9":{"ha":400,"x_min":34,"x_max":285,"o":"m 226 -18 q 239 106 239 18 q 242 300 239 156 q 245 493 245 444 l 244 568 l 243 643 l 233 640 q 146 671 186 646 q 83 732 107 695 q 34 892 34 804 q 52 991 34 947 q 104 1061 71 1035 q 184 1086 138 1086 q 236 1076 208 1086 q 275 1051 265 1065 q 285 829 285 1034 q 284 747 285 784 l 283 665 q 278 637 283 654 q 273 610 273 621 q 271 376 273 532 q 269 142 269 220 q 264 90 269 123 q 260 39 260 58 q 260 23 260 30 q 261 7 261 16 q 237 -32 261 -32 l 226 -18 m 244 679 q 251 977 251 796 q 236 1039 251 1018 q 186 1060 221 1060 q 100 1024 129 1060 q 71 926 71 988 q 91 817 71 872 q 148 721 112 761 q 224 676 183 682 l 244 679 z "},"\u0000":{"ha":0,"x_min":0,"x_max":0,"o":""},"\r":{"ha":237,"x_min":0,"x_max":0,"o":""}," ":{"ha":237,"x_min":0,"x_max":0,"o":""},"A":{"ha":490,"x_min":47,"x_max":395,"o":"m 365 0 q 347 7 355 0 q 338 24 338 14 l 338 205 q 303 227 338 216 q 223 244 269 237 q 151 250 177 250 q 134 198 147 250 q 109 94 122 153 q 91 14 95 35 q 76 3 88 3 q 56 10 65 3 q 47 26 47 17 q 48 28 47 28 l 48 31 l 64 100 l 93 228 l 113 319 q 166 595 134 410 q 216 864 201 793 q 241 962 228 916 q 262 1019 250 994 q 281 1042 273 1042 q 313 1028 303 1042 q 335 889 321 1016 q 361 637 350 762 l 380 407 q 388 226 380 347 q 395 45 395 99 l 395 39 q 391 12 395 20 q 365 0 387 0 m 310 269 q 337 282 337 269 q 328 517 337 368 q 307 781 318 667 q 290 942 302 840 l 288 957 q 285 974 285 967 q 265 897 274 943 q 241 761 256 852 q 184 450 210 557 q 172 403 182 435 q 157 343 162 368 q 152 297 152 318 l 152 289 q 292 269 211 269 l 300 269 q 310 269 304 269 z "},"Á":{"ha":490,"x_min":47,"x_max":489,"o":"m 365 0 q 347 7 355 0 q 338 24 338 14 l 338 205 q 303 227 338 216 q 223 244 269 237 q 151 250 177 250 q 134 198 147 250 q 109 94 122 153 q 91 14 95 35 q 76 3 88 3 q 56 10 65 3 q 47 26 47 17 q 48 28 47 28 l 48 31 l 64 100 l 93 228 l 113 319 q 166 595 134 410 q 216 864 201 793 q 241 962 228 916 q 262 1019 250 994 q 281 1042 273 1042 q 313 1028 303 1042 q 335 889 321 1016 q 361 637 350 762 l 380 407 q 388 226 380 347 q 395 45 395 99 l 395 39 q 391 12 395 20 q 365 0 387 0 m 310 269 q 337 282 337 269 q 328 517 337 368 q 307 781 318 667 q 290 942 302 840 l 288 957 q 285 974 285 967 q 265 897 274 943 q 241 761 256 852 q 184 450 210 557 q 172 403 182 435 q 157 343 162 368 q 152 297 152 318 l 152 289 q 292 269 211 269 l 300 269 q 310 269 304 269 m 311 1112 q 293 1117 300 1112 q 286 1132 286 1122 q 324 1168 286 1137 q 407 1233 355 1193 q 458 1274 454 1269 q 489 1252 489 1274 l 485 1231 q 311 1112 414 1199 z "},"Ă":{"ha":490,"x_min":47,"x_max":416,"o":"m 365 0 q 347 7 355 0 q 338 24 338 14 l 338 205 q 303 227 338 216 q 223 244 269 237 q 151 250 177 250 q 134 198 147 250 q 109 94 122 153 q 91 14 95 35 q 76 3 88 3 q 56 10 65 3 q 47 26 47 17 q 48 28 47 28 l 48 31 l 64 100 l 93 228 l 113 319 q 166 595 134 410 q 216 864 201 793 q 241 962 228 916 q 262 1019 250 994 q 281 1042 273 1042 q 313 1028 303 1042 q 335 889 321 1016 q 361 637 350 762 l 380 407 q 388 226 380 347 q 395 45 395 99 l 395 39 q 391 12 395 20 q 365 0 387 0 m 310 269 q 337 282 337 269 q 328 517 337 368 q 307 781 318 667 q 290 942 302 840 l 288 957 q 285 974 285 967 q 265 897 274 943 q 241 761 256 852 q 184 450 210 557 q 172 403 182 435 q 157 343 162 368 q 152 297 152 318 l 152 289 q 292 269 211 269 l 300 269 q 310 269 304 269 m 311 1100 q 263 1113 283 1100 q 231 1147 242 1125 q 210 1242 210 1190 l 225 1254 q 239 1232 235 1253 q 252 1177 244 1200 q 274 1143 259 1154 l 289 1132 l 323 1132 q 346 1144 335 1132 q 364 1172 357 1156 q 371 1202 371 1189 q 370 1213 371 1208 q 370 1222 370 1217 q 395 1249 370 1249 q 409 1243 403 1249 q 416 1229 416 1237 q 412 1217 416 1226 l 408 1207 l 412 1197 q 408 1189 410 1194 q 401 1173 405 1183 q 390 1150 395 1159 q 378 1131 386 1141 q 363 1114 371 1119 q 341 1105 355 1109 q 311 1100 329 1100 z "},"Ắ":{"ha":490,"x_min":47,"x_max":489,"o":"m 365 0 q 347 7 355 0 q 338 24 338 14 l 338 205 q 303 227 338 216 q 223 244 269 237 q 151 250 177 250 q 134 198 147 250 q 109 94 122 153 q 91 14 95 35 q 76 3 88 3 q 56 10 65 3 q 47 26 47 17 q 48 28 47 28 l 48 31 l 64 100 l 93 228 l 113 319 q 166 595 134 410 q 216 864 201 793 q 241 962 228 916 q 262 1019 250 994 q 281 1042 273 1042 q 313 1028 303 1042 q 335 889 321 1016 q 361 637 350 762 l 380 407 q 388 226 380 347 q 395 45 395 99 l 395 39 q 391 12 395 20 q 365 0 387 0 m 310 269 q 337 282 337 269 q 328 517 337 368 q 307 781 318 667 q 290 942 302 840 l 288 957 q 285 974 285 967 q 265 897 274 943 q 241 761 256 852 q 184 450 210 557 q 172 403 182 435 q 157 343 162 368 q 152 297 152 318 l 152 289 q 292 269 211 269 l 300 269 q 310 269 304 269 m 311 1100 q 263 1113 283 1100 q 231 1147 242 1125 q 210 1242 210 1190 l 225 1254 q 239 1232 235 1253 q 252 1177 244 1200 q 274 1143 259 1154 l 289 1132 l 323 1132 q 346 1144 335 1132 q 364 1172 357 1156 q 371 1202 371 1189 q 370 1213 371 1208 q 370 1222 370 1217 q 395 1249 370 1249 q 409 1243 403 1249 q 416 1229 416 1237 q 412 1217 416 1226 l 408 1207 l 412 1197 q 408 1189 410 1194 q 401 1173 405 1183 q 390 1150 395 1159 q 378 1131 386 1141 q 363 1114 371 1119 q 341 1105 355 1109 q 311 1100 329 1100 m 311 1318 q 293 1324 300 1318 q 286 1339 286 1329 q 324 1375 286 1344 q 407 1440 355 1400 q 458 1480 454 1476 q 489 1459 489 1480 l 485 1438 q 311 1318 414 1406 z "},"Ặ":{"ha":490,"x_min":47,"x_max":416,"o":"m 365 0 q 347 7 355 0 q 338 24 338 14 l 338 205 q 303 227 338 216 q 223 244 269 237 q 151 250 177 250 q 134 198 147 250 q 109 94 122 153 q 91 14 95 35 q 76 3 88 3 q 56 10 65 3 q 47 26 47 17 q 48 28 47 28 l 48 31 l 64 100 l 93 228 l 113 319 q 166 595 134 410 q 216 864 201 793 q 241 962 228 916 q 262 1019 250 994 q 281 1042 273 1042 q 313 1028 303 1042 q 335 889 321 1016 q 361 637 350 762 l 380 407 q 388 226 380 347 q 395 45 395 99 l 395 39 q 391 12 395 20 q 365 0 387 0 m 310 269 q 337 282 337 269 q 328 517 337 368 q 307 781 318 667 q 290 942 302 840 l 288 957 q 285 974 285 967 q 265 897 274 943 q 241 761 256 852 q 184 450 210 557 q 172 403 182 435 q 157 343 162 368 q 152 297 152 318 l 152 289 q 292 269 211 269 l 300 269 q 310 269 304 269 m 241 -163 q 220 -152 229 -163 q 211 -130 211 -142 q 222 -104 211 -116 q 247 -92 233 -92 q 270 -104 259 -92 q 280 -128 280 -116 q 241 -163 280 -163 m 311 1100 q 263 1113 283 1100 q 231 1147 242 1125 q 210 1242 210 1190 l 225 1254 q 239 1232 235 1253 q 252 1177 244 1200 q 274 1143 259 1154 l 289 1132 l 323 1132 q 346 1144 335 1132 q 364 1172 357 1156 q 371 1202 371 1189 q 370 1213 371 1208 q 370 1222 370 1217 q 395 1249 370 1249 q 409 1243 403 1249 q 416 1229 416 1237 q 412 1217 416 1226 l 408 1207 l 412 1197 q 408 1189 410 1194 q 401 1173 405 1183 q 390 1150 395 1159 q 378 1131 386 1141 q 363 1114 371 1119 q 341 1105 355 1109 q 311 1100 329 1100 z "},"Ằ":{"ha":490,"x_min":47,"x_max":416,"o":"m 365 0 q 347 7 355 0 q 338 24 338 14 l 338 205 q 303 227 338 216 q 223 244 269 237 q 151 250 177 250 q 134 198 147 250 q 109 94 122 153 q 91 14 95 35 q 76 3 88 3 q 56 10 65 3 q 47 26 47 17 q 48 28 47 28 l 48 31 l 64 100 l 93 228 l 113 319 q 166 595 134 410 q 216 864 201 793 q 241 962 228 916 q 262 1019 250 994 q 281 1042 273 1042 q 313 1028 303 1042 q 335 889 321 1016 q 361 637 350 762 l 380 407 q 388 226 380 347 q 395 45 395 99 l 395 39 q 391 12 395 20 q 365 0 387 0 m 310 269 q 337 282 337 269 q 328 517 337 368 q 307 781 318 667 q 290 942 302 840 l 288 957 q 285 974 285 967 q 265 897 274 943 q 241 761 256 852 q 184 450 210 557 q 172 403 182 435 q 157 343 162 368 q 152 297 152 318 l 152 289 q 292 269 211 269 l 300 269 q 310 269 304 269 m 311 1100 q 263 1113 283 1100 q 231 1147 242 1125 q 210 1242 210 1190 l 225 1254 q 239 1232 235 1253 q 252 1177 244 1200 q 274 1143 259 1154 l 289 1132 l 323 1132 q 346 1144 335 1132 q 364 1172 357 1156 q 371 1202 371 1189 q 370 1213 371 1208 q 370 1222 370 1217 q 395 1249 370 1249 q 409 1243 403 1249 q 416 1229 416 1237 q 412 1217 416 1226 l 408 1207 l 412 1197 q 408 1189 410 1194 q 401 1173 405 1183 q 390 1150 395 1159 q 378 1131 386 1141 q 363 1114 371 1119 q 341 1105 355 1109 q 311 1100 329 1100 m 363 1281 q 300 1316 361 1282 q 234 1355 239 1351 l 227 1355 q 212 1356 220 1355 q 170 1392 164 1364 q 183 1420 174 1416 l 192 1419 q 242 1394 233 1412 l 258 1386 q 309 1356 272 1379 q 360 1320 341 1336 q 381 1290 383 1301 q 375 1283 380 1286 q 363 1281 369 1280 z "},"Ẳ":{"ha":490,"x_min":47,"x_max":416,"o":"m 365 0 q 347 7 355 0 q 338 24 338 14 l 338 205 q 303 227 338 216 q 223 244 269 237 q 151 250 177 250 q 134 198 147 250 q 109 94 122 153 q 91 14 95 35 q 76 3 88 3 q 56 10 65 3 q 47 26 47 17 q 48 28 47 28 l 48 31 l 64 100 l 93 228 l 113 319 q 166 595 134 410 q 216 864 201 793 q 241 962 228 916 q 262 1019 250 994 q 281 1042 273 1042 q 313 1028 303 1042 q 335 889 321 1016 q 361 637 350 762 l 380 407 q 388 226 380 347 q 395 45 395 99 l 395 39 q 391 12 395 20 q 365 0 387 0 m 310 269 q 337 282 337 269 q 328 517 337 368 q 307 781 318 667 q 290 942 302 840 l 288 957 q 285 974 285 967 q 265 897 274 943 q 241 761 256 852 q 184 450 210 557 q 172 403 182 435 q 157 343 162 368 q 152 297 152 318 l 152 289 q 292 269 211 269 l 300 269 q 310 269 304 269 m 311 1100 q 263 1113 283 1100 q 231 1147 242 1125 q 210 1242 210 1190 l 225 1254 q 239 1232 235 1253 q 252 1177 244 1200 q 274 1143 259 1154 l 289 1132 l 323 1132 q 346 1144 335 1132 q 364 1172 357 1156 q 371 1202 371 1189 q 370 1213 371 1208 q 370 1222 370 1217 q 395 1249 370 1249 q 409 1243 403 1249 q 416 1229 416 1237 q 412 1217 416 1226 l 408 1207 l 412 1197 q 408 1189 410 1194 q 401 1173 405 1183 q 390 1150 395 1159 q 378 1131 386 1141 q 363 1114 371 1119 q 341 1105 355 1109 q 311 1100 329 1100 m 321 1274 q 305 1290 307 1274 l 305 1297 q 313 1315 305 1308 q 337 1334 321 1322 q 359 1350 351 1343 q 366 1366 366 1358 q 321 1392 366 1392 q 283 1385 296 1392 q 271 1363 271 1379 q 273 1345 271 1354 q 259 1341 264 1341 q 239 1366 239 1341 q 259 1403 239 1388 q 321 1419 279 1419 q 382 1405 365 1419 q 400 1366 400 1392 q 391 1343 400 1353 q 363 1321 382 1334 q 343 1305 349 1311 q 336 1291 336 1299 l 336 1282 q 321 1274 331 1274 z "},"Ẵ":{"ha":490,"x_min":47,"x_max":460,"o":"m 365 0 q 347 7 355 0 q 338 24 338 14 l 338 205 q 303 227 338 216 q 223 244 269 237 q 151 250 177 250 q 134 198 147 250 q 109 94 122 153 q 91 14 95 35 q 76 3 88 3 q 56 10 65 3 q 47 26 47 17 q 48 28 47 28 l 48 31 l 64 100 l 93 228 l 113 319 q 166 595 134 410 q 216 864 201 793 q 241 962 228 916 q 262 1019 250 994 q 281 1042 273 1042 q 313 1028 303 1042 q 335 889 321 1016 q 361 637 350 762 l 380 407 q 388 226 380 347 q 395 45 395 99 l 395 39 q 391 12 395 20 q 365 0 387 0 m 310 269 q 337 282 337 269 q 328 517 337 368 q 307 781 318 667 q 290 942 302 840 l 288 957 q 285 974 285 967 q 265 897 274 943 q 241 761 256 852 q 184 450 210 557 q 172 403 182 435 q 157 343 162 368 q 152 297 152 318 l 152 289 q 292 269 211 269 l 300 269 q 310 269 304 269 m 311 1100 q 263 1113 283 1100 q 231 1147 242 1125 q 210 1242 210 1190 l 225 1254 q 239 1232 235 1253 q 252 1177 244 1200 q 274 1143 259 1154 l 289 1132 l 323 1132 q 346 1144 335 1132 q 364 1172 357 1156 q 371 1202 371 1189 q 370 1213 371 1208 q 370 1222 370 1217 q 395 1249 370 1249 q 409 1243 403 1249 q 416 1229 416 1237 q 412 1217 416 1226 l 408 1207 l 412 1197 q 408 1189 410 1194 q 401 1173 405 1183 q 390 1150 395 1159 q 378 1131 386 1141 q 363 1114 371 1119 q 341 1105 355 1109 q 311 1100 329 1100 m 193 1297 q 176 1304 184 1297 q 167 1320 167 1312 q 190 1390 167 1364 q 248 1417 214 1417 q 307 1388 282 1417 q 341 1351 317 1368 q 386 1335 366 1335 q 422 1384 422 1335 q 418 1398 422 1388 q 414 1411 415 1405 q 428 1419 418 1419 q 452 1405 444 1419 q 460 1371 460 1391 q 449 1335 460 1352 q 422 1308 439 1318 q 386 1298 405 1298 q 338 1312 363 1298 q 298 1341 313 1325 q 262 1380 285 1354 l 253 1384 q 217 1373 233 1384 q 201 1347 201 1362 q 208 1318 201 1340 l 193 1297 z "},"Ǎ":{"ha":490,"x_min":47,"x_max":408,"o":"m 365 0 q 347 7 355 0 q 338 24 338 14 l 338 205 q 303 227 338 216 q 223 244 269 237 q 151 250 177 250 q 134 198 147 250 q 109 94 122 153 q 91 14 95 35 q 76 3 88 3 q 56 10 65 3 q 47 26 47 17 q 48 28 47 28 l 48 31 l 64 100 l 93 228 l 113 319 q 166 595 134 410 q 216 864 201 793 q 241 962 228 916 q 262 1019 250 994 q 281 1042 273 1042 q 313 1028 303 1042 q 335 889 321 1016 q 361 637 350 762 l 380 407 q 388 226 380 347 q 395 45 395 99 l 395 39 q 391 12 395 20 q 365 0 387 0 m 310 269 q 337 282 337 269 q 328 517 337 368 q 307 781 318 667 q 290 942 302 840 l 288 957 q 285 974 285 967 q 265 897 274 943 q 241 761 256 852 q 184 450 210 557 q 172 403 182 435 q 157 343 162 368 q 152 297 152 318 l 152 289 q 292 269 211 269 l 300 269 q 310 269 304 269 m 334 1088 q 294 1137 321 1088 q 242 1244 267 1186 q 218 1323 218 1303 l 243 1341 l 267 1310 q 279 1262 268 1295 q 303 1189 288 1232 q 325 1129 319 1145 q 365 1337 357 1250 l 383 1348 q 408 1332 408 1344 q 403 1316 408 1329 l 404 1310 l 394 1289 l 395 1280 q 379 1230 389 1261 q 360 1169 366 1195 q 354 1118 354 1143 q 334 1088 354 1088 z "},"Â":{"ha":490,"x_min":47,"x_max":401,"o":"m 365 0 q 347 7 355 0 q 338 24 338 14 l 338 205 q 303 227 338 216 q 223 244 269 237 q 151 250 177 250 q 134 198 147 250 q 109 94 122 153 q 91 14 95 35 q 76 3 88 3 q 56 10 65 3 q 47 26 47 17 q 48 28 47 28 l 48 31 l 64 100 l 93 228 l 113 319 q 166 595 134 410 q 216 864 201 793 q 241 962 228 916 q 262 1019 250 994 q 281 1042 273 1042 q 313 1028 303 1042 q 335 889 321 1016 q 361 637 350 762 l 380 407 q 388 226 380 347 q 395 45 395 99 l 395 39 q 391 12 395 20 q 365 0 387 0 m 310 269 q 337 282 337 269 q 328 517 337 368 q 307 781 318 667 q 290 942 302 840 l 288 957 q 285 974 285 967 q 265 897 274 943 q 241 761 256 852 q 184 450 210 557 q 172 403 182 435 q 157 343 162 368 q 152 297 152 318 l 152 289 q 292 269 211 269 l 300 269 q 310 269 304 269 m 358 1084 q 318 1292 351 1171 q 297 1232 312 1276 q 272 1159 281 1189 q 260 1112 261 1126 l 236 1080 l 211 1097 q 236 1176 212 1118 q 287 1283 260 1234 q 328 1332 315 1332 q 347 1303 347 1332 q 353 1251 347 1277 q 372 1191 359 1225 q 389 1141 382 1160 l 387 1132 l 397 1112 l 396 1104 q 401 1089 401 1092 q 376 1072 401 1076 l 358 1084 z "},"Ấ":{"ha":490,"x_min":47,"x_max":588,"o":"m 365 0 q 347 7 355 0 q 338 24 338 14 l 338 205 q 303 227 338 216 q 223 244 269 237 q 151 250 177 250 q 134 198 147 250 q 109 94 122 153 q 91 14 95 35 q 76 3 88 3 q 56 10 65 3 q 47 26 47 17 q 48 28 47 28 l 48 31 l 64 100 l 93 228 l 113 319 q 166 595 134 410 q 216 864 201 793 q 241 962 228 916 q 262 1019 250 994 q 281 1042 273 1042 q 313 1028 303 1042 q 335 889 321 1016 q 361 637 350 762 l 380 407 q 388 226 380 347 q 395 45 395 99 l 395 39 q 391 12 395 20 q 365 0 387 0 m 310 269 q 337 282 337 269 q 328 517 337 368 q 307 781 318 667 q 290 942 302 840 l 288 957 q 285 974 285 967 q 265 897 274 943 q 241 761 256 852 q 184 450 210 557 q 172 403 182 435 q 157 343 162 368 q 152 297 152 318 l 152 289 q 292 269 211 269 l 300 269 q 310 269 304 269 m 365 1076 q 325 1284 357 1164 q 303 1225 319 1268 q 279 1152 288 1181 q 267 1104 268 1118 l 243 1072 l 218 1090 q 242 1168 218 1110 q 294 1276 267 1227 q 334 1324 321 1324 q 354 1295 354 1324 q 360 1244 354 1270 q 379 1183 366 1218 q 395 1133 389 1153 l 394 1124 l 404 1104 l 403 1097 q 408 1082 408 1084 q 383 1065 408 1069 l 365 1076 m 410 1218 q 392 1223 399 1218 q 385 1238 385 1229 q 423 1274 385 1244 q 506 1339 454 1299 q 557 1380 553 1375 q 588 1358 588 1380 l 584 1337 q 410 1218 513 1305 z "},"Ậ":{"ha":490,"x_min":47,"x_max":401,"o":"m 365 0 q 347 7 355 0 q 338 24 338 14 l 338 205 q 303 227 338 216 q 223 244 269 237 q 151 250 177 250 q 134 198 147 250 q 109 94 122 153 q 91 14 95 35 q 76 3 88 3 q 56 10 65 3 q 47 26 47 17 q 48 28 47 28 l 48 31 l 64 100 l 93 228 l 113 319 q 166 595 134 410 q 216 864 201 793 q 241 962 228 916 q 262 1019 250 994 q 281 1042 273 1042 q 313 1028 303 1042 q 335 889 321 1016 q 361 637 350 762 l 380 407 q 388 226 380 347 q 395 45 395 99 l 395 39 q 391 12 395 20 q 365 0 387 0 m 310 269 q 337 282 337 269 q 328 517 337 368 q 307 781 318 667 q 290 942 302 840 l 288 957 q 285 974 285 967 q 265 897 274 943 q 241 761 256 852 q 184 450 210 557 q 172 403 182 435 q 157 343 162 368 q 152 297 152 318 l 152 289 q 292 269 211 269 l 300 269 q 310 269 304 269 m 241 -163 q 220 -152 229 -163 q 211 -130 211 -142 q 222 -104 211 -116 q 247 -92 233 -92 q 270 -104 259 -92 q 280 -128 280 -116 q 241 -163 280 -163 m 358 1084 q 318 1292 351 1171 q 297 1232 312 1276 q 272 1159 281 1189 q 260 1112 261 1126 l 236 1080 l 211 1097 q 236 1176 212 1118 q 287 1283 260 1234 q 328 1332 315 1332 q 347 1303 347 1332 q 353 1251 347 1277 q 372 1191 359 1225 q 389 1141 382 1160 l 387 1132 l 397 1112 l 396 1104 q 401 1089 401 1092 q 376 1072 401 1076 l 358 1084 z "},"Ầ":{"ha":490,"x_min":47,"x_max":400,"o":"m 214 1222 q 160 1285 199 1240 q 118 1336 121 1331 q 97 1345 109 1339 q 66 1381 66 1363 q 70 1393 66 1386 q 93 1415 82 1414 l 100 1411 q 139 1370 136 1390 l 151 1357 q 189 1312 162 1344 q 224 1260 213 1281 q 235 1231 235 1243 q 234 1224 235 1226 q 224 1220 232 1220 q 214 1222 218 1220 m 357 1078 q 317 1286 349 1166 q 295 1227 311 1270 q 271 1154 280 1183 q 258 1106 260 1120 l 235 1074 l 210 1092 q 234 1171 210 1112 q 286 1278 258 1229 q 326 1326 313 1326 q 346 1297 346 1326 q 352 1246 346 1272 q 371 1185 358 1220 q 387 1135 381 1155 l 386 1126 l 396 1106 l 395 1099 q 400 1084 400 1086 q 375 1067 400 1071 l 357 1078 m 365 0 q 347 7 355 0 q 338 24 338 14 l 338 205 q 303 227 338 216 q 223 244 269 237 q 151 250 177 250 q 134 198 147 250 q 109 94 122 153 q 91 14 95 35 q 76 3 88 3 q 56 10 65 3 q 47 26 47 17 q 48 28 47 28 l 48 31 l 64 100 l 93 228 l 113 319 q 166 595 134 410 q 216 864 201 793 q 241 962 228 916 q 262 1019 250 994 q 281 1042 273 1042 q 313 1028 303 1042 q 335 889 321 1016 q 361 637 350 762 l 380 407 q 388 226 380 347 q 395 45 395 99 l 395 39 q 391 12 395 20 q 365 0 387 0 m 310 269 q 337 282 337 269 q 328 517 337 368 q 307 781 318 667 q 290 942 302 840 l 288 957 q 285 974 285 967 q 265 897 274 943 q 241 761 256 852 q 184 450 210 557 q 172 403 182 435 q 157 343 162 368 q 152 297 152 318 l 152 289 q 292 269 211 269 l 300 269 q 310 269 304 269 z "},"Ẩ":{"ha":490,"x_min":47,"x_max":558,"o":"m 365 0 q 347 7 355 0 q 338 24 338 14 l 338 205 q 303 227 338 216 q 223 244 269 237 q 151 250 177 250 q 134 198 147 250 q 109 94 122 153 q 91 14 95 35 q 76 3 88 3 q 56 10 65 3 q 47 26 47 17 q 48 28 47 28 l 48 31 l 64 100 l 93 228 l 113 319 q 166 595 134 410 q 216 864 201 793 q 241 962 228 916 q 262 1019 250 994 q 281 1042 273 1042 q 313 1028 303 1042 q 335 889 321 1016 q 361 637 350 762 l 380 407 q 388 226 380 347 q 395 45 395 99 l 395 39 q 391 12 395 20 q 365 0 387 0 m 310 269 q 337 282 337 269 q 328 517 337 368 q 307 781 318 667 q 290 942 302 840 l 288 957 q 285 974 285 967 q 265 897 274 943 q 241 761 256 852 q 184 450 210 557 q 172 403 182 435 q 157 343 162 368 q 152 297 152 318 l 152 289 q 292 269 211 269 l 300 269 q 310 269 304 269 m 368 1081 q 328 1289 360 1168 q 306 1230 321 1273 q 281 1156 291 1186 q 269 1109 271 1123 l 245 1077 l 220 1095 q 245 1173 221 1115 q 297 1280 269 1232 q 337 1329 324 1329 q 357 1300 357 1329 q 363 1249 357 1274 q 382 1188 369 1223 q 398 1138 392 1158 l 397 1129 l 407 1109 l 406 1101 q 411 1086 411 1089 q 386 1069 411 1074 l 368 1081 m 479 1212 q 463 1228 465 1212 l 463 1236 q 471 1253 463 1246 q 495 1272 479 1261 q 517 1289 509 1281 q 524 1304 524 1296 q 479 1331 524 1331 q 441 1324 454 1331 q 429 1301 429 1317 q 431 1283 429 1293 q 417 1280 422 1280 q 397 1304 397 1280 q 417 1342 397 1326 q 479 1357 437 1357 q 541 1343 523 1357 q 558 1304 558 1330 q 549 1282 558 1291 q 522 1259 540 1272 q 501 1243 507 1249 q 494 1230 494 1237 l 494 1221 q 479 1212 489 1212 z "},"Ẫ":{"ha":490,"x_min":47,"x_max":453,"o":"m 365 0 q 347 7 355 0 q 338 24 338 14 l 338 205 q 303 227 338 216 q 223 244 269 237 q 151 250 177 250 q 134 198 147 250 q 109 94 122 153 q 91 14 95 35 q 76 3 88 3 q 56 10 65 3 q 47 26 47 17 q 48 28 47 28 l 48 31 l 64 100 l 93 228 l 113 319 q 166 595 134 410 q 216 864 201 793 q 241 962 228 916 q 262 1019 250 994 q 281 1042 273 1042 q 313 1028 303 1042 q 335 889 321 1016 q 361 637 350 762 l 380 407 q 388 226 380 347 q 395 45 395 99 l 395 39 q 391 12 395 20 q 365 0 387 0 m 310 269 q 337 282 337 269 q 328 517 337 368 q 307 781 318 667 q 290 942 302 840 l 288 957 q 285 974 285 967 q 265 897 274 943 q 241 761 256 852 q 184 450 210 557 q 172 403 182 435 q 157 343 162 368 q 152 297 152 318 l 152 289 q 292 269 211 269 l 300 269 q 310 269 304 269 m 358 1084 q 318 1292 351 1171 q 297 1232 312 1276 q 272 1159 281 1189 q 260 1112 261 1126 l 236 1080 l 211 1097 q 236 1176 212 1118 q 287 1283 260 1234 q 328 1332 315 1332 q 347 1303 347 1332 q 353 1251 347 1277 q 372 1191 359 1225 q 389 1141 382 1160 l 387 1132 l 397 1112 l 396 1104 q 401 1089 401 1092 q 376 1072 401 1076 l 358 1084 m 186 1375 q 169 1382 178 1375 q 160 1398 160 1390 q 183 1468 160 1442 q 241 1495 207 1495 q 300 1466 275 1495 q 334 1429 310 1446 q 379 1413 359 1413 q 415 1462 415 1413 q 412 1476 415 1466 q 407 1489 408 1483 q 421 1497 411 1497 q 445 1483 437 1497 q 453 1449 453 1469 q 443 1413 453 1430 q 415 1386 432 1396 q 379 1376 398 1376 q 331 1390 356 1376 q 291 1419 306 1403 q 256 1458 278 1432 l 246 1462 q 210 1451 226 1462 q 195 1425 195 1440 q 201 1396 195 1418 l 186 1375 z "},"Ȁ":{"ha":490,"x_min":-6,"x_max":435,"o":"m 365 0 q 347 7 355 0 q 338 24 338 14 l 338 205 q 303 227 338 216 q 223 244 269 237 q 151 250 177 250 q 134 198 147 250 q 109 94 122 153 q 91 14 95 35 q 76 3 88 3 q 56 10 65 3 q 47 26 47 17 q 48 28 47 28 l 48 31 l 64 100 l 93 228 l 113 319 q 166 595 134 410 q 216 864 201 793 q 241 962 228 916 q 262 1019 250 994 q 281 1042 273 1042 q 313 1028 303 1042 q 335 889 321 1016 q 361 637 350 762 l 380 407 q 388 226 380 347 q 395 45 395 99 l 395 39 q 391 12 395 20 q 365 0 387 0 m 310 269 q 337 282 337 269 q 328 517 337 368 q 307 781 318 667 q 290 942 302 840 l 288 957 q 285 974 285 967 q 265 897 274 943 q 241 761 256 852 q 184 450 210 557 q 172 403 182 435 q 157 343 162 368 q 152 297 152 318 l 152 289 q 292 269 211 269 l 300 269 q 310 269 304 269 m 429 1093 q 372 1123 406 1097 q 323 1154 339 1147 q 197 1253 297 1173 q 189 1266 189 1257 q 195 1280 189 1272 q 203 1287 201 1287 q 268 1244 211 1287 q 379 1155 326 1201 q 435 1100 433 1109 l 429 1093 m 254 1097 q 225 1112 248 1097 q 175 1144 199 1128 l 159 1154 q 141 1165 143 1164 q 66 1202 89 1193 l -6 1243 q 5 1265 -4 1254 q 22 1277 15 1277 q 100 1236 29 1277 q 195 1168 123 1222 q 261 1107 261 1117 q 254 1097 261 1097 z "},"Ä":{"ha":490,"x_min":47,"x_max":440,"o":"m 365 0 q 347 7 355 0 q 338 24 338 14 l 338 205 q 303 227 338 216 q 223 244 269 237 q 151 250 177 250 q 134 198 147 250 q 109 94 122 153 q 91 14 95 35 q 76 3 88 3 q 56 10 65 3 q 47 26 47 17 q 48 28 47 28 l 48 31 l 64 100 l 93 228 l 113 319 q 166 595 134 410 q 216 864 201 793 q 241 962 228 916 q 262 1019 250 994 q 281 1042 273 1042 q 313 1028 303 1042 q 335 889 321 1016 q 361 637 350 762 l 380 407 q 388 226 380 347 q 395 45 395 99 l 395 39 q 391 12 395 20 q 365 0 387 0 m 310 269 q 337 282 337 269 q 328 517 337 368 q 307 781 318 667 q 290 942 302 840 l 288 957 q 285 974 285 967 q 265 897 274 943 q 241 761 256 852 q 184 450 210 557 q 172 403 182 435 q 157 343 162 368 q 152 297 152 318 l 152 289 q 292 269 211 269 l 300 269 q 310 269 304 269 m 404 1124 q 385 1134 393 1124 q 376 1154 376 1143 q 386 1178 376 1167 q 410 1189 397 1189 q 431 1178 421 1189 q 440 1156 440 1166 q 404 1124 440 1124 m 219 1118 q 200 1129 208 1118 q 193 1153 193 1140 q 203 1176 193 1165 q 226 1187 214 1187 q 247 1174 239 1187 q 254 1142 254 1161 q 243 1125 254 1131 q 219 1118 233 1118 z "},"Ȧ":{"ha":490,"x_min":47,"x_max":395,"o":"m 365 0 q 347 7 355 0 q 338 24 338 14 l 338 205 q 303 227 338 216 q 223 244 269 237 q 151 250 177 250 q 134 198 147 250 q 109 94 122 153 q 91 14 95 35 q 76 3 88 3 q 56 10 65 3 q 47 26 47 17 q 48 28 47 28 l 48 31 l 64 100 l 93 228 l 113 319 q 166 595 134 410 q 216 864 201 793 q 241 962 228 916 q 262 1019 250 994 q 281 1042 273 1042 q 313 1028 303 1042 q 335 889 321 1016 q 361 637 350 762 l 380 407 q 388 226 380 347 q 395 45 395 99 l 395 39 q 391 12 395 20 q 365 0 387 0 m 310 269 q 337 282 337 269 q 328 517 337 368 q 307 781 318 667 q 290 942 302 840 l 288 957 q 285 974 285 967 q 265 897 274 943 q 241 761 256 852 q 184 450 210 557 q 172 403 182 435 q 157 343 162 368 q 152 297 152 318 l 152 289 q 292 269 211 269 l 300 269 q 310 269 304 269 m 309 1116 q 288 1127 297 1116 q 279 1149 279 1137 q 290 1175 279 1163 q 315 1187 301 1187 q 337 1175 327 1187 q 348 1151 348 1163 q 309 1116 348 1116 z "},"Ạ":{"ha":490,"x_min":47,"x_max":395,"o":"m 365 0 q 347 7 355 0 q 338 24 338 14 l 338 205 q 303 227 338 216 q 223 244 269 237 q 151 250 177 250 q 134 198 147 250 q 109 94 122 153 q 91 14 95 35 q 76 3 88 3 q 56 10 65 3 q 47 26 47 17 q 48 28 47 28 l 48 31 l 64 100 l 93 228 l 113 319 q 166 595 134 410 q 216 864 201 793 q 241 962 228 916 q 262 1019 250 994 q 281 1042 273 1042 q 313 1028 303 1042 q 335 889 321 1016 q 361 637 350 762 l 380 407 q 388 226 380 347 q 395 45 395 99 l 395 39 q 391 12 395 20 q 365 0 387 0 m 310 269 q 337 282 337 269 q 328 517 337 368 q 307 781 318 667 q 290 942 302 840 l 288 957 q 285 974 285 967 q 265 897 274 943 q 241 761 256 852 q 184 450 210 557 q 172 403 182 435 q 157 343 162 368 q 152 297 152 318 l 152 289 q 292 269 211 269 l 300 269 q 310 269 304 269 m 241 -163 q 220 -152 229 -163 q 211 -130 211 -142 q 222 -104 211 -116 q 247 -92 233 -92 q 270 -104 259 -92 q 280 -128 280 -116 q 241 -163 280 -163 z "},"À":{"ha":490,"x_min":47,"x_max":395,"o":"m 365 0 q 347 7 355 0 q 338 24 338 14 l 338 205 q 303 227 338 216 q 223 244 269 237 q 151 250 177 250 q 134 198 147 250 q 109 94 122 153 q 91 14 95 35 q 76 3 88 3 q 56 10 65 3 q 47 26 47 17 q 48 28 47 28 l 48 31 l 64 100 l 93 228 l 113 319 q 166 595 134 410 q 216 864 201 793 q 241 962 228 916 q 262 1019 250 994 q 281 1042 273 1042 q 313 1028 303 1042 q 335 889 321 1016 q 361 637 350 762 l 380 407 q 388 226 380 347 q 395 45 395 99 l 395 39 q 391 12 395 20 q 365 0 387 0 m 310 269 q 337 282 337 269 q 328 517 337 368 q 307 781 318 667 q 290 942 302 840 l 288 957 q 285 974 285 967 q 265 897 274 943 q 241 761 256 852 q 184 450 210 557 q 172 403 182 435 q 157 343 162 368 q 152 297 152 318 l 152 289 q 292 269 211 269 l 300 269 q 310 269 304 269 m 363 1074 q 300 1109 361 1075 q 234 1148 239 1144 l 227 1148 q 212 1149 220 1148 q 170 1185 164 1158 q 183 1213 174 1209 l 192 1212 q 242 1187 233 1205 l 258 1179 q 309 1149 272 1172 q 360 1114 341 1129 q 381 1083 383 1095 q 375 1076 380 1079 q 363 1074 369 1074 z "},"Ả":{"ha":490,"x_min":47,"x_max":400,"o":"m 365 0 q 347 7 355 0 q 338 24 338 14 l 338 205 q 303 227 338 216 q 223 244 269 237 q 151 250 177 250 q 134 198 147 250 q 109 94 122 153 q 91 14 95 35 q 76 3 88 3 q 56 10 65 3 q 47 26 47 17 q 48 28 47 28 l 48 31 l 64 100 l 93 228 l 113 319 q 166 595 134 410 q 216 864 201 793 q 241 962 228 916 q 262 1019 250 994 q 281 1042 273 1042 q 313 1028 303 1042 q 335 889 321 1016 q 361 637 350 762 l 380 407 q 388 226 380 347 q 395 45 395 99 l 395 39 q 391 12 395 20 q 365 0 387 0 m 310 269 q 337 282 337 269 q 328 517 337 368 q 307 781 318 667 q 290 942 302 840 l 288 957 q 285 974 285 967 q 265 897 274 943 q 241 761 256 852 q 184 450 210 557 q 172 403 182 435 q 157 343 162 368 q 152 297 152 318 l 152 289 q 292 269 211 269 l 300 269 q 310 269 304 269 m 321 1067 q 305 1083 307 1067 l 305 1090 q 313 1108 305 1101 q 337 1127 321 1116 q 359 1143 351 1136 q 366 1159 366 1151 q 321 1185 366 1185 q 283 1179 296 1185 q 271 1156 271 1172 q 273 1138 271 1147 q 259 1135 264 1135 q 239 1159 239 1135 q 259 1197 239 1181 q 321 1212 279 1212 q 382 1198 365 1212 q 400 1159 400 1185 q 391 1137 400 1146 q 363 1114 382 1127 q 343 1098 349 1104 q 336 1084 336 1092 l 336 1076 q 321 1067 331 1067 z "},"Ȃ":{"ha":490,"x_min":47,"x_max":406,"o":"m 365 0 q 347 7 355 0 q 338 24 338 14 l 338 205 q 303 227 338 216 q 223 244 269 237 q 151 250 177 250 q 134 198 147 250 q 109 94 122 153 q 91 14 95 35 q 76 3 88 3 q 56 10 65 3 q 47 26 47 17 q 48 28 47 28 l 48 31 l 64 100 l 93 228 l 113 319 q 166 595 134 410 q 216 864 201 793 q 241 962 228 916 q 262 1019 250 994 q 281 1042 273 1042 q 313 1028 303 1042 q 335 889 321 1016 q 361 637 350 762 l 380 407 q 388 226 380 347 q 395 45 395 99 l 395 39 q 391 12 395 20 q 365 0 387 0 m 310 269 q 337 282 337 269 q 328 517 337 368 q 307 781 318 667 q 290 942 302 840 l 288 957 q 285 974 285 967 q 265 897 274 943 q 241 761 256 852 q 184 450 210 557 q 172 403 182 435 q 157 343 162 368 q 152 297 152 318 l 152 289 q 292 269 211 269 l 300 269 q 310 269 304 269 m 201 1085 q 222 1179 201 1137 q 253 1214 233 1202 q 302 1227 274 1227 q 353 1213 328 1227 q 380 1178 366 1206 q 385 1170 382 1175 q 391 1154 387 1164 q 398 1138 395 1144 q 402 1130 401 1133 l 399 1120 l 403 1109 q 406 1098 406 1101 q 400 1084 406 1090 q 385 1078 393 1078 q 360 1105 360 1078 q 361 1115 360 1110 q 361 1124 361 1119 q 355 1155 361 1138 q 337 1183 348 1171 q 314 1195 326 1195 l 279 1195 l 264 1184 q 242 1150 250 1173 q 229 1095 235 1126 q 216 1073 225 1074 l 201 1085 z "},"Ā":{"ha":490,"x_min":47,"x_max":447,"o":"m 365 0 q 347 7 355 0 q 338 24 338 14 l 338 205 q 303 227 338 216 q 223 244 269 237 q 151 250 177 250 q 134 198 147 250 q 109 94 122 153 q 91 14 95 35 q 76 3 88 3 q 56 10 65 3 q 47 26 47 17 q 48 28 47 28 l 48 31 l 64 100 l 93 228 l 113 319 q 166 595 134 410 q 216 864 201 793 q 241 962 228 916 q 262 1019 250 994 q 281 1042 273 1042 q 313 1028 303 1042 q 335 889 321 1016 q 361 637 350 762 l 380 407 q 388 226 380 347 q 395 45 395 99 l 395 39 q 391 12 395 20 q 365 0 387 0 m 310 269 q 337 282 337 269 q 328 517 337 368 q 307 781 318 667 q 290 942 302 840 l 288 957 q 285 974 285 967 q 265 897 274 943 q 241 761 256 852 q 184 450 210 557 q 172 403 182 435 q 157 343 162 368 q 152 297 152 318 l 152 289 q 292 269 211 269 l 300 269 q 310 269 304 269 m 253 1135 q 209 1138 222 1135 q 182 1148 186 1143 q 179 1158 179 1153 q 268 1169 180 1169 l 347 1169 q 386 1169 370 1169 q 417 1166 401 1168 q 440 1160 433 1164 q 447 1147 447 1155 q 358 1135 446 1135 l 280 1135 l 253 1135 z "},"Ą":{"ha":490,"x_min":47,"x_max":416,"o":"m 401 -256 q 416 -270 416 -256 q 397 -297 416 -287 q 357 -307 378 -307 q 306 -289 330 -307 q 267 -245 281 -271 q 252 -197 252 -219 q 261 -132 252 -165 q 286 -72 271 -98 q 338 2 316 -20 l 345 9 q 338 24 338 15 l 338 205 q 303 227 338 216 q 223 244 269 237 q 151 250 177 250 q 134 198 147 250 q 109 94 122 153 q 91 14 95 35 q 76 3 88 3 q 56 10 65 3 q 47 26 47 17 q 48 28 47 28 l 48 31 l 64 100 l 93 228 l 113 319 q 166 595 134 410 q 216 864 201 793 q 241 962 228 916 q 262 1019 250 994 q 281 1042 273 1042 q 313 1028 303 1042 q 335 889 321 1016 q 361 637 350 762 l 380 407 q 388 226 380 347 q 395 45 395 99 l 395 39 q 391 12 395 20 q 389 7 390 9 l 389 7 q 378 -11 389 6 q 349 -53 361 -33 q 326 -98 336 -73 q 314 -152 314 -128 q 311 -184 314 -167 l 311 -197 q 310 -213 310 -204 q 325 -251 310 -231 q 357 -270 340 -270 q 379 -262 364 -270 q 401 -256 393 -256 m 310 269 q 337 282 337 269 q 328 517 337 368 q 307 781 318 667 q 290 942 302 840 l 288 957 q 285 974 285 967 q 265 897 274 943 q 241 761 256 852 q 184 450 210 557 q 172 403 182 435 q 157 343 162 368 q 152 297 152 318 l 152 289 q 292 269 211 269 l 300 269 q 310 269 304 269 z "},"Å":{"ha":490,"x_min":47,"x_max":395,"o":"m 365 0 q 347 7 355 0 q 338 24 338 14 l 338 205 q 303 227 338 216 q 223 244 269 237 q 151 250 177 250 q 134 198 147 250 q 109 94 122 153 q 91 14 95 35 q 76 3 88 3 q 56 10 65 3 q 47 26 47 17 q 48 28 47 28 l 48 31 l 64 100 l 93 228 l 113 319 q 166 595 134 410 q 216 864 201 793 q 241 962 228 916 q 262 1019 250 994 q 281 1042 273 1042 q 313 1028 303 1042 q 335 889 321 1016 q 361 637 350 762 l 380 407 q 388 226 380 347 q 395 45 395 99 l 395 39 q 391 12 395 20 q 365 0 387 0 m 310 269 q 337 282 337 269 q 328 517 337 368 q 307 781 318 667 q 290 942 302 840 l 288 957 q 285 974 285 967 q 265 897 274 943 q 241 761 256 852 q 184 450 210 557 q 172 403 182 435 q 157 343 162 368 q 152 297 152 318 l 152 289 q 292 269 211 269 l 300 269 q 310 269 304 269 m 302 1089 q 269 1100 285 1089 q 244 1127 254 1110 q 235 1162 235 1144 q 247 1203 235 1183 q 277 1236 258 1223 q 315 1249 296 1249 q 350 1236 332 1249 q 380 1204 368 1223 q 391 1168 391 1185 q 367 1110 391 1131 q 302 1089 342 1089 m 297 1116 q 335 1127 315 1116 q 355 1154 355 1139 q 345 1202 355 1181 q 315 1222 334 1222 q 282 1205 298 1222 q 267 1170 267 1188 q 269 1146 267 1156 q 277 1126 271 1136 q 297 1116 284 1116 z "},"Ǻ":{"ha":490,"x_min":47,"x_max":489,"o":"m 365 0 q 347 7 355 0 q 338 24 338 14 l 338 205 q 303 227 338 216 q 223 244 269 237 q 151 250 177 250 q 134 198 147 250 q 109 94 122 153 q 91 14 95 35 q 76 3 88 3 q 56 10 65 3 q 47 26 47 17 q 48 28 47 28 l 48 31 l 64 100 l 93 228 l 113 319 q 166 595 134 410 q 216 864 201 793 q 241 962 228 916 q 262 1019 250 994 q 281 1042 273 1042 q 313 1028 303 1042 q 335 889 321 1016 q 361 637 350 762 l 380 407 q 388 226 380 347 q 395 45 395 99 l 395 39 q 391 12 395 20 q 365 0 387 0 m 310 269 q 337 282 337 269 q 328 517 337 368 q 307 781 318 667 q 290 942 302 840 l 288 957 q 285 974 285 967 q 265 897 274 943 q 241 761 256 852 q 184 450 210 557 q 172 403 182 435 q 157 343 162 368 q 152 297 152 318 l 152 289 q 292 269 211 269 l 300 269 q 310 269 304 269 m 302 1089 q 269 1100 285 1089 q 244 1127 254 1110 q 235 1162 235 1144 q 247 1203 235 1183 q 277 1236 258 1223 q 315 1249 296 1249 q 350 1236 332 1249 q 380 1204 368 1223 q 391 1168 391 1185 q 367 1110 391 1131 q 302 1089 342 1089 m 297 1116 q 335 1127 315 1116 q 355 1154 355 1139 q 345 1202 355 1181 q 315 1222 334 1222 q 282 1205 298 1222 q 267 1170 267 1188 q 269 1146 267 1156 q 277 1126 271 1136 q 297 1116 284 1116 m 311 1313 q 293 1318 300 1313 q 286 1333 286 1324 q 324 1369 286 1339 q 407 1434 355 1394 q 458 1475 454 1470 q 489 1453 489 1475 l 485 1432 q 311 1313 414 1400 z "},"Ã":{"ha":490,"x_min":47,"x_max":460,"o":"m 365 0 q 347 7 355 0 q 338 24 338 14 l 338 205 q 303 227 338 216 q 223 244 269 237 q 151 250 177 250 q 134 198 147 250 q 109 94 122 153 q 91 14 95 35 q 76 3 88 3 q 56 10 65 3 q 47 26 47 17 q 48 28 47 28 l 48 31 l 64 100 l 93 228 l 113 319 q 166 595 134 410 q 216 864 201 793 q 241 962 228 916 q 262 1019 250 994 q 281 1042 273 1042 q 313 1028 303 1042 q 335 889 321 1016 q 361 637 350 762 l 380 407 q 388 226 380 347 q 395 45 395 99 l 395 39 q 391 12 395 20 q 365 0 387 0 m 310 269 q 337 282 337 269 q 328 517 337 368 q 307 781 318 667 q 290 942 302 840 l 288 957 q 285 974 285 967 q 265 897 274 943 q 241 761 256 852 q 184 450 210 557 q 172 403 182 435 q 157 343 162 368 q 152 297 152 318 l 152 289 q 292 269 211 269 l 300 269 q 310 269 304 269 m 193 1090 q 176 1098 184 1090 q 167 1114 167 1105 q 190 1183 167 1157 q 248 1210 214 1210 q 307 1181 282 1210 q 341 1144 317 1161 q 386 1128 366 1128 q 422 1177 422 1128 q 418 1192 422 1181 q 414 1204 415 1198 q 428 1212 418 1212 q 452 1198 444 1212 q 460 1164 460 1184 q 449 1128 460 1145 q 422 1101 439 1112 q 386 1091 405 1091 q 338 1105 363 1091 q 298 1134 313 1118 q 262 1173 285 1147 l 253 1177 q 217 1166 233 1177 q 201 1140 201 1156 q 208 1111 201 1133 l 193 1090 z "},"Æ":{"ha":566,"x_min":34,"x_max":549,"o":"m 309 -8 q 320 155 320 71 q 317 289 320 191 q 313 421 313 387 l 306 431 q 262 427 301 430 q 195 419 216 422 q 163 407 165 414 l 94 142 q 83 91 92 129 q 66 29 75 52 q 45 1 56 1 q 37 7 41 1 q 34 18 34 13 q 90 293 35 81 q 271 945 174 631 q 304 1027 290 1008 q 335 1047 319 1047 q 388 1050 349 1047 q 442 1054 427 1054 q 486 1032 486 1054 l 477 1015 q 340 1007 409 1015 q 345 904 340 968 q 349 800 349 840 q 347 638 349 746 q 345 476 345 530 l 352 468 q 407 475 370 468 q 462 482 441 482 l 481 458 q 382 435 481 435 l 345 435 q 348 270 345 368 q 351 104 351 172 q 350 76 351 89 q 349 47 349 63 q 361 24 349 24 q 440 31 386 24 q 519 39 494 39 q 540 34 530 39 q 549 21 549 29 q 508 1 549 6 q 418 -5 466 -4 q 360 -9 368 -6 l 347 -19 q 328 -28 336 -26 l 309 -8 m 173 450 q 312 467 260 454 l 315 612 q 317 782 317 722 q 309 945 317 879 q 269 824 301 935 q 206 593 237 713 q 173 450 175 473 z "},"Ǽ":{"ha":566,"x_min":34,"x_max":564,"o":"m 309 -8 q 320 155 320 71 q 317 289 320 191 q 313 421 313 387 l 306 431 q 262 427 301 430 q 195 419 216 422 q 163 407 165 414 l 94 142 q 83 91 92 129 q 66 29 75 52 q 45 1 56 1 q 37 7 41 1 q 34 18 34 13 q 90 293 35 81 q 271 945 174 631 q 304 1027 290 1008 q 335 1047 319 1047 q 388 1050 349 1047 q 442 1054 427 1054 q 486 1032 486 1054 l 477 1015 q 340 1007 409 1015 q 345 904 340 968 q 349 800 349 840 q 347 638 349 746 q 345 476 345 530 l 352 468 q 407 475 370 468 q 462 482 441 482 l 481 458 q 382 435 481 435 l 345 435 q 348 270 345 368 q 351 104 351 172 q 350 76 351 89 q 349 47 349 63 q 361 24 349 24 q 440 31 386 24 q 519 39 494 39 q 540 34 530 39 q 549 21 549 29 q 508 1 549 6 q 418 -5 466 -4 q 360 -9 368 -6 l 347 -19 q 328 -28 336 -26 l 309 -8 m 173 450 q 312 467 260 454 l 315 612 q 317 782 317 722 q 309 945 317 879 q 269 824 301 935 q 206 593 237 713 q 173 450 175 473 m 386 1115 q 368 1120 375 1115 q 361 1135 361 1126 q 399 1171 361 1141 q 481 1236 429 1196 q 533 1277 528 1272 q 564 1255 564 1277 l 559 1234 q 386 1115 488 1202 z "},"Ǣ":{"ha":566,"x_min":34,"x_max":549,"o":"m 309 -8 q 320 155 320 71 q 317 289 320 191 q 313 421 313 387 l 306 431 q 262 427 301 430 q 195 419 216 422 q 163 407 165 414 l 94 142 q 83 91 92 129 q 66 29 75 52 q 45 1 56 1 q 37 7 41 1 q 34 18 34 13 q 90 293 35 81 q 271 945 174 631 q 304 1027 290 1008 q 335 1047 319 1047 q 388 1050 349 1047 q 442 1054 427 1054 q 486 1032 486 1054 l 477 1015 q 340 1007 409 1015 q 345 904 340 968 q 349 800 349 840 q 347 638 349 746 q 345 476 345 530 l 352 468 q 407 475 370 468 q 462 482 441 482 l 481 458 q 382 435 481 435 l 345 435 q 348 270 345 368 q 351 104 351 172 q 350 76 351 89 q 349 47 349 63 q 361 24 349 24 q 440 31 386 24 q 519 39 494 39 q 540 34 530 39 q 549 21 549 29 q 508 1 549 6 q 418 -5 466 -4 q 360 -9 368 -6 l 347 -19 q 328 -28 336 -26 l 309 -8 m 173 450 q 312 467 260 454 l 315 612 q 317 782 317 722 q 309 945 317 879 q 269 824 301 935 q 206 593 237 713 q 173 450 175 473 m 328 1139 q 283 1141 296 1139 q 257 1152 261 1146 q 254 1161 254 1156 q 342 1173 255 1173 l 421 1173 q 460 1172 445 1173 q 492 1170 476 1172 q 515 1163 508 1168 q 522 1150 522 1158 q 433 1139 520 1139 l 355 1139 l 328 1139 z "},"B":{"ha":448,"x_min":102,"x_max":376,"o":"m 156 -8 q 104 11 104 -8 q 108 187 104 56 q 111 363 111 317 q 106 652 111 473 q 102 942 102 832 q 138 1042 102 1042 q 243 1014 199 1042 q 310 937 288 987 q 332 823 332 888 q 243 593 332 714 q 322 499 293 543 q 363 406 351 454 q 376 294 376 357 q 373 204 376 238 q 360 139 370 170 q 333 86 351 109 q 286 44 315 64 q 214 5 256 24 q 186 -1 202 4 q 159 -8 170 -8 l 156 -8 m 154 600 q 212 627 184 600 q 258 696 240 654 q 286 780 276 736 q 296 860 296 823 q 280 923 296 891 q 237 974 264 954 q 180 994 210 994 q 144 935 144 994 q 147 768 144 867 q 150 602 150 670 l 154 600 m 165 46 q 251 75 212 46 q 314 151 291 103 q 338 252 338 198 q 218 550 338 500 q 182 543 202 549 q 150 534 158 535 q 157 47 157 340 q 161 47 159 47 l 165 46 z "},"Ḃ":{"ha":448,"x_min":102,"x_max":376,"o":"m 156 -8 q 104 11 104 -8 q 108 187 104 56 q 111 363 111 317 q 106 652 111 473 q 102 942 102 832 q 138 1042 102 1042 q 243 1014 199 1042 q 310 937 288 987 q 332 823 332 888 q 243 593 332 714 q 322 499 293 543 q 363 406 351 454 q 376 294 376 357 q 373 204 376 238 q 360 139 370 170 q 333 86 351 109 q 286 44 315 64 q 214 5 256 24 q 186 -1 202 4 q 159 -8 170 -8 l 156 -8 m 154 600 q 212 627 184 600 q 258 696 240 654 q 286 780 276 736 q 296 860 296 823 q 280 923 296 891 q 237 974 264 954 q 180 994 210 994 q 144 935 144 994 q 147 768 144 867 q 150 602 150 670 l 154 600 m 165 46 q 251 75 212 46 q 314 151 291 103 q 338 252 338 198 q 218 550 338 500 q 182 543 202 549 q 150 534 158 535 q 157 47 157 340 q 161 47 159 47 l 165 46 m 172 1116 q 151 1127 160 1116 q 142 1149 142 1137 q 153 1175 142 1163 q 178 1187 164 1187 q 200 1175 190 1187 q 211 1151 211 1163 q 172 1116 211 1116 z "},"C":{"ha":458,"x_min":85,"x_max":435,"o":"m 281 -22 q 226 -8 255 -22 q 173 30 197 6 q 138 78 149 53 q 115 203 127 102 q 94 421 102 304 q 86 595 86 538 q 85 669 86 636 q 85 739 85 701 q 87 815 85 783 q 94 882 89 847 q 107 942 98 917 q 133 991 117 967 q 170 1029 149 1015 q 224 1053 192 1044 q 296 1061 255 1061 q 332 1054 313 1061 q 363 1035 351 1047 q 376 1010 376 1023 q 355 994 376 994 q 323 1004 347 994 q 285 1014 298 1014 q 215 998 245 1014 q 165 956 184 983 q 139 895 149 932 q 125 817 128 857 q 121 733 121 777 l 123 656 l 124 583 q 133 412 124 526 q 155 202 142 298 q 181 86 168 105 q 230 46 198 60 q 299 32 262 32 q 396 72 362 32 q 422 90 408 90 q 435 69 435 90 q 419 26 435 45 q 378 -3 404 7 q 281 -22 330 -22 z "},"Ć":{"ha":458,"x_min":85,"x_max":435,"o":"m 281 -22 q 226 -8 255 -22 q 173 30 197 6 q 138 78 149 53 q 115 203 127 102 q 94 421 102 304 q 86 595 86 538 q 85 669 86 636 q 85 739 85 701 q 87 815 85 783 q 94 882 89 847 q 107 942 98 917 q 133 991 117 967 q 170 1029 149 1015 q 224 1053 192 1044 q 296 1061 255 1061 q 332 1054 313 1061 q 363 1035 351 1047 q 376 1010 376 1023 q 355 994 376 994 q 323 1004 347 994 q 285 1014 298 1014 q 215 998 245 1014 q 165 956 184 983 q 139 895 149 932 q 125 817 128 857 q 121 733 121 777 l 123 656 l 124 583 q 133 412 124 526 q 155 202 142 298 q 181 86 168 105 q 230 46 198 60 q 299 32 262 32 q 396 72 362 32 q 422 90 408 90 q 435 69 435 90 q 419 26 435 45 q 378 -3 404 7 q 281 -22 330 -22 m 227 1112 q 209 1117 216 1112 q 202 1132 202 1122 q 240 1168 202 1137 q 323 1233 271 1193 q 374 1274 370 1269 q 405 1252 405 1274 l 401 1231 q 227 1112 330 1199 z "},"Č":{"ha":458,"x_min":85,"x_max":435,"o":"m 281 -22 q 226 -8 255 -22 q 173 30 197 6 q 138 78 149 53 q 115 203 127 102 q 94 421 102 304 q 86 595 86 538 q 85 669 86 636 q 85 739 85 701 q 87 815 85 783 q 94 882 89 847 q 107 942 98 917 q 133 991 117 967 q 170 1029 149 1015 q 224 1053 192 1044 q 296 1061 255 1061 q 332 1054 313 1061 q 363 1035 351 1047 q 376 1010 376 1023 q 355 994 376 994 q 323 1004 347 994 q 285 1014 298 1014 q 215 998 245 1014 q 165 956 184 983 q 139 895 149 932 q 125 817 128 857 q 121 733 121 777 l 123 656 l 124 583 q 133 412 124 526 q 155 202 142 298 q 181 86 168 105 q 230 46 198 60 q 299 32 262 32 q 396 72 362 32 q 422 90 408 90 q 435 69 435 90 q 419 26 435 45 q 378 -3 404 7 q 281 -22 330 -22 m 250 1088 q 210 1137 237 1088 q 158 1244 182 1186 q 134 1323 134 1303 l 159 1341 l 182 1310 q 195 1262 184 1295 q 219 1189 204 1232 q 241 1129 235 1145 q 281 1337 273 1250 l 299 1348 q 324 1332 324 1344 q 319 1316 324 1329 l 320 1310 l 310 1289 l 311 1280 q 295 1230 305 1261 q 276 1169 282 1195 q 270 1118 270 1143 q 250 1088 270 1088 z "},"Ç":{"ha":458,"x_min":85,"x_max":435,"o":"m 378 -3 q 293 -22 337 -19 q 292 -55 292 -43 q 393 -195 393 -62 q 378 -242 393 -216 q 338 -287 363 -269 q 288 -304 314 -304 q 247 -294 266 -304 q 228 -267 228 -284 q 243 -253 228 -253 q 265 -260 252 -253 q 288 -267 280 -267 q 327 -238 311 -267 q 342 -170 342 -209 q 321 -109 342 -125 q 302 -111 315 -109 q 283 -113 291 -113 q 245 -85 263 -113 q 257 -20 255 -64 q 187 17 221 -11 q 138 78 153 45 q 115 203 127 102 q 94 421 102 304 q 86 595 86 538 q 85 669 86 636 q 85 739 85 701 q 87 815 85 783 q 94 882 89 847 q 107 942 98 917 q 133 991 117 967 q 170 1029 149 1015 q 224 1053 192 1044 q 296 1061 255 1061 q 332 1054 313 1061 q 363 1035 351 1047 q 376 1010 376 1023 q 355 994 376 994 q 323 1004 347 994 q 285 1014 298 1014 q 215 998 245 1014 q 165 956 184 983 q 139 895 149 932 q 125 817 128 857 q 121 733 121 777 l 123 656 l 124 583 q 133 412 124 526 q 155 202 142 298 q 181 86 168 105 q 230 46 198 60 q 299 32 262 32 q 396 72 362 32 q 422 90 408 90 q 435 69 435 90 q 419 26 435 45 q 378 -3 404 7 z "},"Ĉ":{"ha":458,"x_min":85,"x_max":435,"o":"m 281 -22 q 226 -8 255 -22 q 173 30 197 6 q 138 78 149 53 q 115 203 127 102 q 94 421 102 304 q 86 595 86 538 q 85 669 86 636 q 85 739 85 701 q 87 815 85 783 q 94 882 89 847 q 107 942 98 917 q 133 991 117 967 q 170 1029 149 1015 q 224 1053 192 1044 q 296 1061 255 1061 q 332 1054 313 1061 q 363 1035 351 1047 q 376 1010 376 1023 q 355 994 376 994 q 323 1004 347 994 q 285 1014 298 1014 q 215 998 245 1014 q 165 956 184 983 q 139 895 149 932 q 125 817 128 857 q 121 733 121 777 l 123 656 l 124 583 q 133 412 124 526 q 155 202 142 298 q 181 86 168 105 q 230 46 198 60 q 299 32 262 32 q 396 72 362 32 q 422 90 408 90 q 435 69 435 90 q 419 26 435 45 q 378 -3 404 7 q 281 -22 330 -22 m 274 1084 q 234 1292 267 1171 q 213 1232 228 1276 q 188 1159 197 1189 q 176 1112 177 1126 l 152 1080 l 127 1097 q 152 1176 127 1118 q 203 1283 176 1234 q 243 1332 231 1332 q 263 1303 263 1332 q 269 1251 263 1277 q 288 1191 275 1225 q 304 1141 298 1160 l 303 1132 l 313 1112 l 312 1104 q 317 1089 317 1092 q 292 1072 317 1076 l 274 1084 z "},"Ċ":{"ha":458,"x_min":85,"x_max":435,"o":"m 281 -22 q 226 -8 255 -22 q 173 30 197 6 q 138 78 149 53 q 115 203 127 102 q 94 421 102 304 q 86 595 86 538 q 85 669 86 636 q 85 739 85 701 q 87 815 85 783 q 94 882 89 847 q 107 942 98 917 q 133 991 117 967 q 170 1029 149 1015 q 224 1053 192 1044 q 296 1061 255 1061 q 332 1054 313 1061 q 363 1035 351 1047 q 376 1010 376 1023 q 355 994 376 994 q 323 1004 347 994 q 285 1014 298 1014 q 215 998 245 1014 q 165 956 184 983 q 139 895 149 932 q 125 817 128 857 q 121 733 121 777 l 123 656 l 124 583 q 133 412 124 526 q 155 202 142 298 q 181 86 168 105 q 230 46 198 60 q 299 32 262 32 q 396 72 362 32 q 422 90 408 90 q 435 69 435 90 q 419 26 435 45 q 378 -3 404 7 q 281 -22 330 -22 m 225 1116 q 204 1127 213 1116 q 195 1149 195 1137 q 206 1175 195 1163 q 231 1187 217 1187 q 253 1175 243 1187 q 264 1151 264 1163 q 225 1116 264 1116 z "},"D":{"ha":529,"x_min":88,"x_max":437,"o":"m 161 -3 q 127 5 144 -3 q 111 25 111 13 q 122 53 111 34 q 132 81 134 71 l 128 203 l 119 582 q 116 732 118 587 l 116 749 q 108 943 113 910 q 98 977 106 953 q 88 1015 88 1002 q 193 1048 88 1048 l 199 1048 q 267 1036 235 1048 q 323 1000 299 1023 q 363 948 345 980 q 394 882 382 916 q 414 812 405 851 q 427 739 423 772 q 434 671 431 709 q 437 612 437 634 l 437 568 q 415 381 437 481 q 351 193 392 281 q 286 93 325 138 q 210 23 246 49 q 161 -3 174 -3 m 182 68 q 273 146 233 95 q 337 256 313 197 q 372 376 357 309 q 391 497 387 442 q 395 593 395 547 q 172 999 395 999 q 142 983 142 999 q 149 867 142 944 q 155 753 155 791 q 165 488 155 659 q 176 224 176 312 l 176 68 l 182 68 z "},"Ǳ":{"ha":871,"x_min":88,"x_max":783,"o":"m 161 -3 q 127 5 144 -3 q 111 25 111 13 q 122 53 111 34 q 132 81 134 71 l 128 203 l 119 582 q 116 732 118 587 l 116 749 q 108 943 113 910 q 98 977 106 953 q 88 1015 88 1002 q 193 1048 88 1048 l 199 1048 q 267 1036 235 1048 q 323 1000 299 1023 q 363 948 345 980 q 394 882 382 916 q 414 812 405 851 q 427 739 423 772 q 434 671 431 709 q 437 612 437 634 l 437 568 q 415 381 437 481 q 351 193 392 281 q 286 93 325 138 q 210 23 246 49 q 161 -3 174 -3 m 182 68 q 273 146 233 95 q 337 256 313 197 q 372 376 357 309 q 391 497 387 442 q 395 593 395 547 q 172 999 395 999 q 142 983 142 999 q 149 867 142 944 q 155 753 155 791 q 165 488 155 659 q 176 224 176 312 l 176 68 l 182 68 m 597 -12 q 576 5 584 -12 q 619 119 604 54 q 644 276 634 183 q 661 399 654 366 l 672 476 q 725 860 712 764 l 728 882 l 732 908 q 743 1017 743 977 q 697 1013 732 1017 q 650 1010 662 1010 q 587 1038 587 1010 l 597 1048 q 631 1046 608 1046 q 696 1053 651 1046 q 761 1060 736 1060 q 783 1035 783 1060 q 770 984 774 1016 q 762 901 765 952 q 755 840 759 858 q 732 661 756 843 l 714 526 q 659 132 680 260 q 642 82 656 117 q 627 26 627 47 q 672 30 640 26 q 717 33 705 33 q 775 5 775 33 l 762 -7 q 680 -9 728 -7 q 597 -12 631 -12 z "},"Ǆ":{"ha":871,"x_min":88,"x_max":783,"o":"m 161 -3 q 127 5 144 -3 q 111 25 111 13 q 122 53 111 34 q 132 81 134 71 l 128 203 l 119 582 q 116 732 118 587 l 116 749 q 108 943 113 910 q 98 977 106 953 q 88 1015 88 1002 q 193 1048 88 1048 l 199 1048 q 267 1036 235 1048 q 323 1000 299 1023 q 363 948 345 980 q 394 882 382 916 q 414 812 405 851 q 427 739 423 772 q 434 671 431 709 q 437 612 437 634 l 437 568 q 415 381 437 481 q 351 193 392 281 q 286 93 325 138 q 210 23 246 49 q 161 -3 174 -3 m 182 68 q 273 146 233 95 q 337 256 313 197 q 372 376 357 309 q 391 497 387 442 q 395 593 395 547 q 172 999 395 999 q 142 983 142 999 q 149 867 142 944 q 155 753 155 791 q 165 488 155 659 q 176 224 176 312 l 176 68 l 182 68 m 597 -12 q 576 5 584 -12 q 619 119 604 54 q 644 276 634 183 q 661 399 654 366 l 672 476 q 725 860 712 764 l 728 882 l 732 908 q 743 1017 743 977 q 697 1013 732 1017 q 650 1010 662 1010 q 587 1038 587 1010 l 597 1048 q 631 1046 608 1046 q 696 1053 651 1046 q 761 1060 736 1060 q 783 1035 783 1060 q 770 984 774 1016 q 762 901 765 952 q 755 840 759 858 q 732 661 756 843 l 714 526 q 659 132 680 260 q 642 82 656 117 q 627 26 627 47 q 672 30 640 26 q 717 33 705 33 q 775 5 775 33 l 762 -7 q 680 -9 728 -7 q 597 -12 631 -12 m 701 1088 q 661 1137 688 1088 q 609 1244 633 1186 q 585 1323 585 1303 l 610 1341 l 633 1310 q 646 1262 635 1295 q 670 1189 655 1232 q 692 1129 686 1145 q 732 1337 724 1250 l 750 1348 q 775 1332 775 1344 q 770 1316 775 1329 l 771 1310 l 761 1289 l 762 1280 q 746 1230 756 1261 q 727 1169 733 1195 q 721 1118 721 1143 q 701 1088 721 1088 z "},"Ð":{"ha":597,"x_min":35,"x_max":483,"o":"m 204 -60 q 189 -54 203 -59 q 173 -47 178 -52 q 163 -33 168 -43 l 162 -33 q 150 408 162 151 q 138 511 142 497 q 96 507 123 511 q 54 503 69 503 q 38 508 42 503 q 35 526 35 513 q 121 551 35 551 l 133 551 l 138 554 l 139 557 l 140 561 q 130 686 140 599 q 121 811 121 772 q 115 936 121 848 q 109 1060 109 1019 q 118 1078 109 1066 q 132 1089 126 1089 q 219 1065 174 1089 q 302 1001 264 1042 q 418 842 372 927 l 418 839 q 483 440 483 655 q 449 248 483 347 q 351 63 414 148 q 204 -60 283 -24 m 210 4 q 233 14 223 7 q 250 31 239 18 l 259 40 q 345 152 305 85 q 409 288 385 218 q 433 418 433 359 q 431 535 433 499 q 424 627 430 572 q 404 737 417 686 q 317 933 380 850 q 159 1043 254 1015 l 157 1040 q 161 864 157 977 q 174 660 166 751 q 190 557 182 568 q 238 565 207 557 q 286 572 271 572 q 305 562 296 572 q 315 539 313 552 l 301 522 q 187 513 233 522 q 191 401 187 488 q 197 306 195 313 l 195 304 q 203 155 195 260 q 210 4 210 59 z "},"Ď":{"ha":529,"x_min":81,"x_max":437,"o":"m 161 -3 q 127 5 144 -3 q 111 25 111 13 q 122 53 111 34 q 132 81 134 71 l 128 203 l 119 582 q 116 732 118 587 l 116 749 q 108 943 113 910 q 98 977 106 953 q 88 1015 88 1002 q 193 1048 88 1048 l 199 1048 q 267 1036 235 1048 q 323 1000 299 1023 q 363 948 345 980 q 394 882 382 916 q 414 812 405 851 q 427 739 423 772 q 434 671 431 709 q 437 612 437 634 l 437 568 q 415 381 437 481 q 351 193 392 281 q 286 93 325 138 q 210 23 246 49 q 161 -3 174 -3 m 182 68 q 273 146 233 95 q 337 256 313 197 q 372 376 357 309 q 391 497 387 442 q 395 593 395 547 q 172 999 395 999 q 142 983 142 999 q 149 867 142 944 q 155 753 155 791 q 165 488 155 659 q 176 224 176 312 l 176 68 l 182 68 m 197 1088 q 157 1137 184 1088 q 105 1244 130 1186 q 81 1323 81 1303 l 106 1341 l 130 1310 q 142 1262 131 1295 q 166 1189 151 1232 q 188 1129 182 1145 q 228 1337 220 1250 l 246 1348 q 271 1332 271 1344 q 266 1316 271 1329 l 267 1310 l 257 1289 l 258 1280 q 242 1230 252 1261 q 223 1169 229 1195 q 217 1118 217 1143 q 197 1088 217 1088 z "},"Đ":{"ha":597,"x_min":35,"x_max":483,"o":"m 204 -60 q 189 -54 203 -59 q 173 -47 178 -52 q 163 -33 168 -43 l 162 -33 q 150 408 162 151 q 138 511 142 497 q 96 507 123 511 q 54 503 69 503 q 38 508 42 503 q 35 526 35 513 q 121 551 35 551 l 133 551 l 138 554 l 139 557 l 140 561 q 130 686 140 599 q 121 811 121 772 q 115 936 121 848 q 109 1060 109 1019 q 118 1078 109 1066 q 132 1089 126 1089 q 219 1065 174 1089 q 302 1001 264 1042 q 418 842 372 927 l 418 839 q 483 440 483 655 q 449 248 483 347 q 351 63 414 148 q 204 -60 283 -24 m 210 4 q 233 14 223 7 q 250 31 239 18 l 259 40 q 345 152 305 85 q 409 288 385 218 q 433 418 433 359 q 431 535 433 499 q 424 627 430 572 q 404 737 417 686 q 317 933 380 850 q 159 1043 254 1015 l 157 1040 q 161 864 157 977 q 174 660 166 751 q 190 557 182 568 q 238 565 207 557 q 286 572 271 572 q 305 562 296 572 q 315 539 313 552 l 301 522 q 187 513 233 522 q 191 401 187 488 q 197 306 195 313 l 195 304 q 203 155 195 260 q 210 4 210 59 z "},"Ḋ":{"ha":529,"x_min":88,"x_max":437,"o":"m 161 -3 q 127 5 144 -3 q 111 25 111 13 q 122 53 111 34 q 132 81 134 71 l 128 203 l 119 582 q 116 732 118 587 l 116 749 q 108 943 113 910 q 98 977 106 953 q 88 1015 88 1002 q 193 1048 88 1048 l 199 1048 q 267 1036 235 1048 q 323 1000 299 1023 q 363 948 345 980 q 394 882 382 916 q 414 812 405 851 q 427 739 423 772 q 434 671 431 709 q 437 612 437 634 l 437 568 q 415 381 437 481 q 351 193 392 281 q 286 93 325 138 q 210 23 246 49 q 161 -3 174 -3 m 182 68 q 273 146 233 95 q 337 256 313 197 q 372 376 357 309 q 391 497 387 442 q 395 593 395 547 q 172 999 395 999 q 142 983 142 999 q 149 867 142 944 q 155 753 155 791 q 165 488 155 659 q 176 224 176 312 l 176 68 l 182 68 m 172 1116 q 151 1127 160 1116 q 142 1149 142 1137 q 153 1175 142 1163 q 178 1187 164 1187 q 200 1175 190 1187 q 211 1151 211 1163 q 172 1116 211 1116 z "},"ǲ":{"ha":885,"x_min":88,"x_max":827,"o":"m 161 -3 q 127 5 144 -3 q 111 25 111 13 q 122 53 111 34 q 132 81 134 71 l 128 203 l 119 582 q 116 732 118 587 l 116 749 q 108 943 113 910 q 98 977 106 953 q 88 1015 88 1002 q 193 1048 88 1048 l 199 1048 q 267 1036 235 1048 q 323 1000 299 1023 q 363 948 345 980 q 394 882 382 916 q 414 812 405 851 q 427 739 423 772 q 434 671 431 709 q 437 612 437 634 l 437 568 q 415 381 437 481 q 351 193 392 281 q 286 93 325 138 q 210 23 246 49 q 161 -3 174 -3 m 182 68 q 273 146 233 95 q 337 256 313 197 q 372 376 357 309 q 391 497 387 442 q 395 593 395 547 q 172 999 395 999 q 142 983 142 999 q 149 867 142 944 q 155 753 155 791 q 165 488 155 659 q 176 224 176 312 l 176 68 l 182 68 m 604 -3 q 583 18 583 -3 q 597 90 583 35 l 610 138 l 631 215 q 657 330 642 253 q 684 450 674 412 q 722 575 693 487 q 772 754 755 680 q 789 884 789 827 q 724 880 768 884 q 659 875 683 875 q 645 882 650 875 q 639 897 639 889 q 689 915 639 909 q 793 920 736 920 q 811 919 805 920 q 822 912 817 918 q 827 897 827 907 q 793 745 827 851 q 760 621 760 640 q 718 467 753 585 q 629 43 630 177 q 669 40 641 40 q 699 43 682 40 q 728 45 718 45 q 768 26 768 45 q 736 8 768 8 q 695 10 723 8 q 654 12 668 12 q 624 5 639 12 q 604 -3 608 -3 z "},"ǅ":{"ha":885,"x_min":88,"x_max":827,"o":"m 161 -3 q 127 5 144 -3 q 111 25 111 13 q 122 53 111 34 q 132 81 134 71 l 128 203 l 119 582 q 116 732 118 587 l 116 749 q 108 943 113 910 q 98 977 106 953 q 88 1015 88 1002 q 193 1048 88 1048 l 199 1048 q 267 1036 235 1048 q 323 1000 299 1023 q 363 948 345 980 q 394 882 382 916 q 414 812 405 851 q 427 739 423 772 q 434 671 431 709 q 437 612 437 634 l 437 568 q 415 381 437 481 q 351 193 392 281 q 286 93 325 138 q 210 23 246 49 q 161 -3 174 -3 m 182 68 q 273 146 233 95 q 337 256 313 197 q 372 376 357 309 q 391 497 387 442 q 395 593 395 547 q 172 999 395 999 q 142 983 142 999 q 149 867 142 944 q 155 753 155 791 q 165 488 155 659 q 176 224 176 312 l 176 68 l 182 68 m 604 -3 q 583 18 583 -3 q 597 90 583 35 l 610 138 l 631 215 q 657 330 642 253 q 684 450 674 412 q 722 575 693 487 q 772 754 755 680 q 789 884 789 827 q 724 880 768 884 q 659 875 683 875 q 645 882 650 875 q 639 897 639 889 q 689 915 639 909 q 793 920 736 920 q 811 919 805 920 q 822 912 817 918 q 827 897 827 907 q 793 745 827 851 q 760 621 760 640 q 718 467 753 585 q 629 43 630 177 q 669 40 641 40 q 699 43 682 40 q 728 45 718 45 q 768 26 768 45 q 736 8 768 8 q 695 10 723 8 q 654 12 668 12 q 624 5 639 12 q 604 -3 608 -3 m 745 986 q 704 1035 732 986 q 653 1142 677 1084 q 628 1221 629 1200 l 653 1239 l 677 1207 q 689 1160 678 1193 q 714 1086 699 1130 q 735 1027 729 1043 q 775 1235 768 1147 l 793 1246 q 819 1230 819 1242 q 813 1214 819 1226 l 814 1207 l 804 1186 l 806 1178 q 789 1128 800 1158 q 770 1067 777 1093 q 764 1015 764 1041 q 745 986 764 986 z "},"E":{"ha":345,"x_min":95,"x_max":298,"o":"m 158 -8 q 112 -2 125 -8 q 98 22 98 3 l 98 48 q 98 74 98 60 l 98 77 l 99 279 l 98 852 q 95 1007 98 920 q 102 1035 95 1024 q 120 1046 109 1046 l 206 1046 q 221 1045 215 1046 q 235 1043 228 1045 q 249 1019 249 1038 q 240 1001 249 1008 q 222 994 231 994 q 199 993 216 993 l 176 994 l 154 996 q 141 992 144 996 q 138 979 138 989 q 138 861 138 913 l 138 743 l 138 570 q 141 567 138 567 l 142 567 l 144 567 q 219 570 191 570 q 242 549 242 570 q 237 531 242 536 q 221 526 233 526 l 142 526 q 136 519 136 526 q 139 313 136 440 q 142 93 142 186 l 142 41 l 201 42 l 260 42 l 272 42 q 298 24 298 42 q 285 -3 298 2 q 217 -8 271 -8 l 158 -8 z "},"É":{"ha":345,"x_min":95,"x_max":349,"o":"m 158 -8 q 112 -2 125 -8 q 98 22 98 3 l 98 48 q 98 74 98 60 l 98 77 l 99 279 l 98 852 q 95 1007 98 920 q 102 1035 95 1024 q 120 1046 109 1046 l 206 1046 q 221 1045 215 1046 q 235 1043 228 1045 q 249 1019 249 1038 q 240 1001 249 1008 q 222 994 231 994 q 199 993 216 993 l 176 994 l 154 996 q 141 992 144 996 q 138 979 138 989 q 138 861 138 913 l 138 743 l 138 570 q 141 567 138 567 l 142 567 l 144 567 q 219 570 191 570 q 242 549 242 570 q 237 531 242 536 q 221 526 233 526 l 142 526 q 136 519 136 526 q 139 313 136 440 q 142 93 142 186 l 142 41 l 201 42 l 260 42 l 272 42 q 298 24 298 42 q 285 -3 298 2 q 217 -8 271 -8 l 158 -8 m 171 1112 q 153 1117 160 1112 q 146 1132 146 1122 q 184 1168 146 1137 q 267 1233 214 1193 q 318 1274 313 1269 q 349 1252 349 1274 l 345 1231 q 171 1112 273 1199 z "},"Ĕ":{"ha":345,"x_min":70,"x_max":298,"o":"m 158 -8 q 112 -2 125 -8 q 98 22 98 3 l 98 48 q 98 74 98 60 l 98 77 l 99 279 l 98 852 q 95 1007 98 920 q 102 1035 95 1024 q 120 1046 109 1046 l 206 1046 q 221 1045 215 1046 q 235 1043 228 1045 q 249 1019 249 1038 q 240 1001 249 1008 q 222 994 231 994 q 199 993 216 993 l 176 994 l 154 996 q 141 992 144 996 q 138 979 138 989 q 138 861 138 913 l 138 743 l 138 570 q 141 567 138 567 l 142 567 l 144 567 q 219 570 191 570 q 242 549 242 570 q 237 531 242 536 q 221 526 233 526 l 142 526 q 136 519 136 526 q 139 313 136 440 q 142 93 142 186 l 142 41 l 201 42 l 260 42 l 272 42 q 298 24 298 42 q 285 -3 298 2 q 217 -8 271 -8 l 158 -8 m 171 1100 q 122 1113 143 1100 q 91 1147 102 1125 q 70 1242 70 1190 l 85 1254 q 98 1232 94 1253 q 111 1177 104 1200 q 134 1143 119 1154 l 149 1132 l 183 1132 q 206 1144 195 1132 q 224 1172 217 1156 q 231 1202 231 1189 q 230 1213 231 1208 q 229 1222 229 1217 q 254 1249 229 1249 q 269 1243 262 1249 q 275 1229 275 1237 q 272 1217 275 1226 l 268 1207 l 271 1197 q 267 1189 270 1194 q 260 1173 264 1183 q 250 1150 254 1159 q 238 1131 245 1141 q 223 1114 231 1119 q 201 1105 215 1109 q 171 1100 189 1100 z "},"Ě":{"ha":345,"x_min":77,"x_max":298,"o":"m 158 -8 q 112 -2 125 -8 q 98 22 98 3 l 98 48 q 98 74 98 60 l 98 77 l 99 279 l 98 852 q 95 1007 98 920 q 102 1035 95 1024 q 120 1046 109 1046 l 206 1046 q 221 1045 215 1046 q 235 1043 228 1045 q 249 1019 249 1038 q 240 1001 249 1008 q 222 994 231 994 q 199 993 216 993 l 176 994 l 154 996 q 141 992 144 996 q 138 979 138 989 q 138 861 138 913 l 138 743 l 138 570 q 141 567 138 567 l 142 567 l 144 567 q 219 570 191 570 q 242 549 242 570 q 237 531 242 536 q 221 526 233 526 l 142 526 q 136 519 136 526 q 139 313 136 440 q 142 93 142 186 l 142 41 l 201 42 l 260 42 l 272 42 q 298 24 298 42 q 285 -3 298 2 q 217 -8 271 -8 l 158 -8 m 194 1088 q 154 1137 181 1088 q 102 1244 126 1186 q 77 1323 78 1303 l 102 1341 l 126 1310 q 138 1262 127 1295 q 163 1189 148 1232 q 184 1129 178 1145 q 224 1337 217 1250 l 243 1348 q 268 1332 268 1344 q 262 1316 268 1329 l 264 1310 l 254 1289 l 255 1280 q 239 1230 249 1261 q 220 1169 226 1195 q 214 1118 214 1143 q 194 1088 214 1088 z "},"Ȩ":{"ha":345,"x_min":95,"x_max":298,"o":"m 191 -8 q 188 -55 188 -28 q 289 -195 289 -62 q 274 -242 289 -216 q 235 -287 259 -269 q 184 -304 210 -304 q 143 -294 162 -304 q 124 -267 124 -284 q 139 -253 124 -253 q 161 -260 148 -253 q 184 -267 176 -267 q 223 -238 208 -267 q 238 -170 238 -209 q 217 -109 238 -125 q 199 -111 211 -109 q 180 -113 187 -113 q 142 -85 159 -113 q 153 -8 153 -58 q 111 -1 123 -7 q 98 22 98 5 l 98 48 q 98 74 98 60 l 98 77 l 99 279 l 98 852 q 95 1007 98 920 q 102 1035 95 1024 q 120 1046 109 1046 l 206 1046 q 221 1045 215 1046 q 235 1043 228 1045 q 249 1019 249 1038 q 240 1001 249 1008 q 222 994 231 994 q 199 993 216 993 l 176 994 l 154 996 q 141 992 144 996 q 138 979 138 989 q 138 861 138 913 l 138 743 l 138 570 q 141 567 138 567 l 142 567 l 144 567 q 219 570 191 570 q 242 549 242 570 q 237 531 242 536 q 221 526 233 526 l 142 526 q 136 519 136 526 q 139 313 136 440 q 142 93 142 186 l 142 41 l 201 42 l 260 42 l 272 42 q 298 24 298 42 q 285 -3 298 2 q 217 -8 271 -8 l 191 -8 z "},"Ê":{"ha":345,"x_min":71,"x_max":298,"o":"m 158 -8 q 112 -2 125 -8 q 98 22 98 3 l 98 48 q 98 74 98 60 l 98 77 l 99 279 l 98 852 q 95 1007 98 920 q 102 1035 95 1024 q 120 1046 109 1046 l 206 1046 q 221 1045 215 1046 q 235 1043 228 1045 q 249 1019 249 1038 q 240 1001 249 1008 q 222 994 231 994 q 199 993 216 993 l 176 994 l 154 996 q 141 992 144 996 q 138 979 138 989 q 138 861 138 913 l 138 743 l 138 570 q 141 567 138 567 l 142 567 l 144 567 q 219 570 191 570 q 242 549 242 570 q 237 531 242 536 q 221 526 233 526 l 142 526 q 136 519 136 526 q 139 313 136 440 q 142 93 142 186 l 142 41 l 201 42 l 260 42 l 272 42 q 298 24 298 42 q 285 -3 298 2 q 217 -8 271 -8 l 158 -8 m 218 1084 q 178 1292 210 1171 q 156 1232 172 1276 q 132 1159 141 1189 q 119 1112 121 1126 l 96 1080 l 71 1097 q 95 1176 71 1118 q 147 1283 119 1234 q 187 1332 174 1332 q 207 1303 207 1332 q 213 1251 207 1277 q 232 1191 219 1225 q 248 1141 242 1160 l 247 1132 l 257 1112 l 256 1104 q 261 1089 261 1092 q 236 1072 261 1076 l 218 1084 z "},"Ế":{"ha":345,"x_min":77,"x_max":448,"o":"m 158 -8 q 112 -2 125 -8 q 98 22 98 3 l 98 48 q 98 74 98 60 l 98 77 l 99 279 l 98 852 q 95 1007 98 920 q 102 1035 95 1024 q 120 1046 109 1046 l 206 1046 q 221 1045 215 1046 q 235 1043 228 1045 q 249 1019 249 1038 q 240 1001 249 1008 q 222 994 231 994 q 199 993 216 993 l 176 994 l 154 996 q 141 992 144 996 q 138 979 138 989 q 138 861 138 913 l 138 743 l 138 570 q 141 567 138 567 l 142 567 l 144 567 q 219 570 191 570 q 242 549 242 570 q 237 531 242 536 q 221 526 233 526 l 142 526 q 136 519 136 526 q 139 313 136 440 q 142 93 142 186 l 142 41 l 201 42 l 260 42 l 272 42 q 298 24 298 42 q 285 -3 298 2 q 217 -8 271 -8 l 158 -8 m 224 1076 q 184 1284 217 1164 q 163 1225 178 1268 q 138 1152 148 1181 q 126 1104 127 1118 l 102 1072 l 77 1090 q 102 1168 78 1110 q 154 1276 126 1227 q 194 1324 181 1324 q 214 1295 214 1324 q 220 1244 214 1270 q 239 1183 226 1218 q 255 1133 249 1153 l 254 1124 l 264 1104 l 262 1097 q 268 1082 268 1084 q 243 1065 268 1069 l 224 1076 m 270 1218 q 252 1223 259 1218 q 245 1238 245 1229 q 283 1274 245 1244 q 366 1339 313 1299 q 417 1380 412 1375 q 448 1358 448 1380 l 444 1337 q 270 1218 372 1305 z "},"Ệ":{"ha":345,"x_min":71,"x_max":298,"o":"m 158 -8 q 112 -2 125 -8 q 98 22 98 3 l 98 48 q 98 74 98 60 l 98 77 l 99 279 l 98 852 q 95 1007 98 920 q 102 1035 95 1024 q 120 1046 109 1046 l 206 1046 q 221 1045 215 1046 q 235 1043 228 1045 q 249 1019 249 1038 q 240 1001 249 1008 q 222 994 231 994 q 199 993 216 993 l 176 994 l 154 996 q 141 992 144 996 q 138 979 138 989 q 138 861 138 913 l 138 743 l 138 570 q 141 567 138 567 l 142 567 l 144 567 q 219 570 191 570 q 242 549 242 570 q 237 531 242 536 q 221 526 233 526 l 142 526 q 136 519 136 526 q 139 313 136 440 q 142 93 142 186 l 142 41 l 201 42 l 260 42 l 272 42 q 298 24 298 42 q 285 -3 298 2 q 217 -8 271 -8 l 158 -8 m 169 -163 q 148 -152 157 -163 q 138 -130 138 -142 q 150 -104 138 -116 q 174 -92 161 -92 q 197 -104 186 -92 q 208 -128 208 -116 q 169 -163 208 -163 m 218 1084 q 178 1292 210 1171 q 156 1232 172 1276 q 132 1159 141 1189 q 119 1112 121 1126 l 96 1080 l 71 1097 q 95 1176 71 1118 q 147 1283 119 1234 q 187 1332 174 1332 q 207 1303 207 1332 q 213 1251 207 1277 q 232 1191 219 1225 q 248 1141 242 1160 l 247 1132 l 257 1112 l 256 1104 q 261 1089 261 1092 q 236 1072 261 1076 l 218 1084 z "},"Ề":{"ha":345,"x_min":-74,"x_max":298,"o":"m 74 1222 q 20 1285 58 1240 q -22 1336 -19 1331 q -43 1345 -31 1339 q -74 1381 -74 1363 q -71 1393 -74 1386 q -47 1415 -58 1414 l -40 1411 q -1 1370 -5 1390 l 11 1357 q 48 1312 22 1344 q 84 1260 73 1281 q 95 1231 95 1243 q 94 1224 95 1226 q 84 1220 92 1220 q 74 1222 78 1220 m 216 1078 q 176 1286 209 1166 q 155 1227 170 1270 q 130 1154 140 1183 q 118 1106 119 1120 l 94 1074 l 69 1092 q 94 1171 70 1112 q 145 1278 118 1229 q 186 1326 173 1326 q 205 1297 205 1326 q 212 1246 205 1272 q 231 1185 218 1220 q 247 1135 241 1155 l 245 1126 l 256 1106 l 254 1099 q 260 1084 260 1086 q 235 1067 260 1071 l 216 1078 m 158 -8 q 112 -2 125 -8 q 98 22 98 3 l 98 48 q 98 74 98 60 l 98 77 l 99 279 l 98 852 q 95 1007 98 920 q 102 1035 95 1024 q 120 1046 109 1046 l 206 1046 q 221 1045 215 1046 q 235 1043 228 1045 q 249 1019 249 1038 q 240 1001 249 1008 q 222 994 231 994 q 199 993 216 993 l 176 994 l 154 996 q 141 992 144 996 q 138 979 138 989 q 138 861 138 913 l 138 743 l 138 570 q 141 567 138 567 l 142 567 l 144 567 q 219 570 191 570 q 242 549 242 570 q 237 531 242 536 q 221 526 233 526 l 142 526 q 136 519 136 526 q 139 313 136 440 q 142 93 142 186 l 142 41 l 201 42 l 260 42 l 272 42 q 298 24 298 42 q 285 -3 298 2 q 217 -8 271 -8 l 158 -8 z "},"Ể":{"ha":345,"x_min":80,"x_max":418,"o":"m 158 -8 q 112 -2 125 -8 q 98 22 98 3 l 98 48 q 98 74 98 60 l 98 77 l 99 279 l 98 852 q 95 1007 98 920 q 102 1035 95 1024 q 120 1046 109 1046 l 206 1046 q 221 1045 215 1046 q 235 1043 228 1045 q 249 1019 249 1038 q 240 1001 249 1008 q 222 994 231 994 q 199 993 216 993 l 176 994 l 154 996 q 141 992 144 996 q 138 979 138 989 q 138 861 138 913 l 138 743 l 138 570 q 141 567 138 567 l 142 567 l 144 567 q 219 570 191 570 q 242 549 242 570 q 237 531 242 536 q 221 526 233 526 l 142 526 q 136 519 136 526 q 139 313 136 440 q 142 93 142 186 l 142 41 l 201 42 l 260 42 l 272 42 q 298 24 298 42 q 285 -3 298 2 q 217 -8 271 -8 l 158 -8 m 227 1081 q 187 1289 220 1168 q 166 1230 181 1273 q 141 1156 151 1186 q 129 1109 130 1123 l 105 1077 l 80 1095 q 105 1173 81 1115 q 156 1280 129 1232 q 197 1329 184 1329 q 216 1300 216 1329 q 222 1249 216 1274 q 241 1188 229 1223 q 258 1138 252 1158 l 256 1129 l 267 1109 l 265 1101 q 271 1086 271 1089 q 245 1069 271 1074 l 227 1081 m 338 1212 q 323 1228 325 1212 l 323 1236 q 331 1253 323 1246 q 355 1272 338 1261 q 376 1289 369 1281 q 384 1304 384 1296 q 339 1331 384 1331 q 301 1324 313 1331 q 288 1301 288 1317 q 290 1283 288 1293 q 277 1280 281 1280 q 257 1304 257 1280 q 277 1342 257 1326 q 339 1357 296 1357 q 400 1343 382 1357 q 418 1304 418 1330 q 409 1282 418 1291 q 381 1259 399 1272 q 360 1243 367 1249 q 354 1230 354 1237 l 354 1221 q 338 1212 349 1212 z "},"Ễ":{"ha":345,"x_min":20,"x_max":313,"o":"m 158 -8 q 112 -2 125 -8 q 98 22 98 3 l 98 48 q 98 74 98 60 l 98 77 l 99 279 l 98 852 q 95 1007 98 920 q 102 1035 95 1024 q 120 1046 109 1046 l 206 1046 q 221 1045 215 1046 q 235 1043 228 1045 q 249 1019 249 1038 q 240 1001 249 1008 q 222 994 231 994 q 199 993 216 993 l 176 994 l 154 996 q 141 992 144 996 q 138 979 138 989 q 138 861 138 913 l 138 743 l 138 570 q 141 567 138 567 l 142 567 l 144 567 q 219 570 191 570 q 242 549 242 570 q 237 531 242 536 q 221 526 233 526 l 142 526 q 136 519 136 526 q 139 313 136 440 q 142 93 142 186 l 142 41 l 201 42 l 260 42 l 272 42 q 298 24 298 42 q 285 -3 298 2 q 217 -8 271 -8 l 158 -8 m 218 1084 q 178 1292 210 1171 q 156 1232 172 1276 q 132 1159 141 1189 q 119 1112 121 1126 l 96 1080 l 71 1097 q 95 1176 71 1118 q 147 1283 119 1234 q 187 1332 174 1332 q 207 1303 207 1332 q 213 1251 207 1277 q 232 1191 219 1225 q 248 1141 242 1160 l 247 1132 l 257 1112 l 256 1104 q 261 1089 261 1092 q 236 1072 261 1076 l 218 1084 m 46 1375 q 28 1382 37 1375 q 20 1398 20 1390 q 43 1468 20 1442 q 100 1495 66 1495 q 159 1466 135 1495 q 194 1429 170 1446 q 239 1413 218 1413 q 275 1462 275 1413 q 271 1476 275 1466 q 267 1489 268 1483 q 281 1497 271 1497 q 304 1483 296 1497 q 313 1449 313 1469 q 302 1413 313 1430 q 275 1386 292 1396 q 239 1376 258 1376 q 191 1390 216 1376 q 151 1419 165 1403 q 115 1458 138 1432 l 106 1462 q 70 1451 85 1462 q 54 1425 54 1440 q 61 1396 54 1418 l 46 1375 z "},"Ȅ":{"ha":345,"x_min":-146,"x_max":298,"o":"m 158 -8 q 112 -2 125 -8 q 98 22 98 3 l 98 48 q 98 74 98 60 l 98 77 l 99 279 l 98 852 q 95 1007 98 920 q 102 1035 95 1024 q 120 1046 109 1046 l 206 1046 q 221 1045 215 1046 q 235 1043 228 1045 q 249 1019 249 1038 q 240 1001 249 1008 q 222 994 231 994 q 199 993 216 993 l 176 994 l 154 996 q 141 992 144 996 q 138 979 138 989 q 138 861 138 913 l 138 743 l 138 570 q 141 567 138 567 l 142 567 l 144 567 q 219 570 191 570 q 242 549 242 570 q 237 531 242 536 q 221 526 233 526 l 142 526 q 136 519 136 526 q 139 313 136 440 q 142 93 142 186 l 142 41 l 201 42 l 260 42 l 272 42 q 298 24 298 42 q 285 -3 298 2 q 217 -8 271 -8 l 158 -8 m 289 1093 q 231 1123 266 1097 q 183 1154 199 1147 q 57 1253 157 1173 q 48 1266 48 1257 q 54 1280 48 1272 q 63 1287 60 1287 q 128 1244 71 1287 q 239 1155 185 1201 q 295 1100 293 1109 l 289 1093 m 113 1097 q 85 1112 108 1097 q 35 1144 58 1128 l 19 1154 q 1 1165 3 1164 q -74 1202 -52 1193 l -146 1243 q -135 1265 -144 1254 q -118 1277 -125 1277 q -40 1236 -111 1277 q 55 1168 -17 1222 q 121 1107 121 1117 q 113 1097 121 1097 z "},"Ë":{"ha":345,"x_min":52,"x_max":300,"o":"m 158 -8 q 112 -2 125 -8 q 98 22 98 3 l 98 48 q 98 74 98 60 l 98 77 l 99 279 l 98 852 q 95 1007 98 920 q 102 1035 95 1024 q 120 1046 109 1046 l 206 1046 q 221 1045 215 1046 q 235 1043 228 1045 q 249 1019 249 1038 q 240 1001 249 1008 q 222 994 231 994 q 199 993 216 993 l 176 994 l 154 996 q 141 992 144 996 q 138 979 138 989 q 138 861 138 913 l 138 743 l 138 570 q 141 567 138 567 l 142 567 l 144 567 q 219 570 191 570 q 242 549 242 570 q 237 531 242 536 q 221 526 233 526 l 142 526 q 136 519 136 526 q 139 313 136 440 q 142 93 142 186 l 142 41 l 201 42 l 260 42 l 272 42 q 298 24 298 42 q 285 -3 298 2 q 217 -8 271 -8 l 158 -8 m 263 1124 q 244 1134 253 1124 q 235 1154 235 1143 q 246 1178 235 1167 q 269 1189 256 1189 q 290 1178 281 1189 q 300 1156 300 1166 q 263 1124 300 1124 m 79 1118 q 60 1129 68 1118 q 52 1153 52 1140 q 63 1176 52 1165 q 85 1187 73 1187 q 106 1174 99 1187 q 113 1142 113 1161 q 103 1125 113 1131 q 79 1118 92 1118 z "},"Ė":{"ha":345,"x_min":95,"x_max":298,"o":"m 158 -8 q 112 -2 125 -8 q 98 22 98 3 l 98 48 q 98 74 98 60 l 98 77 l 99 279 l 98 852 q 95 1007 98 920 q 102 1035 95 1024 q 120 1046 109 1046 l 206 1046 q 221 1045 215 1046 q 235 1043 228 1045 q 249 1019 249 1038 q 240 1001 249 1008 q 222 994 231 994 q 199 993 216 993 l 176 994 l 154 996 q 141 992 144 996 q 138 979 138 989 q 138 861 138 913 l 138 743 l 138 570 q 141 567 138 567 l 142 567 l 144 567 q 219 570 191 570 q 242 549 242 570 q 237 531 242 536 q 221 526 233 526 l 142 526 q 136 519 136 526 q 139 313 136 440 q 142 93 142 186 l 142 41 l 201 42 l 260 42 l 272 42 q 298 24 298 42 q 285 -3 298 2 q 217 -8 271 -8 l 158 -8 m 169 1116 q 148 1127 157 1116 q 138 1149 138 1137 q 150 1175 138 1163 q 174 1187 161 1187 q 197 1175 186 1187 q 208 1151 208 1163 q 169 1116 208 1116 z "},"Ẹ":{"ha":345,"x_min":95,"x_max":298,"o":"m 158 -8 q 112 -2 125 -8 q 98 22 98 3 l 98 48 q 98 74 98 60 l 98 77 l 99 279 l 98 852 q 95 1007 98 920 q 102 1035 95 1024 q 120 1046 109 1046 l 206 1046 q 221 1045 215 1046 q 235 1043 228 1045 q 249 1019 249 1038 q 240 1001 249 1008 q 222 994 231 994 q 199 993 216 993 l 176 994 l 154 996 q 141 992 144 996 q 138 979 138 989 q 138 861 138 913 l 138 743 l 138 570 q 141 567 138 567 l 142 567 l 144 567 q 219 570 191 570 q 242 549 242 570 q 237 531 242 536 q 221 526 233 526 l 142 526 q 136 519 136 526 q 139 313 136 440 q 142 93 142 186 l 142 41 l 201 42 l 260 42 l 272 42 q 298 24 298 42 q 285 -3 298 2 q 217 -8 271 -8 l 158 -8 m 169 -163 q 148 -152 157 -163 q 138 -130 138 -142 q 150 -104 138 -116 q 174 -92 161 -92 q 197 -104 186 -92 q 208 -128 208 -116 q 169 -163 208 -163 z "},"È":{"ha":345,"x_min":28,"x_max":298,"o":"m 158 -8 q 112 -2 125 -8 q 98 22 98 3 l 98 48 q 98 74 98 60 l 98 77 l 99 279 l 98 852 q 95 1007 98 920 q 102 1035 95 1024 q 120 1046 109 1046 l 206 1046 q 221 1045 215 1046 q 235 1043 228 1045 q 249 1019 249 1038 q 240 1001 249 1008 q 222 994 231 994 q 199 993 216 993 l 176 994 l 154 996 q 141 992 144 996 q 138 979 138 989 q 138 861 138 913 l 138 743 l 138 570 q 141 567 138 567 l 142 567 l 144 567 q 219 570 191 570 q 242 549 242 570 q 237 531 242 536 q 221 526 233 526 l 142 526 q 136 519 136 526 q 139 313 136 440 q 142 93 142 186 l 142 41 l 201 42 l 260 42 l 272 42 q 298 24 298 42 q 285 -3 298 2 q 217 -8 271 -8 l 158 -8 m 223 1074 q 159 1109 220 1075 q 94 1148 98 1144 l 86 1148 q 71 1149 79 1148 q 29 1185 24 1158 q 43 1213 33 1209 l 52 1212 q 102 1187 92 1205 l 117 1179 q 168 1149 132 1172 q 220 1114 201 1129 q 241 1083 243 1095 q 234 1076 240 1079 q 223 1074 229 1074 z "},"Ẻ":{"ha":345,"x_min":95,"x_max":298,"o":"m 158 -8 q 112 -2 125 -8 q 98 22 98 3 l 98 48 q 98 74 98 60 l 98 77 l 99 279 l 98 852 q 95 1007 98 920 q 102 1035 95 1024 q 120 1046 109 1046 l 206 1046 q 221 1045 215 1046 q 235 1043 228 1045 q 249 1019 249 1038 q 240 1001 249 1008 q 222 994 231 994 q 199 993 216 993 l 176 994 l 154 996 q 141 992 144 996 q 138 979 138 989 q 138 861 138 913 l 138 743 l 138 570 q 141 567 138 567 l 142 567 l 144 567 q 219 570 191 570 q 242 549 242 570 q 237 531 242 536 q 221 526 233 526 l 142 526 q 136 519 136 526 q 139 313 136 440 q 142 93 142 186 l 142 41 l 201 42 l 260 42 l 272 42 q 298 24 298 42 q 285 -3 298 2 q 217 -8 271 -8 l 158 -8 m 180 1067 q 165 1083 167 1067 l 165 1090 q 173 1108 165 1101 q 197 1127 180 1116 q 218 1143 211 1136 q 226 1159 226 1151 q 181 1185 226 1185 q 143 1179 155 1185 q 130 1156 130 1172 q 132 1138 130 1147 q 119 1135 123 1135 q 99 1159 99 1135 q 119 1197 99 1181 q 181 1212 138 1212 q 242 1198 224 1212 q 260 1159 260 1185 q 251 1137 260 1146 q 223 1114 241 1127 q 202 1098 209 1104 q 196 1084 196 1092 l 196 1076 q 180 1067 191 1067 z "},"Ȇ":{"ha":345,"x_min":60,"x_max":298,"o":"m 158 -8 q 112 -2 125 -8 q 98 22 98 3 l 98 48 q 98 74 98 60 l 98 77 l 99 279 l 98 852 q 95 1007 98 920 q 102 1035 95 1024 q 120 1046 109 1046 l 206 1046 q 221 1045 215 1046 q 235 1043 228 1045 q 249 1019 249 1038 q 240 1001 249 1008 q 222 994 231 994 q 199 993 216 993 l 176 994 l 154 996 q 141 992 144 996 q 138 979 138 989 q 138 861 138 913 l 138 743 l 138 570 q 141 567 138 567 l 142 567 l 144 567 q 219 570 191 570 q 242 549 242 570 q 237 531 242 536 q 221 526 233 526 l 142 526 q 136 519 136 526 q 139 313 136 440 q 142 93 142 186 l 142 41 l 201 42 l 260 42 l 272 42 q 298 24 298 42 q 285 -3 298 2 q 217 -8 271 -8 l 158 -8 m 60 1085 q 81 1179 60 1137 q 113 1214 92 1202 q 161 1227 134 1227 q 212 1213 188 1227 q 240 1178 225 1206 q 244 1170 241 1175 q 251 1154 247 1164 q 258 1138 255 1144 q 262 1130 260 1133 l 258 1120 l 262 1109 q 266 1098 266 1101 q 259 1084 266 1090 q 245 1078 253 1078 q 220 1105 220 1078 q 220 1115 220 1110 q 221 1124 221 1119 q 214 1155 221 1138 q 196 1183 208 1171 q 174 1195 185 1195 l 139 1195 l 124 1184 q 102 1150 109 1173 q 89 1095 94 1126 q 75 1073 85 1074 l 60 1085 z "},"Ē":{"ha":345,"x_min":39,"x_max":307,"o":"m 158 -8 q 112 -2 125 -8 q 98 22 98 3 l 98 48 q 98 74 98 60 l 98 77 l 99 279 l 98 852 q 95 1007 98 920 q 102 1035 95 1024 q 120 1046 109 1046 l 206 1046 q 221 1045 215 1046 q 235 1043 228 1045 q 249 1019 249 1038 q 240 1001 249 1008 q 222 994 231 994 q 199 993 216 993 l 176 994 l 154 996 q 141 992 144 996 q 138 979 138 989 q 138 861 138 913 l 138 743 l 138 570 q 141 567 138 567 l 142 567 l 144 567 q 219 570 191 570 q 242 549 242 570 q 237 531 242 536 q 221 526 233 526 l 142 526 q 136 519 136 526 q 139 313 136 440 q 142 93 142 186 l 142 41 l 201 42 l 260 42 l 272 42 q 298 24 298 42 q 285 -3 298 2 q 217 -8 271 -8 l 158 -8 m 113 1135 q 68 1138 81 1135 q 42 1148 46 1143 q 39 1158 39 1153 q 127 1169 40 1169 l 206 1169 q 245 1169 230 1169 q 277 1166 261 1168 q 300 1160 293 1164 q 307 1147 307 1155 q 218 1135 305 1135 l 140 1135 l 113 1135 z "},"Ę":{"ha":345,"x_min":95,"x_max":333,"o":"m 318 -256 q 333 -270 333 -256 q 314 -297 333 -287 q 273 -307 295 -307 q 222 -289 247 -307 q 183 -245 198 -271 q 168 -197 168 -219 q 178 -132 168 -165 q 202 -72 187 -98 q 245 -7 220 -40 q 217 -8 237 -8 l 158 -8 q 112 -2 125 -8 q 98 22 98 3 l 98 48 q 98 74 98 60 l 98 77 l 99 279 l 98 852 q 95 1007 98 920 q 102 1035 95 1024 q 120 1046 109 1046 l 206 1046 q 221 1045 215 1046 q 235 1043 228 1045 q 249 1019 249 1038 q 240 1001 249 1008 q 222 994 231 994 q 199 993 216 993 l 176 994 l 154 996 q 141 992 144 996 q 138 979 138 989 q 138 861 138 913 l 138 743 l 138 570 q 141 567 138 567 l 142 567 l 144 567 q 219 570 191 570 q 242 549 242 570 q 237 531 242 536 q 221 526 233 526 l 142 526 q 136 519 136 526 q 139 313 136 440 q 142 93 142 186 l 142 41 l 201 42 l 260 42 l 272 42 q 298 24 298 42 q 295 8 298 14 l 304 7 l 305 7 l 306 7 q 294 -11 306 6 q 266 -53 278 -33 q 243 -98 253 -73 q 231 -152 231 -128 q 228 -184 231 -167 l 227 -197 q 227 -213 227 -204 q 242 -251 227 -231 q 273 -270 257 -270 q 296 -262 281 -270 q 318 -256 309 -256 z "},"Ẽ":{"ha":345,"x_min":26,"x_max":319,"o":"m 158 -8 q 112 -2 125 -8 q 98 22 98 3 l 98 48 q 98 74 98 60 l 98 77 l 99 279 l 98 852 q 95 1007 98 920 q 102 1035 95 1024 q 120 1046 109 1046 l 206 1046 q 221 1045 215 1046 q 235 1043 228 1045 q 249 1019 249 1038 q 240 1001 249 1008 q 222 994 231 994 q 199 993 216 993 l 176 994 l 154 996 q 141 992 144 996 q 138 979 138 989 q 138 861 138 913 l 138 743 l 138 570 q 141 567 138 567 l 142 567 l 144 567 q 219 570 191 570 q 242 549 242 570 q 237 531 242 536 q 221 526 233 526 l 142 526 q 136 519 136 526 q 139 313 136 440 q 142 93 142 186 l 142 41 l 201 42 l 260 42 l 272 42 q 298 24 298 42 q 285 -3 298 2 q 217 -8 271 -8 l 158 -8 m 53 1090 q 35 1098 44 1090 q 26 1114 26 1105 q 50 1183 26 1157 q 107 1210 73 1210 q 166 1181 142 1210 q 201 1144 176 1161 q 245 1128 225 1128 q 281 1177 281 1128 q 278 1192 281 1181 q 273 1204 275 1198 q 288 1212 277 1212 q 311 1198 303 1212 q 319 1164 319 1184 q 309 1128 319 1145 q 281 1101 298 1112 q 245 1091 264 1091 q 197 1105 222 1091 q 157 1134 172 1118 q 122 1173 144 1147 l 113 1177 q 77 1166 92 1177 q 61 1140 61 1156 q 68 1111 61 1133 l 53 1090 z "},"F":{"ha":355,"x_min":95,"x_max":274,"o":"m 155 -3 q 132 33 132 -3 l 132 136 l 128 221 q 115 555 115 447 q 110 696 115 583 q 100 919 106 809 l 95 1025 l 95 1034 q 109 1048 95 1044 q 157 1050 120 1050 l 188 1050 q 226 1050 203 1050 q 243 1040 237 1050 q 249 1018 249 1031 q 223 1004 249 1004 l 191 1005 l 155 1006 q 141 1001 144 1006 q 138 979 138 997 q 149 777 138 964 q 159 572 159 589 q 205 581 174 572 q 252 589 237 589 q 267 579 260 589 q 274 561 274 570 q 261 545 274 551 q 235 538 249 540 q 188 533 221 536 q 159 517 159 530 q 172 283 159 442 q 185 49 185 131 l 181 41 q 185 23 185 31 q 155 -3 185 -3 z "},"Ḟ":{"ha":355,"x_min":95,"x_max":274,"o":"m 155 -3 q 132 33 132 -3 l 132 136 l 128 221 q 115 555 115 447 q 110 696 115 583 q 100 919 106 809 l 95 1025 l 95 1034 q 109 1048 95 1044 q 157 1050 120 1050 l 188 1050 q 226 1050 203 1050 q 243 1040 237 1050 q 249 1018 249 1031 q 223 1004 249 1004 l 191 1005 l 155 1006 q 141 1001 144 1006 q 138 979 138 997 q 149 777 138 964 q 159 572 159 589 q 205 581 174 572 q 252 589 237 589 q 267 579 260 589 q 274 561 274 570 q 261 545 274 551 q 235 538 249 540 q 188 533 221 536 q 159 517 159 530 q 172 283 159 442 q 185 49 185 131 l 181 41 q 185 23 185 31 q 155 -3 185 -3 m 174 1116 q 152 1127 161 1116 q 143 1149 143 1137 q 154 1175 143 1163 q 179 1187 165 1187 q 202 1175 191 1187 q 212 1151 212 1163 q 174 1116 212 1116 z "},"G":{"ha":534,"x_min":85,"x_max":479,"o":"m 290 -22 q 134 127 184 -22 q 85 595 85 276 q 88 715 85 663 q 94 784 90 753 q 106 853 98 814 q 125 918 114 890 q 153 977 136 946 q 191 1024 170 1005 q 242 1054 212 1042 q 306 1065 273 1065 q 347 1042 347 1065 q 327 1025 347 1025 q 307 1029 321 1025 q 288 1032 292 1032 q 244 1022 264 1032 q 209 994 224 1012 q 183 953 195 979 q 163 899 171 927 q 141 775 150 855 q 134 652 135 723 l 132 561 q 132 485 132 546 q 136 359 132 416 q 152 239 140 301 q 183 124 164 171 q 235 48 203 78 q 310 17 267 17 q 428 86 383 17 q 422 184 428 126 q 411 242 419 216 q 392 265 403 265 q 365 262 381 265 q 336 260 349 260 q 304 283 304 260 q 343 304 304 295 q 408 314 381 314 q 441 298 430 314 q 452 256 452 281 q 466 132 452 214 q 479 8 479 47 q 461 -14 479 -14 q 428 17 428 -14 l 429 20 l 429 24 q 290 -22 349 -22 z "},"Ǵ":{"ha":534,"x_min":85,"x_max":479,"o":"m 290 -22 q 134 127 184 -22 q 85 595 85 276 q 88 715 85 663 q 94 784 90 753 q 106 853 98 814 q 125 918 114 890 q 153 977 136 946 q 191 1024 170 1005 q 242 1054 212 1042 q 306 1065 273 1065 q 347 1042 347 1065 q 327 1025 347 1025 q 307 1029 321 1025 q 288 1032 292 1032 q 244 1022 264 1032 q 209 994 224 1012 q 183 953 195 979 q 163 899 171 927 q 141 775 150 855 q 134 652 135 723 l 132 561 q 132 485 132 546 q 136 359 132 416 q 152 239 140 301 q 183 124 164 171 q 235 48 203 78 q 310 17 267 17 q 428 86 383 17 q 422 184 428 126 q 411 242 419 216 q 392 265 403 265 q 365 262 381 265 q 336 260 349 260 q 304 283 304 260 q 343 304 304 295 q 408 314 381 314 q 441 298 430 314 q 452 256 452 281 q 466 132 452 214 q 479 8 479 47 q 461 -14 479 -14 q 428 17 428 -14 l 429 20 l 429 24 q 290 -22 349 -22 m 258 1125 q 240 1131 248 1125 q 233 1145 233 1136 q 271 1181 233 1151 q 354 1246 302 1206 q 406 1287 401 1282 q 436 1265 436 1287 l 432 1244 q 258 1125 361 1213 z "},"Ğ":{"ha":534,"x_min":85,"x_max":479,"o":"m 290 -22 q 134 127 184 -22 q 85 595 85 276 q 88 715 85 663 q 94 784 90 753 q 106 853 98 814 q 125 918 114 890 q 153 977 136 946 q 191 1024 170 1005 q 242 1054 212 1042 q 306 1065 273 1065 q 347 1042 347 1065 q 327 1025 347 1025 q 307 1029 321 1025 q 288 1032 292 1032 q 244 1022 264 1032 q 209 994 224 1012 q 183 953 195 979 q 163 899 171 927 q 141 775 150 855 q 134 652 135 723 l 132 561 q 132 485 132 546 q 136 359 132 416 q 152 239 140 301 q 183 124 164 171 q 235 48 203 78 q 310 17 267 17 q 428 86 383 17 q 422 184 428 126 q 411 242 419 216 q 392 265 403 265 q 365 262 381 265 q 336 260 349 260 q 304 283 304 260 q 343 304 304 295 q 408 314 381 314 q 441 298 430 314 q 452 256 452 281 q 466 132 452 214 q 479 8 479 47 q 461 -14 479 -14 q 428 17 428 -14 l 429 20 l 429 24 q 290 -22 349 -22 m 286 1114 q 237 1126 258 1114 q 205 1161 216 1139 q 184 1255 184 1204 l 199 1267 q 213 1246 209 1266 q 226 1191 218 1214 q 248 1156 233 1167 l 263 1145 l 298 1145 q 320 1157 309 1145 q 338 1186 332 1169 q 345 1216 345 1202 q 345 1226 345 1221 q 344 1236 344 1230 q 369 1262 344 1262 q 384 1256 377 1262 q 390 1242 390 1251 q 387 1231 390 1240 l 382 1221 l 386 1211 q 382 1202 385 1208 q 375 1187 379 1197 q 365 1164 369 1173 q 353 1144 360 1155 q 337 1128 345 1133 q 315 1118 330 1123 q 286 1114 303 1114 z "},"Ǧ":{"ha":534,"x_min":85,"x_max":479,"o":"m 290 -22 q 134 127 184 -22 q 85 595 85 276 q 88 715 85 663 q 94 784 90 753 q 106 853 98 814 q 125 918 114 890 q 153 977 136 946 q 191 1024 170 1005 q 242 1054 212 1042 q 306 1065 273 1065 q 347 1042 347 1065 q 327 1025 347 1025 q 307 1029 321 1025 q 288 1032 292 1032 q 244 1022 264 1032 q 209 994 224 1012 q 183 953 195 979 q 163 899 171 927 q 141 775 150 855 q 134 652 135 723 l 132 561 q 132 485 132 546 q 136 359 132 416 q 152 239 140 301 q 183 124 164 171 q 235 48 203 78 q 310 17 267 17 q 428 86 383 17 q 422 184 428 126 q 411 242 419 216 q 392 265 403 265 q 365 262 381 265 q 336 260 349 260 q 304 283 304 260 q 343 304 304 295 q 408 314 381 314 q 441 298 430 314 q 452 256 452 281 q 466 132 452 214 q 479 8 479 47 q 461 -14 479 -14 q 428 17 428 -14 l 429 20 l 429 24 q 290 -22 349 -22 m 268 1102 q 228 1151 255 1102 q 176 1258 200 1200 q 151 1337 152 1316 l 176 1355 l 200 1323 q 212 1276 201 1309 q 237 1202 222 1246 q 258 1143 252 1159 q 298 1351 291 1263 l 317 1362 q 342 1345 342 1358 q 336 1330 342 1342 l 338 1323 l 328 1302 l 329 1294 q 313 1244 323 1274 q 294 1183 300 1208 q 288 1131 288 1157 q 268 1102 288 1102 z "},"Ĝ":{"ha":534,"x_min":85,"x_max":479,"o":"m 290 -22 q 134 127 184 -22 q 85 595 85 276 q 88 715 85 663 q 94 784 90 753 q 106 853 98 814 q 125 918 114 890 q 153 977 136 946 q 191 1024 170 1005 q 242 1054 212 1042 q 306 1065 273 1065 q 347 1042 347 1065 q 327 1025 347 1025 q 307 1029 321 1025 q 288 1032 292 1032 q 244 1022 264 1032 q 209 994 224 1012 q 183 953 195 979 q 163 899 171 927 q 141 775 150 855 q 134 652 135 723 l 132 561 q 132 485 132 546 q 136 359 132 416 q 152 239 140 301 q 183 124 164 171 q 235 48 203 78 q 310 17 267 17 q 428 86 383 17 q 422 184 428 126 q 411 242 419 216 q 392 265 403 265 q 365 262 381 265 q 336 260 349 260 q 304 283 304 260 q 343 304 304 295 q 408 314 381 314 q 441 298 430 314 q 452 256 452 281 q 466 132 452 214 q 479 8 479 47 q 461 -14 479 -14 q 428 17 428 -14 l 429 20 l 429 24 q 290 -22 349 -22 m 332 1097 q 292 1305 325 1185 q 271 1246 286 1289 q 246 1173 256 1202 q 234 1125 235 1139 l 210 1093 l 185 1111 q 210 1190 186 1131 q 261 1297 234 1248 q 302 1345 289 1345 q 321 1316 321 1345 q 328 1265 321 1291 q 347 1204 334 1239 q 363 1154 357 1174 l 361 1145 l 372 1125 l 370 1118 q 376 1103 376 1105 q 351 1086 376 1090 l 332 1097 z "},"Ģ":{"ha":534,"x_min":85,"x_max":479,"o":"m 290 -22 q 134 127 184 -22 q 85 595 85 276 q 88 715 85 663 q 94 784 90 753 q 106 853 98 814 q 125 918 114 890 q 153 977 136 946 q 191 1024 170 1005 q 242 1054 212 1042 q 306 1065 273 1065 q 347 1042 347 1065 q 327 1025 347 1025 q 307 1029 321 1025 q 288 1032 292 1032 q 244 1022 264 1032 q 209 994 224 1012 q 183 953 195 979 q 163 899 171 927 q 141 775 150 855 q 134 652 135 723 l 132 561 q 132 485 132 546 q 136 359 132 416 q 152 239 140 301 q 183 124 164 171 q 235 48 203 78 q 310 17 267 17 q 428 86 383 17 q 422 184 428 126 q 411 242 419 216 q 392 265 403 265 q 365 262 381 265 q 336 260 349 260 q 304 283 304 260 q 343 304 304 295 q 408 314 381 314 q 441 298 430 314 q 452 256 452 281 q 466 132 452 214 q 479 8 479 47 q 461 -14 479 -14 q 428 17 428 -14 l 429 20 l 429 24 q 290 -22 349 -22 m 234 -301 l 237 -289 q 255 -273 243 -283 q 275 -253 267 -262 q 305 -211 300 -227 q 309 -187 309 -200 q 280 -160 292 -176 q 269 -126 269 -143 q 285 -95 269 -108 q 321 -83 301 -83 q 368 -123 353 -83 l 365 -127 q 368 -144 368 -132 q 350 -208 368 -168 q 307 -279 332 -248 q 256 -312 279 -311 l 234 -301 z "},"Ġ":{"ha":534,"x_min":85,"x_max":479,"o":"m 290 -22 q 134 127 184 -22 q 85 595 85 276 q 88 715 85 663 q 94 784 90 753 q 106 853 98 814 q 125 918 114 890 q 153 977 136 946 q 191 1024 170 1005 q 242 1054 212 1042 q 306 1065 273 1065 q 347 1042 347 1065 q 327 1025 347 1025 q 307 1029 321 1025 q 288 1032 292 1032 q 244 1022 264 1032 q 209 994 224 1012 q 183 953 195 979 q 163 899 171 927 q 141 775 150 855 q 134 652 135 723 l 132 561 q 132 485 132 546 q 136 359 132 416 q 152 239 140 301 q 183 124 164 171 q 235 48 203 78 q 310 17 267 17 q 428 86 383 17 q 422 184 428 126 q 411 242 419 216 q 392 265 403 265 q 365 262 381 265 q 336 260 349 260 q 304 283 304 260 q 343 304 304 295 q 408 314 381 314 q 441 298 430 314 q 452 256 452 281 q 466 132 452 214 q 479 8 479 47 q 461 -14 479 -14 q 428 17 428 -14 l 429 20 l 429 24 q 290 -22 349 -22 m 256 1130 q 235 1140 244 1130 q 226 1163 226 1151 q 237 1188 226 1177 q 262 1200 248 1200 q 284 1188 274 1200 q 295 1164 295 1177 q 256 1130 295 1130 z "},"H":{"ha":454,"x_min":88,"x_max":352,"o":"m 333 -14 q 317 -8 321 -14 q 313 8 313 -3 q 314 24 313 17 q 315 40 315 31 q 301 523 315 253 l 292 523 l 266 523 q 239 522 254 522 q 141 517 159 522 q 153 267 141 437 q 165 16 165 92 q 151 -5 165 -5 q 129 14 129 -5 q 123 202 129 45 q 113 406 117 360 q 88 1039 88 740 q 106 1053 88 1053 q 119 1048 114 1053 q 123 1035 123 1043 l 123 932 q 129 791 123 884 q 134 650 134 691 l 134 582 q 142 546 134 546 q 222 551 165 546 q 301 557 277 557 l 302 559 q 296 795 302 637 q 290 1031 290 945 q 308 1048 290 1048 q 325 1043 318 1048 q 332 1029 332 1038 q 342 433 332 782 q 352 33 352 83 l 352 14 q 347 -5 352 3 q 333 -14 342 -14 z "},"Ħ":{"ha":515,"x_min":89,"x_max":387,"o":"m 361 -22 q 342 8 342 -22 q 342 24 342 17 q 343 40 343 31 q 330 517 343 247 l 326 516 q 321 515 323 515 q 294 519 313 515 q 268 522 275 522 q 170 505 199 522 q 182 265 170 425 q 193 25 193 100 q 179 4 193 4 q 164 7 169 4 q 157 18 160 10 q 149 116 152 35 q 145 288 146 171 q 142 406 144 375 q 120 818 126 626 l 118 818 q 98 825 107 818 q 89 842 89 831 q 119 844 89 844 q 117 1039 117 921 l 139 1050 l 157 1035 q 151 932 151 983 q 154 846 151 897 q 270 848 176 847 l 322 848 q 318 1031 318 970 q 321 1050 318 1038 q 354 1014 347 1050 q 360 937 360 983 l 360 848 q 373 839 368 847 q 379 822 379 831 l 361 822 q 372 355 363 604 q 380 33 380 104 q 387 14 387 21 q 378 -10 387 3 q 361 -22 370 -22 m 167 546 q 248 551 191 546 q 330 557 306 557 l 331 559 q 323 822 331 621 q 201 820 331 822 l 155 819 q 163 650 163 688 q 162 622 163 634 q 161 595 161 610 q 167 546 161 569 z "},"Ȟ":{"ha":454,"x_min":88,"x_max":352,"o":"m 333 -14 q 317 -8 321 -14 q 313 8 313 -3 q 314 24 313 17 q 315 40 315 31 q 301 523 315 253 l 292 523 l 266 523 q 239 522 254 522 q 141 517 159 522 q 153 267 141 437 q 165 16 165 92 q 151 -5 165 -5 q 129 14 129 -5 q 123 202 129 45 q 113 406 117 360 q 88 1039 88 740 q 106 1053 88 1053 q 119 1048 114 1053 q 123 1035 123 1043 l 123 932 q 129 791 123 884 q 134 650 134 691 l 134 582 q 142 546 134 546 q 222 551 165 546 q 301 557 277 557 l 302 559 q 296 795 302 637 q 290 1031 290 945 q 308 1048 290 1048 q 325 1043 318 1048 q 332 1029 332 1038 q 342 433 332 782 q 352 33 352 83 l 352 14 q 347 -5 352 3 q 333 -14 342 -14 m 248 1088 q 208 1137 235 1088 q 156 1244 180 1186 q 132 1323 132 1303 l 157 1341 l 180 1310 q 193 1262 182 1295 q 217 1189 202 1232 q 239 1129 233 1145 q 279 1337 271 1250 l 297 1348 q 322 1332 322 1344 q 317 1316 322 1329 l 318 1310 l 308 1289 l 309 1280 q 293 1230 303 1261 q 274 1169 280 1195 q 268 1118 268 1143 q 248 1088 268 1088 z "},"Ĥ":{"ha":454,"x_min":88,"x_max":352,"o":"m 333 -14 q 317 -8 321 -14 q 313 8 313 -3 q 314 24 313 17 q 315 40 315 31 q 301 523 315 253 l 292 523 l 266 523 q 239 522 254 522 q 141 517 159 522 q 153 267 141 437 q 165 16 165 92 q 151 -5 165 -5 q 129 14 129 -5 q 123 202 129 45 q 113 406 117 360 q 88 1039 88 740 q 106 1053 88 1053 q 119 1048 114 1053 q 123 1035 123 1043 l 123 932 q 129 791 123 884 q 134 650 134 691 l 134 582 q 142 546 134 546 q 222 551 165 546 q 301 557 277 557 l 302 559 q 296 795 302 637 q 290 1031 290 945 q 308 1048 290 1048 q 325 1043 318 1048 q 332 1029 332 1038 q 342 433 332 782 q 352 33 352 83 l 352 14 q 347 -5 352 3 q 333 -14 342 -14 m 272 1084 q 232 1292 264 1171 q 211 1232 226 1276 q 186 1159 195 1189 q 174 1112 175 1126 l 150 1080 l 125 1097 q 150 1176 125 1118 q 201 1283 174 1234 q 241 1332 229 1332 q 261 1303 261 1332 q 267 1251 261 1277 q 286 1191 273 1225 q 302 1141 296 1160 l 301 1132 l 311 1112 l 310 1104 q 315 1089 315 1092 q 290 1072 315 1076 l 272 1084 z "},"I":{"ha":374,"x_min":81,"x_max":293,"o":"m 274 5 q 198 6 230 5 q 114 7 165 7 q 97 14 104 7 q 90 30 90 21 q 113 47 90 47 l 167 47 q 157 450 167 180 l 151 623 l 146 755 l 147 826 q 148 918 148 865 q 144 1006 148 994 l 96 1006 q 81 1026 81 1006 q 93 1046 81 1040 q 144 1050 104 1050 l 184 1050 q 237 1049 204 1049 q 255 1044 248 1049 q 262 1029 262 1039 q 257 1014 262 1021 q 245 1007 252 1007 q 227 1008 235 1007 q 212 1008 220 1008 l 197 1008 q 187 1007 192 1008 q 180 1005 182 1006 q 178 1000 178 1003 q 196 563 178 873 q 213 125 213 264 q 212 86 213 104 q 212 48 212 68 l 262 48 q 293 28 293 48 q 287 13 293 20 q 274 5 281 5 z "},"Ĳ":{"ha":696,"x_min":81,"x_max":615,"o":"m 274 5 q 198 6 230 5 q 114 7 165 7 q 97 14 104 7 q 90 30 90 21 q 113 47 90 47 l 167 47 q 157 450 167 180 l 151 623 l 146 755 l 147 826 q 148 918 148 865 q 144 1006 148 994 l 96 1006 q 81 1026 81 1006 q 93 1046 81 1040 q 144 1050 104 1050 l 184 1050 q 237 1049 204 1049 q 255 1044 248 1049 q 262 1029 262 1039 q 257 1014 262 1021 q 245 1007 252 1007 q 227 1008 235 1007 q 212 1008 220 1008 l 197 1008 q 187 1007 192 1008 q 180 1005 182 1006 q 178 1000 178 1003 q 196 563 178 873 q 213 125 213 264 q 212 86 213 104 q 212 48 212 68 l 262 48 q 293 28 293 48 q 287 13 293 20 q 274 5 281 5 m 451 -135 q 422 -109 422 -135 q 431 -93 422 -101 q 455 -75 439 -85 q 472 -62 467 -67 q 533 150 533 -1 q 526 355 533 229 q 518 543 519 488 q 511 743 518 540 l 511 759 q 504 1010 504 914 l 462 1008 l 420 1007 q 407 1014 412 1007 q 401 1028 401 1020 q 414 1049 401 1044 q 466 1054 425 1054 l 519 1053 q 593 1053 547 1053 q 609 1046 602 1053 q 615 1031 615 1040 q 608 1014 615 1017 q 577 1010 600 1010 l 546 1010 q 562 541 546 854 q 576 207 576 241 q 575 114 576 146 q 566 43 573 81 q 546 -25 559 3 q 509 -82 533 -53 q 451 -135 486 -111 z "},"Í":{"ha":374,"x_min":81,"x_max":363,"o":"m 274 5 q 198 6 230 5 q 114 7 165 7 q 97 14 104 7 q 90 30 90 21 q 113 47 90 47 l 167 47 q 157 450 167 180 l 151 623 l 146 755 l 147 826 q 148 918 148 865 q 144 1006 148 994 l 96 1006 q 81 1026 81 1006 q 93 1046 81 1040 q 144 1050 104 1050 l 184 1050 q 237 1049 204 1049 q 255 1044 248 1049 q 262 1029 262 1039 q 257 1014 262 1021 q 245 1007 252 1007 q 227 1008 235 1007 q 212 1008 220 1008 l 197 1008 q 187 1007 192 1008 q 180 1005 182 1006 q 178 1000 178 1003 q 196 563 178 873 q 213 125 213 264 q 212 86 213 104 q 212 48 212 68 l 262 48 q 293 28 293 48 q 287 13 293 20 q 274 5 281 5 m 185 1112 q 167 1117 174 1112 q 160 1132 160 1122 q 198 1168 160 1137 q 281 1233 229 1193 q 332 1274 328 1269 q 363 1252 363 1274 l 359 1231 q 185 1112 288 1199 z "},"Ĭ":{"ha":374,"x_min":81,"x_max":293,"o":"m 274 5 q 198 6 230 5 q 114 7 165 7 q 97 14 104 7 q 90 30 90 21 q 113 47 90 47 l 167 47 q 157 450 167 180 l 151 623 l 146 755 l 147 826 q 148 918 148 865 q 144 1006 148 994 l 96 1006 q 81 1026 81 1006 q 93 1046 81 1040 q 144 1050 104 1050 l 184 1050 q 237 1049 204 1049 q 255 1044 248 1049 q 262 1029 262 1039 q 257 1014 262 1021 q 245 1007 252 1007 q 227 1008 235 1007 q 212 1008 220 1008 l 197 1008 q 187 1007 192 1008 q 180 1005 182 1006 q 178 1000 178 1003 q 196 563 178 873 q 213 125 213 264 q 212 86 213 104 q 212 48 212 68 l 262 48 q 293 28 293 48 q 287 13 293 20 q 274 5 281 5 m 185 1100 q 137 1113 157 1100 q 105 1147 116 1125 q 84 1242 84 1190 l 99 1254 q 113 1232 109 1253 q 125 1177 118 1200 q 148 1143 133 1154 l 163 1132 l 197 1132 q 220 1144 209 1132 q 238 1172 231 1156 q 245 1202 245 1189 q 244 1213 245 1208 q 243 1222 243 1217 q 269 1249 243 1249 q 283 1243 277 1249 q 290 1229 290 1237 q 286 1217 290 1226 l 282 1207 l 286 1197 q 281 1189 284 1194 q 275 1173 279 1183 q 264 1150 269 1159 q 252 1131 260 1141 q 237 1114 245 1119 q 215 1105 229 1109 q 185 1100 203 1100 z "},"Ǐ":{"ha":374,"x_min":81,"x_max":293,"o":"m 274 5 q 198 6 230 5 q 114 7 165 7 q 97 14 104 7 q 90 30 90 21 q 113 47 90 47 l 167 47 q 157 450 167 180 l 151 623 l 146 755 l 147 826 q 148 918 148 865 q 144 1006 148 994 l 96 1006 q 81 1026 81 1006 q 93 1046 81 1040 q 144 1050 104 1050 l 184 1050 q 237 1049 204 1049 q 255 1044 248 1049 q 262 1029 262 1039 q 257 1014 262 1021 q 245 1007 252 1007 q 227 1008 235 1007 q 212 1008 220 1008 l 197 1008 q 187 1007 192 1008 q 180 1005 182 1006 q 178 1000 178 1003 q 196 563 178 873 q 213 125 213 264 q 212 86 213 104 q 212 48 212 68 l 262 48 q 293 28 293 48 q 287 13 293 20 q 274 5 281 5 m 208 1088 q 168 1137 195 1088 q 116 1244 140 1186 q 92 1323 92 1303 l 117 1341 l 140 1310 q 153 1262 142 1295 q 177 1189 162 1232 q 199 1129 193 1145 q 239 1337 231 1250 l 257 1348 q 282 1332 282 1344 q 277 1316 282 1329 l 278 1310 l 268 1289 l 269 1280 q 253 1230 263 1261 q 234 1169 240 1195 q 228 1118 228 1143 q 208 1088 228 1088 z "},"Î":{"ha":374,"x_min":81,"x_max":293,"o":"m 274 5 q 198 6 230 5 q 114 7 165 7 q 97 14 104 7 q 90 30 90 21 q 113 47 90 47 l 167 47 q 157 450 167 180 l 151 623 l 146 755 l 147 826 q 148 918 148 865 q 144 1006 148 994 l 96 1006 q 81 1026 81 1006 q 93 1046 81 1040 q 144 1050 104 1050 l 184 1050 q 237 1049 204 1049 q 255 1044 248 1049 q 262 1029 262 1039 q 257 1014 262 1021 q 245 1007 252 1007 q 227 1008 235 1007 q 212 1008 220 1008 l 197 1008 q 187 1007 192 1008 q 180 1005 182 1006 q 178 1000 178 1003 q 196 563 178 873 q 213 125 213 264 q 212 86 213 104 q 212 48 212 68 l 262 48 q 293 28 293 48 q 287 13 293 20 q 274 5 281 5 m 232 1084 q 192 1292 224 1171 q 171 1232 186 1276 q 146 1159 155 1189 q 134 1112 135 1126 l 110 1080 l 85 1097 q 110 1176 85 1118 q 161 1283 134 1234 q 201 1332 189 1332 q 221 1303 221 1332 q 227 1251 221 1277 q 246 1191 233 1225 q 262 1141 256 1160 l 261 1132 l 271 1112 l 270 1104 q 275 1089 275 1092 q 250 1072 275 1076 l 232 1084 z "},"Ȉ":{"ha":374,"x_min":-132,"x_max":309,"o":"m 274 5 q 198 6 230 5 q 114 7 165 7 q 97 14 104 7 q 90 30 90 21 q 113 47 90 47 l 167 47 q 157 450 167 180 l 151 623 l 146 755 l 147 826 q 148 918 148 865 q 144 1006 148 994 l 96 1006 q 81 1026 81 1006 q 93 1046 81 1040 q 144 1050 104 1050 l 184 1050 q 237 1049 204 1049 q 255 1044 248 1049 q 262 1029 262 1039 q 257 1014 262 1021 q 245 1007 252 1007 q 227 1008 235 1007 q 212 1008 220 1008 l 197 1008 q 187 1007 192 1008 q 180 1005 182 1006 q 178 1000 178 1003 q 196 563 178 873 q 213 125 213 264 q 212 86 213 104 q 212 48 212 68 l 262 48 q 293 28 293 48 q 287 13 293 20 q 274 5 281 5 m 303 1093 q 245 1123 280 1097 q 197 1154 213 1147 q 71 1253 171 1173 q 62 1266 62 1257 q 68 1280 62 1272 q 77 1287 75 1287 q 142 1244 85 1287 q 253 1155 199 1201 q 309 1100 307 1109 l 303 1093 m 127 1097 q 99 1112 122 1097 q 49 1144 73 1128 l 33 1154 q 15 1165 17 1164 q -60 1202 -37 1193 l -132 1243 q -121 1265 -130 1254 q -104 1277 -111 1277 q -26 1236 -97 1277 q 69 1168 -3 1222 q 135 1107 135 1117 q 127 1097 135 1097 z "},"Ï":{"ha":374,"x_min":66,"x_max":314,"o":"m 274 5 q 198 6 230 5 q 114 7 165 7 q 97 14 104 7 q 90 30 90 21 q 113 47 90 47 l 167 47 q 157 450 167 180 l 151 623 l 146 755 l 147 826 q 148 918 148 865 q 144 1006 148 994 l 96 1006 q 81 1026 81 1006 q 93 1046 81 1040 q 144 1050 104 1050 l 184 1050 q 237 1049 204 1049 q 255 1044 248 1049 q 262 1029 262 1039 q 257 1014 262 1021 q 245 1007 252 1007 q 227 1008 235 1007 q 212 1008 220 1008 l 197 1008 q 187 1007 192 1008 q 180 1005 182 1006 q 178 1000 178 1003 q 196 563 178 873 q 213 125 213 264 q 212 86 213 104 q 212 48 212 68 l 262 48 q 293 28 293 48 q 287 13 293 20 q 274 5 281 5 m 277 1124 q 258 1134 267 1124 q 250 1154 250 1143 q 260 1178 250 1167 q 283 1189 271 1189 q 304 1178 295 1189 q 314 1156 314 1166 q 277 1124 314 1124 m 93 1118 q 74 1129 82 1118 q 66 1153 66 1140 q 77 1176 66 1165 q 100 1187 87 1187 q 120 1174 113 1187 q 127 1142 127 1161 q 117 1125 127 1131 q 93 1118 106 1118 z "},"İ":{"ha":374,"x_min":81,"x_max":293,"o":"m 274 5 q 198 6 230 5 q 114 7 165 7 q 97 14 104 7 q 90 30 90 21 q 113 47 90 47 l 167 47 q 157 450 167 180 l 151 623 l 146 755 l 147 826 q 148 918 148 865 q 144 1006 148 994 l 96 1006 q 81 1026 81 1006 q 93 1046 81 1040 q 144 1050 104 1050 l 184 1050 q 237 1049 204 1049 q 255 1044 248 1049 q 262 1029 262 1039 q 257 1014 262 1021 q 245 1007 252 1007 q 227 1008 235 1007 q 212 1008 220 1008 l 197 1008 q 187 1007 192 1008 q 180 1005 182 1006 q 178 1000 178 1003 q 196 563 178 873 q 213 125 213 264 q 212 86 213 104 q 212 48 212 68 l 262 48 q 293 28 293 48 q 287 13 293 20 q 274 5 281 5 m 183 1116 q 162 1127 171 1116 q 153 1149 153 1137 q 164 1175 153 1163 q 189 1187 175 1187 q 211 1175 201 1187 q 222 1151 222 1163 q 183 1116 222 1116 z "},"Ị":{"ha":374,"x_min":81,"x_max":293,"o":"m 274 5 q 198 6 230 5 q 114 7 165 7 q 97 14 104 7 q 90 30 90 21 q 113 47 90 47 l 167 47 q 157 450 167 180 l 151 623 l 146 755 l 147 826 q 148 918 148 865 q 144 1006 148 994 l 96 1006 q 81 1026 81 1006 q 93 1046 81 1040 q 144 1050 104 1050 l 184 1050 q 237 1049 204 1049 q 255 1044 248 1049 q 262 1029 262 1039 q 257 1014 262 1021 q 245 1007 252 1007 q 227 1008 235 1007 q 212 1008 220 1008 l 197 1008 q 187 1007 192 1008 q 180 1005 182 1006 q 178 1000 178 1003 q 196 563 178 873 q 213 125 213 264 q 212 86 213 104 q 212 48 212 68 l 262 48 q 293 28 293 48 q 287 13 293 20 q 274 5 281 5 m 183 -163 q 162 -152 171 -163 q 153 -130 153 -142 q 164 -104 153 -116 q 189 -92 175 -92 q 211 -104 201 -92 q 222 -128 222 -116 q 183 -163 222 -163 z "},"Ì":{"ha":374,"x_min":43,"x_max":293,"o":"m 274 5 q 198 6 230 5 q 114 7 165 7 q 97 14 104 7 q 90 30 90 21 q 113 47 90 47 l 167 47 q 157 450 167 180 l 151 623 l 146 755 l 147 826 q 148 918 148 865 q 144 1006 148 994 l 96 1006 q 81 1026 81 1006 q 93 1046 81 1040 q 144 1050 104 1050 l 184 1050 q 237 1049 204 1049 q 255 1044 248 1049 q 262 1029 262 1039 q 257 1014 262 1021 q 245 1007 252 1007 q 227 1008 235 1007 q 212 1008 220 1008 l 197 1008 q 187 1007 192 1008 q 180 1005 182 1006 q 178 1000 178 1003 q 196 563 178 873 q 213 125 213 264 q 212 86 213 104 q 212 48 212 68 l 262 48 q 293 28 293 48 q 287 13 293 20 q 274 5 281 5 m 237 1074 q 174 1109 235 1075 q 108 1148 113 1144 l 100 1148 q 85 1149 94 1148 q 43 1185 38 1158 q 57 1213 47 1209 l 66 1212 q 116 1187 106 1205 l 132 1179 q 182 1149 146 1172 q 234 1114 215 1129 q 255 1083 257 1095 q 249 1076 254 1079 q 237 1074 243 1074 z "},"Ỉ":{"ha":374,"x_min":81,"x_max":293,"o":"m 274 5 q 198 6 230 5 q 114 7 165 7 q 97 14 104 7 q 90 30 90 21 q 113 47 90 47 l 167 47 q 157 450 167 180 l 151 623 l 146 755 l 147 826 q 148 918 148 865 q 144 1006 148 994 l 96 1006 q 81 1026 81 1006 q 93 1046 81 1040 q 144 1050 104 1050 l 184 1050 q 237 1049 204 1049 q 255 1044 248 1049 q 262 1029 262 1039 q 257 1014 262 1021 q 245 1007 252 1007 q 227 1008 235 1007 q 212 1008 220 1008 l 197 1008 q 187 1007 192 1008 q 180 1005 182 1006 q 178 1000 178 1003 q 196 563 178 873 q 213 125 213 264 q 212 86 213 104 q 212 48 212 68 l 262 48 q 293 28 293 48 q 287 13 293 20 q 274 5 281 5 m 195 1067 q 179 1083 181 1067 l 179 1090 q 187 1108 179 1101 q 211 1127 195 1116 q 233 1143 225 1136 q 240 1159 240 1151 q 195 1185 240 1185 q 157 1179 170 1185 q 144 1156 144 1172 q 146 1138 144 1147 q 133 1135 138 1135 q 113 1159 113 1135 q 133 1197 113 1181 q 195 1212 153 1212 q 256 1198 239 1212 q 274 1159 274 1185 q 265 1137 274 1146 q 237 1114 256 1127 q 217 1098 223 1104 q 210 1084 210 1092 l 210 1076 q 195 1067 205 1067 z "},"Ȋ":{"ha":374,"x_min":75,"x_max":293,"o":"m 274 5 q 198 6 230 5 q 114 7 165 7 q 97 14 104 7 q 90 30 90 21 q 113 47 90 47 l 167 47 q 157 450 167 180 l 151 623 l 146 755 l 147 826 q 148 918 148 865 q 144 1006 148 994 l 96 1006 q 81 1026 81 1006 q 93 1046 81 1040 q 144 1050 104 1050 l 184 1050 q 237 1049 204 1049 q 255 1044 248 1049 q 262 1029 262 1039 q 257 1014 262 1021 q 245 1007 252 1007 q 227 1008 235 1007 q 212 1008 220 1008 l 197 1008 q 187 1007 192 1008 q 180 1005 182 1006 q 178 1000 178 1003 q 196 563 178 873 q 213 125 213 264 q 212 86 213 104 q 212 48 212 68 l 262 48 q 293 28 293 48 q 287 13 293 20 q 274 5 281 5 m 75 1085 q 96 1179 75 1137 q 127 1214 106 1202 q 176 1227 148 1227 q 227 1213 202 1227 q 254 1178 239 1206 q 258 1170 256 1175 q 265 1154 261 1164 q 272 1138 269 1144 q 276 1130 275 1133 l 273 1120 l 277 1109 q 280 1098 280 1101 q 274 1084 280 1090 q 259 1078 267 1078 q 234 1105 234 1078 q 235 1115 234 1110 q 235 1124 235 1119 q 229 1155 235 1138 q 211 1183 222 1171 q 188 1195 199 1195 l 153 1195 l 138 1184 q 116 1150 123 1173 q 103 1095 109 1126 q 90 1073 99 1074 l 75 1085 z "},"Ī":{"ha":374,"x_min":53,"x_max":321,"o":"m 274 5 q 198 6 230 5 q 114 7 165 7 q 97 14 104 7 q 90 30 90 21 q 113 47 90 47 l 167 47 q 157 450 167 180 l 151 623 l 146 755 l 147 826 q 148 918 148 865 q 144 1006 148 994 l 96 1006 q 81 1026 81 1006 q 93 1046 81 1040 q 144 1050 104 1050 l 184 1050 q 237 1049 204 1049 q 255 1044 248 1049 q 262 1029 262 1039 q 257 1014 262 1021 q 245 1007 252 1007 q 227 1008 235 1007 q 212 1008 220 1008 l 197 1008 q 187 1007 192 1008 q 180 1005 182 1006 q 178 1000 178 1003 q 196 563 178 873 q 213 125 213 264 q 212 86 213 104 q 212 48 212 68 l 262 48 q 293 28 293 48 q 287 13 293 20 q 274 5 281 5 m 127 1135 q 83 1138 96 1135 q 56 1148 60 1143 q 53 1158 53 1153 q 142 1169 54 1169 l 220 1169 q 260 1169 244 1169 q 291 1166 275 1168 q 314 1160 307 1164 q 321 1147 321 1155 q 232 1135 319 1135 l 154 1135 l 127 1135 z "},"Į":{"ha":374,"x_min":81,"x_max":387,"o":"m 274 5 q 198 6 230 5 q 114 7 165 7 q 97 14 104 7 q 90 30 90 21 q 113 47 90 47 l 167 47 q 157 450 167 180 l 151 623 l 146 755 l 147 826 q 148 918 148 865 q 144 1006 148 994 l 96 1006 q 81 1026 81 1006 q 93 1046 81 1040 q 144 1050 104 1050 l 184 1050 q 237 1049 204 1049 q 255 1044 248 1049 q 262 1029 262 1039 q 257 1014 262 1021 q 245 1007 252 1007 q 227 1008 235 1007 q 212 1008 220 1008 l 197 1008 q 187 1007 192 1008 q 180 1005 182 1006 q 178 1000 178 1003 q 196 563 178 873 q 213 125 213 264 q 212 86 213 104 q 212 48 212 68 l 262 48 q 293 28 293 48 q 287 13 293 20 q 274 5 281 5 m 327 -307 q 276 -289 300 -307 q 237 -245 252 -271 q 222 -197 222 -219 q 231 -132 222 -165 q 256 -72 241 -98 q 308 2 286 -20 l 317 12 l 357 7 l 359 7 l 359 7 q 348 -11 359 6 q 319 -53 332 -33 q 296 -98 307 -73 q 284 -152 284 -128 q 281 -184 284 -167 l 281 -197 q 280 -213 280 -204 q 295 -251 280 -231 q 327 -270 311 -270 q 349 -262 334 -270 q 372 -256 363 -256 q 387 -270 387 -256 q 368 -297 387 -287 q 327 -307 349 -307 z "},"Ĩ":{"ha":374,"x_min":41,"x_max":334,"o":"m 274 5 q 198 6 230 5 q 114 7 165 7 q 97 14 104 7 q 90 30 90 21 q 113 47 90 47 l 167 47 q 157 450 167 180 l 151 623 l 146 755 l 147 826 q 148 918 148 865 q 144 1006 148 994 l 96 1006 q 81 1026 81 1006 q 93 1046 81 1040 q 144 1050 104 1050 l 184 1050 q 237 1049 204 1049 q 255 1044 248 1049 q 262 1029 262 1039 q 257 1014 262 1021 q 245 1007 252 1007 q 227 1008 235 1007 q 212 1008 220 1008 l 197 1008 q 187 1007 192 1008 q 180 1005 182 1006 q 178 1000 178 1003 q 196 563 178 873 q 213 125 213 264 q 212 86 213 104 q 212 48 212 68 l 262 48 q 293 28 293 48 q 287 13 293 20 q 274 5 281 5 m 67 1090 q 50 1098 58 1090 q 41 1114 41 1105 q 64 1183 41 1157 q 121 1210 87 1210 q 180 1181 156 1210 q 215 1144 191 1161 q 260 1128 239 1128 q 296 1177 296 1128 q 292 1192 296 1181 q 288 1204 289 1198 q 302 1212 292 1212 q 326 1198 317 1212 q 334 1164 334 1184 q 323 1128 334 1145 q 296 1101 313 1112 q 260 1091 279 1091 q 212 1105 237 1091 q 172 1134 186 1118 q 136 1173 159 1147 l 127 1177 q 91 1166 106 1177 q 75 1140 75 1156 q 82 1111 75 1133 l 67 1090 z "},"J":{"ha":322,"x_min":27,"x_max":241,"o":"m 77 -135 q 47 -109 47 -135 q 57 -93 48 -101 q 81 -75 65 -85 q 98 -62 93 -67 q 159 150 159 -1 q 152 355 159 229 q 144 543 145 488 q 137 743 144 540 l 136 759 q 130 1010 130 914 l 87 1008 l 46 1007 q 33 1014 38 1007 q 27 1028 27 1020 q 39 1049 27 1044 q 92 1054 51 1054 l 144 1053 q 218 1053 172 1053 q 234 1046 228 1053 q 241 1031 241 1040 q 233 1014 241 1017 q 203 1010 226 1010 l 172 1010 q 187 541 172 854 q 202 207 202 241 q 200 114 202 146 q 192 43 199 81 q 172 -25 185 3 q 135 -82 159 -53 q 77 -135 112 -111 z "},"Ĵ":{"ha":322,"x_min":27,"x_max":250,"o":"m 77 -135 q 47 -109 47 -135 q 57 -93 48 -101 q 81 -75 65 -85 q 98 -62 93 -67 q 159 150 159 -1 q 152 355 159 229 q 144 543 145 488 q 137 743 144 540 l 136 759 q 130 1010 130 914 l 87 1008 l 46 1007 q 33 1014 38 1007 q 27 1028 27 1020 q 39 1049 27 1044 q 92 1054 51 1054 l 144 1053 q 218 1053 172 1053 q 234 1046 228 1053 q 241 1031 241 1040 q 233 1014 241 1017 q 203 1010 226 1010 l 172 1010 q 187 541 172 854 q 202 207 202 241 q 200 114 202 146 q 192 43 199 81 q 172 -25 185 3 q 135 -82 159 -53 q 77 -135 112 -111 m 206 1084 q 166 1292 199 1171 q 145 1232 160 1276 q 120 1159 130 1189 q 108 1112 109 1126 l 84 1080 l 59 1097 q 84 1176 60 1118 q 135 1283 108 1234 q 176 1332 163 1332 q 195 1303 195 1332 q 201 1251 195 1277 q 220 1191 208 1225 q 237 1141 231 1160 l 235 1132 l 245 1112 l 244 1104 q 250 1089 250 1092 q 224 1072 250 1076 l 206 1084 z "},"K":{"ha":437,"x_min":88,"x_max":427,"o":"m 403 -22 q 387 -13 389 -22 l 304 273 q 206 600 225 545 l 197 623 q 193 616 196 621 q 181 597 189 610 q 174 583 176 590 q 163 567 168 575 q 153 550 159 558 l 134 517 l 134 23 q 129 -9 134 0 q 111 -18 125 -18 q 93 -8 97 -18 q 88 26 88 1 l 88 446 q 92 712 88 507 q 94 979 94 876 q 98 1028 94 1009 q 113 1044 101 1044 q 138 1034 133 1044 q 142 985 142 1025 q 140 754 142 916 l 138 586 l 139 586 q 214 761 169 650 q 266 890 257 869 q 364 1083 341 1083 q 381 1078 374 1083 q 388 1063 388 1072 q 366 1006 385 1037 q 352 982 355 989 q 282 816 332 937 l 274 795 q 222 673 227 680 q 221 666 221 668 q 224 657 221 661 q 286 483 252 587 q 342 301 320 379 q 391 132 366 218 q 425 8 415 45 q 427 -1 427 3 q 420 -16 427 -11 q 403 -22 413 -22 z "},"Ǩ":{"ha":437,"x_min":88,"x_max":427,"o":"m 403 -22 q 387 -13 389 -22 l 304 273 q 206 600 225 545 l 197 623 q 193 616 196 621 q 181 597 189 610 q 174 583 176 590 q 163 567 168 575 q 153 550 159 558 l 134 517 l 134 23 q 129 -9 134 0 q 111 -18 125 -18 q 93 -8 97 -18 q 88 26 88 1 l 88 446 q 92 712 88 507 q 94 979 94 876 q 98 1028 94 1009 q 113 1044 101 1044 q 138 1034 133 1044 q 142 985 142 1025 q 140 754 142 916 l 138 586 l 139 586 q 214 761 169 650 q 266 890 257 869 q 364 1083 341 1083 q 381 1078 374 1083 q 388 1063 388 1072 q 366 1006 385 1037 q 352 982 355 989 q 282 816 332 937 l 274 795 q 222 673 227 680 q 221 666 221 668 q 224 657 221 661 q 286 483 252 587 q 342 301 320 379 q 391 132 366 218 q 425 8 415 45 q 427 -1 427 3 q 420 -16 427 -11 q 403 -22 413 -22 m 240 1088 q 200 1137 227 1088 q 148 1244 172 1186 q 123 1323 124 1303 l 149 1341 l 172 1310 q 184 1262 174 1295 q 209 1189 194 1232 q 231 1129 224 1145 q 271 1337 263 1250 l 289 1348 q 314 1332 314 1344 q 309 1316 314 1329 l 310 1310 l 300 1289 l 301 1280 q 285 1230 295 1261 q 266 1169 272 1195 q 260 1118 260 1143 q 240 1088 260 1088 z "},"Ķ":{"ha":437,"x_min":88,"x_max":427,"o":"m 403 -22 q 387 -13 389 -22 l 304 273 q 206 600 225 545 l 197 623 q 193 616 196 621 q 181 597 189 610 q 174 583 176 590 q 163 567 168 575 q 153 550 159 558 l 134 517 l 134 23 q 129 -9 134 0 q 111 -18 125 -18 q 93 -8 97 -18 q 88 26 88 1 l 88 446 q 92 712 88 507 q 94 979 94 876 q 98 1028 94 1009 q 113 1044 101 1044 q 138 1034 133 1044 q 142 985 142 1025 q 140 754 142 916 l 138 586 l 139 586 q 214 761 169 650 q 266 890 257 869 q 364 1083 341 1083 q 381 1078 374 1083 q 388 1063 388 1072 q 366 1006 385 1037 q 352 982 355 989 q 282 816 332 937 l 274 795 q 222 673 227 680 q 221 666 221 668 q 224 657 221 661 q 286 483 252 587 q 342 301 320 379 q 391 132 366 218 q 425 8 415 45 q 427 -1 427 3 q 420 -16 427 -11 q 403 -22 413 -22 m 152 -288 l 155 -275 q 173 -259 161 -270 q 193 -239 184 -248 q 223 -197 218 -213 q 227 -174 227 -186 q 198 -146 210 -163 q 186 -113 186 -130 q 203 -82 186 -94 q 239 -69 219 -69 q 286 -110 271 -69 l 283 -114 q 286 -131 286 -119 q 268 -194 286 -155 q 224 -265 250 -234 q 174 -298 197 -298 l 152 -288 z "},"L":{"ha":342,"x_min":95,"x_max":295,"o":"m 145 -8 q 129 0 135 -8 q 122 21 122 9 l 123 43 l 123 77 q 116 273 123 149 q 109 471 109 398 q 102 761 109 576 q 95 1051 95 964 q 101 1063 95 1059 q 115 1067 107 1067 q 140 1048 140 1067 q 145 663 140 797 l 152 414 q 159 224 152 361 q 168 51 167 93 q 172 47 168 48 q 191 46 174 46 l 276 46 q 295 21 295 46 q 290 2 295 10 q 278 -6 286 -6 l 269 -7 q 257 -7 264 -7 q 145 -8 228 -8 z "},"Ǉ":{"ha":665,"x_min":95,"x_max":583,"o":"m 145 -8 q 129 0 135 -8 q 122 21 122 9 l 123 43 l 123 77 q 116 273 123 149 q 109 471 109 398 q 102 761 109 576 q 95 1051 95 964 q 101 1063 95 1059 q 115 1067 107 1067 q 140 1048 140 1067 q 145 663 140 797 l 152 414 q 159 224 152 361 q 168 51 167 93 q 172 47 168 48 q 191 46 174 46 l 276 46 q 295 21 295 46 q 290 2 295 10 q 278 -6 286 -6 l 269 -7 q 257 -7 264 -7 q 145 -8 228 -8 m 419 -135 q 390 -109 390 -135 q 399 -93 391 -101 q 423 -75 408 -85 q 440 -62 435 -67 q 501 150 501 -1 q 494 355 501 229 q 486 543 488 488 q 479 743 486 540 l 479 759 q 472 1010 472 914 l 430 1008 l 389 1007 q 375 1014 380 1007 q 370 1028 370 1020 q 382 1049 370 1044 q 434 1054 393 1054 l 487 1053 q 561 1053 515 1053 q 577 1046 570 1053 q 583 1031 583 1040 q 576 1014 583 1017 q 545 1010 568 1010 l 514 1010 q 530 541 514 854 q 545 207 545 241 q 543 114 545 146 q 534 43 541 81 q 514 -25 528 3 q 477 -82 501 -53 q 419 -135 454 -111 z "},"Ĺ":{"ha":342,"x_min":90,"x_max":295,"o":"m 145 -8 q 129 0 135 -8 q 122 21 122 9 l 123 43 l 123 77 q 116 273 123 149 q 109 471 109 398 q 102 761 109 576 q 95 1051 95 964 q 101 1063 95 1059 q 115 1067 107 1067 q 140 1048 140 1067 q 145 663 140 797 l 152 414 q 159 224 152 361 q 168 51 167 93 q 172 47 168 48 q 191 46 174 46 l 276 46 q 295 21 295 46 q 290 2 295 10 q 278 -6 286 -6 l 269 -7 q 257 -7 264 -7 q 145 -8 228 -8 m 115 1112 q 97 1117 104 1112 q 90 1132 90 1122 q 128 1168 90 1137 q 211 1233 159 1193 q 262 1274 258 1269 q 293 1252 293 1274 l 289 1231 q 115 1112 218 1199 z "},"Ľ":{"ha":342,"x_min":22,"x_max":295,"o":"m 145 -8 q 129 0 135 -8 q 122 21 122 9 l 123 43 l 123 77 q 116 273 123 149 q 109 471 109 398 q 102 761 109 576 q 95 1051 95 964 q 101 1063 95 1059 q 115 1067 107 1067 q 140 1048 140 1067 q 145 663 140 797 l 152 414 q 159 224 152 361 q 168 51 167 93 q 172 47 168 48 q 191 46 174 46 l 276 46 q 295 21 295 46 q 290 2 295 10 q 278 -6 286 -6 l 269 -7 q 257 -7 264 -7 q 145 -8 228 -8 m 138 1088 q 98 1137 125 1088 q 46 1244 71 1186 q 22 1323 22 1303 l 47 1341 l 71 1310 q 83 1262 72 1295 q 107 1189 92 1232 q 129 1129 123 1145 q 169 1337 161 1250 l 187 1348 q 212 1332 212 1344 q 207 1316 212 1329 l 208 1310 l 198 1289 l 199 1280 q 183 1230 193 1261 q 164 1169 170 1195 q 158 1118 158 1143 q 138 1088 158 1088 z "},"Ļ":{"ha":342,"x_min":95,"x_max":295,"o":"m 145 -8 q 129 0 135 -8 q 122 21 122 9 l 123 43 l 123 77 q 116 273 123 149 q 109 471 109 398 q 102 761 109 576 q 95 1051 95 964 q 101 1063 95 1059 q 115 1067 107 1067 q 140 1048 140 1067 q 145 663 140 797 l 152 414 q 159 224 152 361 q 168 51 167 93 q 172 47 168 48 q 191 46 174 46 l 276 46 q 295 21 295 46 q 290 2 295 10 q 278 -6 286 -6 l 269 -7 q 257 -7 264 -7 q 145 -8 228 -8 m 104 -288 l 107 -275 q 125 -259 114 -270 q 146 -239 137 -248 q 176 -197 170 -213 q 180 -174 180 -186 q 151 -146 162 -163 q 139 -113 139 -130 q 155 -82 139 -94 q 192 -69 172 -69 q 238 -110 223 -69 l 235 -114 q 238 -131 238 -119 q 220 -194 238 -155 q 177 -265 203 -234 q 127 -298 150 -298 l 104 -288 z "},"Ŀ":{"ha":431,"x_min":95,"x_max":397,"o":"m 145 -8 q 129 0 135 -8 q 122 21 122 9 l 123 43 l 123 77 q 116 273 123 149 q 109 471 109 398 q 102 761 109 576 q 95 1051 95 964 q 101 1063 95 1059 q 115 1067 107 1067 q 140 1048 140 1067 q 145 663 140 797 l 152 414 q 159 224 152 361 q 168 51 167 93 q 172 47 168 48 q 191 46 174 46 l 276 46 q 295 21 295 46 q 290 2 295 10 q 278 -6 286 -6 l 269 -7 q 257 -7 264 -7 q 145 -8 228 -8 m 358 472 q 337 483 346 472 q 328 505 328 493 q 339 531 328 519 q 363 543 350 543 q 386 531 376 543 q 397 507 397 519 q 358 472 397 472 z "},"ǈ":{"ha":675,"x_min":95,"x_max":642,"o":"m 145 -8 q 129 0 135 -8 q 122 21 122 9 l 123 43 l 123 77 q 116 273 123 149 q 109 471 109 398 q 102 761 109 576 q 95 1051 95 964 q 101 1063 95 1059 q 115 1067 107 1067 q 140 1048 140 1067 q 145 663 140 797 l 152 414 q 159 224 152 361 q 168 51 167 93 q 172 47 168 48 q 191 46 174 46 l 276 46 q 295 21 295 46 q 290 2 295 10 q 278 -6 286 -6 l 269 -7 q 257 -7 264 -7 q 145 -8 228 -8 m 354 -139 l 353 -136 l 353 -134 q 376 -113 353 -128 l 395 -100 l 426 -80 q 458 -57 454 -62 q 491 17 479 -33 q 503 117 503 67 q 496 486 503 239 q 490 854 490 720 l 481 869 q 448 876 476 872 q 401 887 422 879 q 380 905 380 895 q 392 917 380 911 q 410 922 403 922 q 494 912 437 922 q 596 889 551 903 q 642 864 642 876 q 635 851 642 856 q 619 846 628 846 q 581 853 607 846 q 544 860 558 860 q 532 832 532 860 q 538 543 532 726 q 545 256 545 360 l 545 103 q 537 45 537 85 q 528 -19 537 16 q 503 -88 519 -54 q 457 -148 486 -125 q 395 -171 429 -171 l 386 -171 l 354 -139 z "},"Ł":{"ha":363,"x_min":9,"x_max":316,"o":"m 297 46 q 316 21 316 46 q 311 2 316 10 q 299 -6 307 -6 l 290 -7 q 278 -7 285 -7 q 166 -8 249 -8 q 150 0 156 -8 q 143 21 143 9 l 144 43 l 144 77 q 137 273 144 149 q 130 471 130 398 q 130 535 130 511 q 45 496 109 525 q 31 493 37 493 q 16 497 24 493 q 9 507 9 501 q 129 583 9 523 l 128 610 l 123 761 q 116 1051 116 964 q 122 1063 116 1059 q 136 1067 128 1067 q 161 1048 161 1067 q 166 663 161 797 l 168 602 q 243 637 186 610 l 264 646 q 277 648 270 648 q 293 644 286 648 q 301 635 301 640 q 169 554 301 618 l 173 414 q 180 224 173 361 q 189 51 188 93 q 193 47 189 48 q 212 46 195 46 l 297 46 z "},"M":{"ha":635,"x_min":102,"x_max":534,"o":"m 513 -32 q 489 -23 495 -32 q 483 7 483 -14 l 483 134 q 478 362 483 220 q 473 590 473 524 l 474 668 l 475 746 q 473 812 475 770 l 470 869 q 467 860 468 867 q 419 582 451 755 q 370 328 387 408 q 345 201 355 256 q 333 172 342 183 q 313 161 324 161 q 295 173 303 161 q 284 205 287 184 q 247 412 279 241 q 182 734 214 583 q 146 893 151 886 q 141 612 141 760 q 143 391 141 539 q 145 171 145 244 q 149 105 145 154 q 152 39 152 56 q 141 3 152 14 q 102 75 102 3 l 102 307 l 103 448 q 104 589 104 510 q 106 753 104 644 q 108 918 108 863 l 108 1040 q 114 1053 108 1047 q 128 1059 121 1059 q 142 1047 138 1059 q 205 805 155 1008 q 280 486 255 602 q 321 255 291 435 l 342 379 q 363 501 350 425 q 423 819 370 529 l 427 842 l 441 913 l 455 991 l 459 1014 l 462 1033 q 471 1055 465 1047 q 486 1062 477 1062 q 499 1055 494 1062 q 505 1036 505 1048 l 505 899 q 516 584 505 800 q 527 271 527 380 q 530 156 527 241 q 534 16 534 71 q 529 -23 534 -14 q 513 -32 524 -32 z "},"Ṁ":{"ha":665,"x_min":102,"x_max":534,"o":"m 530 156 q 534 16 534 71 q 529 -23 534 -14 q 513 -32 524 -32 q 489 -23 495 -32 q 483 7 483 -14 l 483 134 q 478 362 483 220 q 473 590 473 524 l 474 668 l 475 746 q 473 812 475 770 l 470 869 q 467 860 468 867 q 419 582 451 755 q 370 328 387 408 q 345 201 355 256 q 333 172 342 183 q 313 161 324 161 q 295 173 303 161 q 284 205 287 184 q 240 447 279 246 q 173 782 201 648 l 168 782 q 143 797 153 782 q 141 612 141 711 q 143 391 141 539 q 145 171 145 244 q 149 105 145 154 q 152 39 152 56 q 141 3 152 14 q 102 75 102 3 l 102 307 l 103 448 q 104 589 104 510 q 106 753 104 644 q 108 918 108 863 l 108 1040 q 114 1053 108 1047 q 128 1059 121 1059 q 142 1047 138 1059 q 196 841 150 1023 q 207 817 207 829 q 205 804 207 809 q 280 486 251 619 q 321 255 291 435 l 342 379 q 363 501 350 425 q 423 819 370 529 l 427 842 l 441 913 l 455 991 l 459 1014 l 462 1033 q 471 1055 465 1047 q 486 1062 477 1062 q 499 1055 494 1062 q 505 1036 505 1048 l 505 899 q 516 584 505 800 q 527 271 527 380 q 530 156 527 241 m 144 836 q 158 848 150 844 q 146 893 150 886 l 144 836 z "},"N":{"ha":528,"x_min":68,"x_max":426,"o":"m 378 -16 q 360 -6 368 -16 q 349 16 352 4 q 344 43 348 20 l 340 64 q 169 689 186 615 q 112 967 161 722 q 111 909 111 949 l 111 407 q 114 209 111 355 q 117 11 117 63 l 108 0 l 76 0 l 72 11 q 75 66 75 21 l 73 309 q 71 550 71 469 l 71 732 q 71 863 71 805 l 69 994 q 68 1009 69 1002 q 68 1023 68 1015 q 77 1046 68 1040 q 105 1053 85 1053 q 124 1044 114 1053 q 137 1026 134 1036 q 160 922 140 1012 l 167 890 q 199 743 188 793 q 300 366 203 725 q 372 102 342 192 q 380 168 380 120 q 383 410 380 267 q 386 652 386 553 l 387 760 q 388 867 388 807 l 387 1063 q 415 1082 391 1082 q 426 1041 426 1082 q 425 1013 426 1024 l 424 990 l 424 901 l 422 572 q 420 244 420 354 q 417 135 420 218 q 414 25 414 52 q 378 -16 414 -16 z "},"Ǌ":{"ha":850,"x_min":68,"x_max":768,"o":"m 378 -16 q 360 -6 368 -16 q 349 16 352 4 q 344 43 348 20 l 340 64 q 169 689 186 615 q 112 967 161 722 q 111 909 111 949 l 111 407 q 114 209 111 355 q 117 11 117 63 l 108 0 l 76 0 l 72 11 q 75 66 75 21 l 73 309 q 71 550 71 469 l 71 732 q 71 863 71 805 l 69 994 q 68 1009 69 1002 q 68 1023 68 1015 q 77 1046 68 1040 q 105 1053 85 1053 q 124 1044 114 1053 q 137 1026 134 1036 q 160 922 140 1012 l 167 890 q 199 743 188 793 q 300 366 203 725 q 372 102 342 192 q 380 168 380 120 q 383 410 380 267 q 386 652 386 553 l 387 760 q 388 867 388 807 l 387 1063 q 415 1082 391 1082 q 426 1041 426 1082 q 425 1013 426 1024 l 424 990 l 424 901 l 422 572 q 420 244 420 354 q 417 135 420 218 q 414 25 414 52 q 378 -16 414 -16 m 604 -135 q 575 -109 575 -135 q 584 -93 576 -101 q 608 -75 593 -85 q 625 -62 621 -67 q 686 150 686 -1 q 680 355 686 229 q 671 543 673 488 q 665 743 671 540 l 664 759 q 657 1010 657 914 l 615 1008 l 574 1007 q 560 1014 566 1007 q 555 1028 555 1020 q 567 1049 555 1044 q 619 1054 578 1054 l 672 1053 q 746 1053 700 1053 q 762 1046 755 1053 q 768 1031 768 1040 q 761 1014 768 1017 q 730 1010 753 1010 l 699 1010 q 715 541 699 854 q 730 207 730 241 q 728 114 730 146 q 720 43 726 81 q 700 -25 713 3 q 663 -82 686 -53 q 604 -135 640 -111 z "},"Ń":{"ha":528,"x_min":68,"x_max":439,"o":"m 378 -16 q 360 -6 368 -16 q 349 16 352 4 q 344 43 348 20 l 340 64 q 169 689 186 615 q 112 967 161 722 q 111 909 111 949 l 111 407 q 114 209 111 355 q 117 11 117 63 l 108 0 l 76 0 l 72 11 q 75 66 75 21 l 73 309 q 71 550 71 469 l 71 732 q 71 863 71 805 l 69 994 q 68 1009 69 1002 q 68 1023 68 1015 q 77 1046 68 1040 q 105 1053 85 1053 q 124 1044 114 1053 q 137 1026 134 1036 q 160 922 140 1012 l 167 890 q 199 743 188 793 q 300 366 203 725 q 372 102 342 192 q 380 168 380 120 q 383 410 380 267 q 386 652 386 553 l 387 760 q 388 867 388 807 l 387 1063 q 415 1082 391 1082 q 426 1041 426 1082 q 425 1013 426 1024 l 424 990 l 424 901 l 422 572 q 420 244 420 354 q 417 135 420 218 q 414 25 414 52 q 378 -16 414 -16 m 262 1112 q 244 1117 251 1112 q 237 1132 237 1122 q 275 1168 237 1137 q 357 1233 305 1193 q 409 1274 404 1269 q 439 1252 439 1274 l 435 1231 q 262 1112 364 1199 z "},"Ň":{"ha":528,"x_min":68,"x_max":426,"o":"m 378 -16 q 360 -6 368 -16 q 349 16 352 4 q 344 43 348 20 l 340 64 q 169 689 186 615 q 112 967 161 722 q 111 909 111 949 l 111 407 q 114 209 111 355 q 117 11 117 63 l 108 0 l 76 0 l 72 11 q 75 66 75 21 l 73 309 q 71 550 71 469 l 71 732 q 71 863 71 805 l 69 994 q 68 1009 69 1002 q 68 1023 68 1015 q 77 1046 68 1040 q 105 1053 85 1053 q 124 1044 114 1053 q 137 1026 134 1036 q 160 922 140 1012 l 167 890 q 199 743 188 793 q 300 366 203 725 q 372 102 342 192 q 380 168 380 120 q 383 410 380 267 q 386 652 386 553 l 387 760 q 388 867 388 807 l 387 1063 q 415 1082 391 1082 q 426 1041 426 1082 q 425 1013 426 1024 l 424 990 l 424 901 l 422 572 q 420 244 420 354 q 417 135 420 218 q 414 25 414 52 q 378 -16 414 -16 m 285 1088 q 244 1137 272 1088 q 193 1244 217 1186 q 168 1323 169 1303 l 193 1341 l 217 1310 q 229 1262 218 1295 q 254 1189 239 1232 q 275 1129 269 1145 q 315 1337 308 1250 l 334 1348 q 359 1332 359 1344 q 353 1316 359 1329 l 355 1310 l 345 1289 l 346 1280 q 330 1230 340 1261 q 311 1169 317 1195 q 304 1118 304 1143 q 285 1088 304 1088 z "},"Ņ":{"ha":528,"x_min":68,"x_max":426,"o":"m 378 -16 q 360 -6 368 -16 q 349 16 352 4 q 344 43 348 20 l 340 64 q 169 689 186 615 q 112 967 161 722 q 111 909 111 949 l 111 407 q 114 209 111 355 q 117 11 117 63 l 108 0 l 76 0 l 72 11 q 75 66 75 21 l 73 309 q 71 550 71 469 l 71 732 q 71 863 71 805 l 69 994 q 68 1009 69 1002 q 68 1023 68 1015 q 77 1046 68 1040 q 105 1053 85 1053 q 124 1044 114 1053 q 137 1026 134 1036 q 160 922 140 1012 l 167 890 q 199 743 188 793 q 300 366 203 725 q 372 102 342 192 q 380 168 380 120 q 383 410 380 267 q 386 652 386 553 l 387 760 q 388 867 388 807 l 387 1063 q 415 1082 391 1082 q 426 1041 426 1082 q 425 1013 426 1024 l 424 990 l 424 901 l 422 572 q 420 244 420 354 q 417 135 420 218 q 414 25 414 52 q 378 -16 414 -16 m 197 -288 l 199 -275 q 218 -259 206 -270 q 238 -239 229 -248 q 268 -197 262 -213 q 272 -174 272 -186 q 243 -146 254 -163 q 231 -113 231 -130 q 248 -82 231 -94 q 284 -69 264 -69 q 330 -110 315 -69 l 328 -114 q 330 -131 330 -119 q 313 -194 330 -155 q 269 -265 295 -234 q 219 -298 242 -298 l 197 -288 z "},"Ṇ":{"ha":528,"x_min":68,"x_max":426,"o":"m 378 -16 q 360 -6 368 -16 q 349 16 352 4 q 344 43 348 20 l 340 64 q 169 689 186 615 q 112 967 161 722 q 111 909 111 949 l 111 407 q 114 209 111 355 q 117 11 117 63 l 108 0 l 76 0 l 72 11 q 75 66 75 21 l 73 309 q 71 550 71 469 l 71 732 q 71 863 71 805 l 69 994 q 68 1009 69 1002 q 68 1023 68 1015 q 77 1046 68 1040 q 105 1053 85 1053 q 124 1044 114 1053 q 137 1026 134 1036 q 160 922 140 1012 l 167 890 q 199 743 188 793 q 300 366 203 725 q 372 102 342 192 q 380 168 380 120 q 383 410 380 267 q 386 652 386 553 l 387 760 q 388 867 388 807 l 387 1063 q 415 1082 391 1082 q 426 1041 426 1082 q 425 1013 426 1024 l 424 990 l 424 901 l 422 572 q 420 244 420 354 q 417 135 420 218 q 414 25 414 52 q 378 -16 414 -16 m 260 -163 q 238 -152 248 -163 q 229 -130 229 -142 q 240 -104 229 -116 q 265 -92 252 -92 q 288 -104 277 -92 q 298 -128 298 -116 q 260 -163 298 -163 z "},"Ǹ":{"ha":528,"x_min":68,"x_max":426,"o":"m 378 -16 q 360 -6 368 -16 q 349 16 352 4 q 344 43 348 20 l 340 64 q 169 689 186 615 q 112 967 161 722 q 111 909 111 949 l 111 407 q 114 209 111 355 q 117 11 117 63 l 108 0 l 76 0 l 72 11 q 75 66 75 21 l 73 309 q 71 550 71 469 l 71 732 q 71 863 71 805 l 69 994 q 68 1009 69 1002 q 68 1023 68 1015 q 77 1046 68 1040 q 105 1053 85 1053 q 124 1044 114 1053 q 137 1026 134 1036 q 160 922 140 1012 l 167 890 q 199 743 188 793 q 300 366 203 725 q 372 102 342 192 q 380 168 380 120 q 383 410 380 267 q 386 652 386 553 l 387 760 q 388 867 388 807 l 387 1063 q 415 1082 391 1082 q 426 1041 426 1082 q 425 1013 426 1024 l 424 990 l 424 901 l 422 572 q 420 244 420 354 q 417 135 420 218 q 414 25 414 52 q 378 -16 414 -16 m 314 1074 q 250 1109 311 1075 q 184 1148 189 1144 l 177 1148 q 162 1149 170 1148 q 120 1185 115 1158 q 134 1213 124 1209 l 142 1212 q 193 1187 183 1205 l 208 1179 q 259 1149 222 1172 q 311 1114 292 1129 q 332 1083 334 1095 q 325 1076 331 1079 q 314 1074 319 1074 z "},"Ŋ":{"ha":624,"x_min":121,"x_max":500,"o":"m 351 -317 q 321 -290 321 -317 q 331 -275 322 -283 q 355 -256 339 -267 q 372 -244 367 -249 q 433 -32 433 -183 l 433 -20 q 418 16 425 -9 q 391 100 401 66 q 333 286 351 227 q 286 454 315 346 q 231 689 249 591 l 229 709 q 216 747 228 736 l 219 754 l 204 836 q 196 871 201 846 q 172 950 185 918 q 170 939 171 946 q 168 922 169 932 q 168 909 168 918 q 170 884 168 891 q 161 787 161 850 l 161 407 q 170 209 161 345 q 180 11 180 73 l 170 0 l 138 0 l 134 11 q 137 66 137 21 q 130 309 137 139 q 121 550 121 469 l 121 732 q 127 863 121 770 q 132 994 132 945 q 131 1009 132 1002 q 130 1023 130 1015 q 139 1046 130 1040 q 168 1053 148 1053 q 189 1044 178 1053 q 199 1026 199 1036 q 205 979 199 1000 q 223 929 210 958 q 242 877 236 899 q 253 810 248 855 q 262 743 257 770 q 330 484 281 652 l 336 463 q 360 375 354 399 q 378 295 366 350 q 397 212 391 231 l 437 78 q 443 168 443 149 q 446 410 443 267 q 448 652 448 553 q 446 760 448 688 q 444 867 444 831 q 446 894 444 877 q 448 920 448 911 q 444 937 448 935 l 448 949 l 448 981 q 443 1063 448 1034 q 477 1082 448 1082 q 500 1036 500 1082 q 491 990 491 1019 q 492 966 491 977 q 492 943 492 956 q 487 901 492 914 q 485 682 487 829 q 483 463 483 536 q 486 425 483 447 l 483 419 l 483 244 q 479 135 483 218 q 476 25 476 52 q 473 -26 476 13 q 469 -89 469 -62 q 436 -218 469 -159 q 351 -317 404 -278 z "},"Ɲ":{"ha":528,"x_min":-37,"x_max":426,"o":"m 73 309 q 71 550 71 469 l 71 732 q 71 863 71 805 l 69 994 q 68 1009 69 1002 q 68 1023 68 1015 q 77 1046 68 1040 q 105 1053 85 1053 q 124 1044 114 1053 q 137 1026 134 1036 q 160 922 140 1012 l 167 890 q 199 743 188 793 q 300 366 203 725 q 372 102 342 192 q 380 168 380 120 q 383 410 380 267 q 386 652 386 553 l 387 760 q 388 867 388 807 l 387 1063 q 415 1082 391 1082 q 426 1041 426 1082 q 425 1013 426 1024 l 424 990 l 424 901 l 422 572 q 420 244 420 354 q 417 135 420 218 q 414 25 414 52 q 378 -16 414 -16 q 360 -6 368 -16 q 349 16 352 4 q 344 43 348 20 l 340 64 q 169 689 186 615 q 112 967 161 722 q 111 909 111 949 l 111 407 q 114 209 111 355 q 115 94 115 134 l 115 -26 q 111 -89 111 -62 q 78 -218 111 -159 q -7 -317 46 -278 q -37 -290 -37 -317 q -3 -256 -36 -276 q 14 -244 9 -249 q 75 -32 75 -183 l 75 -20 l 73 309 z "},"ǋ":{"ha":861,"x_min":68,"x_max":827,"o":"m 378 -16 q 360 -6 368 -16 q 349 16 352 4 q 344 43 348 20 l 340 64 q 169 689 186 615 q 112 967 161 722 q 111 909 111 949 l 111 407 q 114 209 111 355 q 117 11 117 63 l 108 0 l 76 0 l 72 11 q 75 66 75 21 l 73 309 q 71 550 71 469 l 71 732 q 71 863 71 805 l 69 994 q 68 1009 69 1002 q 68 1023 68 1015 q 77 1046 68 1040 q 105 1053 85 1053 q 124 1044 114 1053 q 137 1026 134 1036 q 160 922 140 1012 l 167 890 q 199 743 188 793 q 300 366 203 725 q 372 102 342 192 q 380 168 380 120 q 383 410 380 267 q 386 652 386 553 l 387 760 q 388 867 388 807 l 387 1063 q 415 1082 391 1082 q 426 1041 426 1082 q 425 1013 426 1024 l 424 990 l 424 901 l 422 572 q 420 244 420 354 q 417 135 420 218 q 414 25 414 52 q 378 -16 414 -16 m 539 -139 l 538 -136 l 538 -134 q 561 -113 538 -128 l 580 -100 l 611 -80 q 643 -57 639 -62 q 676 17 664 -33 q 688 117 688 67 q 682 486 688 239 q 675 854 675 720 l 667 869 q 633 876 661 872 q 586 887 608 879 q 566 905 566 895 q 577 917 566 911 q 595 922 588 922 q 679 912 622 922 q 782 889 736 903 q 827 864 827 876 q 820 851 827 856 q 804 846 813 846 q 766 853 792 846 q 729 860 743 860 q 717 832 717 860 q 724 543 717 726 q 730 256 730 360 l 730 103 q 722 45 722 85 q 713 -19 722 16 q 688 -88 705 -54 q 643 -148 671 -125 q 581 -171 614 -171 l 571 -171 l 539 -139 z "},"Ñ":{"ha":528,"x_min":68,"x_max":426,"o":"m 378 -16 q 360 -6 368 -16 q 349 16 352 4 q 344 43 348 20 l 340 64 q 169 689 186 615 q 112 967 161 722 q 111 909 111 949 l 111 407 q 114 209 111 355 q 117 11 117 63 l 108 0 l 76 0 l 72 11 q 75 66 75 21 l 73 309 q 71 550 71 469 l 71 732 q 71 863 71 805 l 69 994 q 68 1009 69 1002 q 68 1023 68 1015 q 77 1046 68 1040 q 105 1053 85 1053 q 124 1044 114 1053 q 137 1026 134 1036 q 160 922 140 1012 l 167 890 q 199 743 188 793 q 300 366 203 725 q 372 102 342 192 q 380 168 380 120 q 383 410 380 267 q 386 652 386 553 l 387 760 q 388 867 388 807 l 387 1063 q 415 1082 391 1082 q 426 1041 426 1082 q 425 1013 426 1024 l 424 990 l 424 901 l 422 572 q 420 244 420 354 q 417 135 420 218 q 414 25 414 52 q 378 -16 414 -16 m 144 1090 q 126 1098 135 1090 q 117 1114 117 1105 q 141 1183 117 1157 q 198 1210 164 1210 q 257 1181 233 1210 q 292 1144 267 1161 q 336 1128 316 1128 q 372 1177 372 1128 q 369 1192 372 1181 q 364 1204 366 1198 q 378 1212 368 1212 q 402 1198 394 1212 q 410 1164 410 1184 q 400 1128 410 1145 q 372 1101 389 1112 q 336 1091 355 1091 q 288 1105 313 1091 q 248 1134 263 1118 q 213 1173 235 1147 l 203 1177 q 168 1166 183 1177 q 152 1140 152 1156 q 159 1111 152 1133 l 144 1090 z "},"O":{"ha":512,"x_min":85,"x_max":420,"o":"m 277 -29 q 85 639 85 -29 l 85 695 q 87 803 85 758 q 98 897 90 848 q 121 986 106 951 q 161 1042 136 1020 q 222 1065 186 1065 q 283 1053 256 1065 q 329 1018 311 1040 q 357 968 345 999 q 376 906 370 937 q 387 840 384 867 q 420 419 420 606 l 420 415 q 418 287 420 346 q 413 217 416 246 q 403 141 410 188 q 387 76 397 103 q 360 21 376 50 q 277 -29 330 -29 m 280 9 q 321 35 302 9 q 349 106 339 61 q 376 298 372 204 q 380 443 380 387 l 380 449 q 378 588 380 517 q 363 764 374 664 l 361 783 q 343 873 355 833 q 315 955 332 913 q 278 1010 300 991 q 229 1029 256 1029 q 186 1007 205 1029 q 158 945 168 985 q 140 860 146 901 q 130 772 133 820 q 126 631 126 690 l 126 564 q 144 328 126 469 q 173 170 157 236 q 216 58 189 104 q 280 9 245 9 z "},"Ó":{"ha":512,"x_min":85,"x_max":420,"o":"m 277 -29 q 85 639 85 -29 l 85 695 q 87 803 85 758 q 98 897 90 848 q 121 986 106 951 q 161 1042 136 1020 q 222 1065 186 1065 q 283 1053 256 1065 q 329 1018 311 1040 q 357 968 345 999 q 376 906 370 937 q 387 840 384 867 q 420 419 420 606 l 420 415 q 418 287 420 346 q 413 217 416 246 q 403 141 410 188 q 387 76 397 103 q 360 21 376 50 q 277 -29 330 -29 m 280 9 q 321 35 302 9 q 349 106 339 61 q 376 298 372 204 q 380 443 380 387 l 380 449 q 378 588 380 517 q 363 764 374 664 l 361 783 q 343 873 355 833 q 315 955 332 913 q 278 1010 300 991 q 229 1029 256 1029 q 186 1007 205 1029 q 158 945 168 985 q 140 860 146 901 q 130 772 133 820 q 126 631 126 690 l 126 564 q 144 328 126 469 q 173 170 157 236 q 216 58 189 104 q 280 9 245 9 m 220 1132 q 202 1137 210 1132 q 195 1152 195 1143 q 233 1188 195 1158 q 316 1253 264 1213 q 368 1294 363 1289 q 398 1272 398 1294 l 394 1251 q 220 1132 323 1219 z "},"Ŏ":{"ha":512,"x_min":85,"x_max":420,"o":"m 277 -29 q 85 639 85 -29 l 85 695 q 87 803 85 758 q 98 897 90 848 q 121 986 106 951 q 161 1042 136 1020 q 222 1065 186 1065 q 283 1053 256 1065 q 329 1018 311 1040 q 357 968 345 999 q 376 906 370 937 q 387 840 384 867 q 420 419 420 606 l 420 415 q 418 287 420 346 q 413 217 416 246 q 403 141 410 188 q 387 76 397 103 q 360 21 376 50 q 277 -29 330 -29 m 280 9 q 321 35 302 9 q 349 106 339 61 q 376 298 372 204 q 380 443 380 387 l 380 449 q 378 588 380 517 q 363 764 374 664 l 361 783 q 343 873 355 833 q 315 955 332 913 q 278 1010 300 991 q 229 1029 256 1029 q 186 1007 205 1029 q 158 945 168 985 q 140 860 146 901 q 130 772 133 820 q 126 631 126 690 l 126 564 q 144 328 126 469 q 173 170 157 236 q 216 58 189 104 q 280 9 245 9 m 220 1120 q 172 1133 193 1120 q 140 1168 151 1145 q 119 1262 119 1211 l 134 1274 q 148 1253 144 1273 q 161 1197 153 1221 q 183 1163 168 1174 l 198 1152 l 233 1152 q 255 1164 244 1152 q 273 1193 267 1176 q 280 1223 280 1209 q 279 1233 280 1228 q 279 1242 279 1237 q 304 1269 279 1269 q 318 1263 312 1269 q 325 1249 325 1257 q 321 1238 325 1246 l 317 1227 l 321 1217 q 317 1209 319 1215 q 310 1194 314 1204 q 299 1171 304 1179 q 288 1151 295 1162 q 272 1135 280 1139 q 250 1125 264 1130 q 220 1120 238 1120 z "},"Ǒ":{"ha":512,"x_min":85,"x_max":420,"o":"m 277 -29 q 85 639 85 -29 l 85 695 q 87 803 85 758 q 98 897 90 848 q 121 986 106 951 q 161 1042 136 1020 q 222 1065 186 1065 q 283 1053 256 1065 q 329 1018 311 1040 q 357 968 345 999 q 376 906 370 937 q 387 840 384 867 q 420 419 420 606 l 420 415 q 418 287 420 346 q 413 217 416 246 q 403 141 410 188 q 387 76 397 103 q 360 21 376 50 q 277 -29 330 -29 m 280 9 q 321 35 302 9 q 349 106 339 61 q 376 298 372 204 q 380 443 380 387 l 380 449 q 378 588 380 517 q 363 764 374 664 l 361 783 q 343 873 355 833 q 315 955 332 913 q 278 1010 300 991 q 229 1029 256 1029 q 186 1007 205 1029 q 158 945 168 985 q 140 860 146 901 q 130 772 133 820 q 126 631 126 690 l 126 564 q 144 328 126 469 q 173 170 157 236 q 216 58 189 104 q 280 9 245 9 m 243 1109 q 203 1158 231 1109 q 152 1265 176 1206 q 127 1343 127 1323 l 152 1362 l 176 1330 q 188 1282 177 1316 q 213 1209 197 1253 q 234 1149 228 1166 q 274 1358 267 1270 l 292 1369 q 317 1352 317 1364 q 312 1337 317 1349 l 313 1330 l 303 1309 l 304 1301 q 288 1251 298 1281 q 269 1190 275 1215 q 263 1138 263 1164 q 243 1109 263 1109 z "},"Ô":{"ha":512,"x_min":85,"x_max":420,"o":"m 277 -29 q 85 639 85 -29 l 85 695 q 87 803 85 758 q 98 897 90 848 q 121 986 106 951 q 161 1042 136 1020 q 222 1065 186 1065 q 283 1053 256 1065 q 329 1018 311 1040 q 357 968 345 999 q 376 906 370 937 q 387 840 384 867 q 420 419 420 606 l 420 415 q 418 287 420 346 q 413 217 416 246 q 403 141 410 188 q 387 76 397 103 q 360 21 376 50 q 277 -29 330 -29 m 280 9 q 321 35 302 9 q 349 106 339 61 q 376 298 372 204 q 380 443 380 387 l 380 449 q 378 588 380 517 q 363 764 374 664 l 361 783 q 343 873 355 833 q 315 955 332 913 q 278 1010 300 991 q 229 1029 256 1029 q 186 1007 205 1029 q 158 945 168 985 q 140 860 146 901 q 130 772 133 820 q 126 631 126 690 l 126 564 q 144 328 126 469 q 173 170 157 236 q 216 58 189 104 q 280 9 245 9 m 267 1104 q 227 1312 260 1192 q 206 1253 221 1296 q 181 1179 191 1209 q 169 1132 170 1146 l 145 1100 l 120 1118 q 145 1196 121 1138 q 196 1303 169 1255 q 237 1352 224 1352 q 256 1323 256 1352 q 262 1272 256 1297 q 281 1211 269 1246 q 298 1161 292 1181 l 296 1152 l 307 1132 l 305 1124 q 311 1109 311 1112 q 286 1093 311 1097 l 267 1104 z "},"Ố":{"ha":512,"x_min":85,"x_max":497,"o":"m 277 -29 q 85 639 85 -29 l 85 695 q 87 803 85 758 q 98 897 90 848 q 121 986 106 951 q 161 1042 136 1020 q 222 1065 186 1065 q 283 1053 256 1065 q 329 1018 311 1040 q 357 968 345 999 q 376 906 370 937 q 387 840 384 867 q 420 419 420 606 l 420 415 q 418 287 420 346 q 413 217 416 246 q 403 141 410 188 q 387 76 397 103 q 360 21 376 50 q 277 -29 330 -29 m 280 9 q 321 35 302 9 q 349 106 339 61 q 376 298 372 204 q 380 443 380 387 l 380 449 q 378 588 380 517 q 363 764 374 664 l 361 783 q 343 873 355 833 q 315 955 332 913 q 278 1010 300 991 q 229 1029 256 1029 q 186 1007 205 1029 q 158 945 168 985 q 140 860 146 901 q 130 772 133 820 q 126 631 126 690 l 126 564 q 144 328 126 469 q 173 170 157 236 q 216 58 189 104 q 280 9 245 9 m 274 1097 q 234 1305 267 1184 q 213 1245 228 1289 q 188 1172 197 1202 q 176 1124 177 1139 l 152 1093 l 127 1110 q 152 1189 127 1131 q 203 1296 176 1247 q 243 1345 231 1345 q 263 1316 263 1345 q 269 1264 263 1290 q 288 1204 275 1238 q 304 1154 298 1173 l 303 1145 l 313 1124 l 312 1117 q 317 1102 317 1105 q 292 1085 317 1089 l 274 1097 m 319 1238 q 301 1244 309 1238 q 294 1259 294 1249 q 332 1295 294 1264 q 415 1360 363 1320 q 467 1400 462 1396 q 497 1379 497 1400 l 493 1358 q 319 1238 422 1326 z "},"Ộ":{"ha":512,"x_min":85,"x_max":420,"o":"m 277 -29 q 85 639 85 -29 l 85 695 q 87 803 85 758 q 98 897 90 848 q 121 986 106 951 q 161 1042 136 1020 q 222 1065 186 1065 q 283 1053 256 1065 q 329 1018 311 1040 q 357 968 345 999 q 376 906 370 937 q 387 840 384 867 q 420 419 420 606 l 420 415 q 418 287 420 346 q 413 217 416 246 q 403 141 410 188 q 387 76 397 103 q 360 21 376 50 q 277 -29 330 -29 m 280 9 q 321 35 302 9 q 349 106 339 61 q 376 298 372 204 q 380 443 380 387 l 380 449 q 378 588 380 517 q 363 764 374 664 l 361 783 q 343 873 355 833 q 315 955 332 913 q 278 1010 300 991 q 229 1029 256 1029 q 186 1007 205 1029 q 158 945 168 985 q 140 860 146 901 q 130 772 133 820 q 126 631 126 690 l 126 564 q 144 328 126 469 q 173 170 157 236 q 216 58 189 104 q 280 9 245 9 m 252 -163 q 231 -152 240 -163 q 222 -130 222 -142 q 233 -104 222 -116 q 258 -92 244 -92 q 280 -104 270 -92 q 291 -128 291 -116 q 252 -163 291 -163 m 267 1104 q 227 1312 260 1192 q 206 1253 221 1296 q 181 1179 191 1209 q 169 1132 170 1146 l 145 1100 l 120 1118 q 145 1196 121 1138 q 196 1303 169 1255 q 237 1352 224 1352 q 256 1323 256 1352 q 262 1272 256 1297 q 281 1211 269 1246 q 298 1161 292 1181 l 296 1152 l 307 1132 l 305 1124 q 311 1109 311 1112 q 286 1093 311 1097 l 267 1104 z "},"Ồ":{"ha":512,"x_min":-24,"x_max":420,"o":"m 123 1242 q 69 1305 108 1260 q 27 1356 31 1351 q 6 1365 18 1359 q -24 1401 -24 1383 q -21 1413 -24 1407 q 2 1435 -9 1434 l 9 1431 q 48 1390 45 1410 l 60 1377 q 98 1332 71 1364 q 134 1280 122 1301 q 144 1251 144 1263 q 143 1244 144 1246 q 134 1240 141 1240 q 123 1242 127 1240 m 266 1099 q 226 1307 258 1186 q 204 1247 220 1291 q 180 1174 189 1204 q 168 1126 169 1141 l 144 1095 l 119 1112 q 143 1191 119 1133 q 195 1298 168 1249 q 235 1347 222 1347 q 255 1318 255 1347 q 261 1266 255 1292 q 280 1206 267 1240 q 296 1156 290 1175 l 295 1147 l 305 1126 l 304 1119 q 309 1104 309 1107 q 284 1087 309 1091 l 266 1099 m 277 -29 q 85 639 85 -29 l 85 695 q 87 803 85 758 q 98 897 90 848 q 121 986 106 951 q 161 1042 136 1020 q 222 1065 186 1065 q 283 1053 256 1065 q 329 1018 311 1040 q 357 968 345 999 q 376 906 370 937 q 387 840 384 867 q 420 419 420 606 l 420 415 q 418 287 420 346 q 413 217 416 246 q 403 141 410 188 q 387 76 397 103 q 360 21 376 50 q 277 -29 330 -29 m 280 9 q 321 35 302 9 q 349 106 339 61 q 376 298 372 204 q 380 443 380 387 l 380 449 q 378 588 380 517 q 363 764 374 664 l 361 783 q 343 873 355 833 q 315 955 332 913 q 278 1010 300 991 q 229 1029 256 1029 q 186 1007 205 1029 q 158 945 168 985 q 140 860 146 901 q 130 772 133 820 q 126 631 126 690 l 126 564 q 144 328 126 469 q 173 170 157 236 q 216 58 189 104 q 280 9 245 9 z "},"Ổ":{"ha":512,"x_min":85,"x_max":467,"o":"m 277 -29 q 85 639 85 -29 l 85 695 q 87 803 85 758 q 98 897 90 848 q 121 986 106 951 q 161 1042 136 1020 q 222 1065 186 1065 q 283 1053 256 1065 q 329 1018 311 1040 q 357 968 345 999 q 376 906 370 937 q 387 840 384 867 q 420 419 420 606 l 420 415 q 418 287 420 346 q 413 217 416 246 q 403 141 410 188 q 387 76 397 103 q 360 21 376 50 q 277 -29 330 -29 m 280 9 q 321 35 302 9 q 349 106 339 61 q 376 298 372 204 q 380 443 380 387 l 380 449 q 378 588 380 517 q 363 764 374 664 l 361 783 q 343 873 355 833 q 315 955 332 913 q 278 1010 300 991 q 229 1029 256 1029 q 186 1007 205 1029 q 158 945 168 985 q 140 860 146 901 q 130 772 133 820 q 126 631 126 690 l 126 564 q 144 328 126 469 q 173 170 157 236 q 216 58 189 104 q 280 9 245 9 m 277 1101 q 237 1310 269 1189 q 215 1250 231 1293 q 191 1177 200 1206 q 178 1129 180 1143 l 155 1097 l 130 1115 q 154 1194 130 1135 q 206 1301 178 1252 q 246 1350 233 1350 q 266 1320 266 1350 q 272 1269 266 1295 q 291 1208 278 1243 q 307 1158 301 1178 l 306 1149 l 316 1129 l 315 1122 q 320 1107 320 1109 q 295 1090 320 1094 l 277 1101 m 388 1232 q 372 1249 374 1232 l 372 1256 q 380 1274 372 1266 q 404 1293 388 1281 q 426 1309 418 1301 q 433 1324 433 1316 q 389 1351 433 1351 q 350 1344 363 1351 q 338 1322 338 1337 q 340 1303 338 1313 q 326 1300 331 1300 q 307 1324 307 1300 q 326 1362 307 1347 q 389 1377 346 1377 q 450 1364 432 1377 q 467 1324 467 1350 q 458 1302 467 1312 q 431 1280 449 1293 q 410 1263 416 1270 q 404 1250 404 1257 l 404 1241 q 388 1232 398 1232 z "},"Ỗ":{"ha":512,"x_min":69,"x_max":420,"o":"m 277 -29 q 85 639 85 -29 l 85 695 q 87 803 85 758 q 98 897 90 848 q 121 986 106 951 q 161 1042 136 1020 q 222 1065 186 1065 q 283 1053 256 1065 q 329 1018 311 1040 q 357 968 345 999 q 376 906 370 937 q 387 840 384 867 q 420 419 420 606 l 420 415 q 418 287 420 346 q 413 217 416 246 q 403 141 410 188 q 387 76 397 103 q 360 21 376 50 q 277 -29 330 -29 m 280 9 q 321 35 302 9 q 349 106 339 61 q 376 298 372 204 q 380 443 380 387 l 380 449 q 378 588 380 517 q 363 764 374 664 l 361 783 q 343 873 355 833 q 315 955 332 913 q 278 1010 300 991 q 229 1029 256 1029 q 186 1007 205 1029 q 158 945 168 985 q 140 860 146 901 q 130 772 133 820 q 126 631 126 690 l 126 564 q 144 328 126 469 q 173 170 157 236 q 216 58 189 104 q 280 9 245 9 m 267 1104 q 227 1312 260 1192 q 206 1253 221 1296 q 181 1179 191 1209 q 169 1132 170 1146 l 145 1100 l 120 1118 q 145 1196 121 1138 q 196 1303 169 1255 q 237 1352 224 1352 q 256 1323 256 1352 q 262 1272 256 1297 q 281 1211 269 1246 q 298 1161 292 1181 l 296 1152 l 307 1132 l 305 1124 q 311 1109 311 1112 q 286 1093 311 1097 l 267 1104 m 96 1395 q 78 1403 87 1395 q 69 1419 69 1411 q 93 1489 69 1462 q 150 1515 116 1515 q 209 1487 184 1515 q 243 1450 219 1466 q 288 1433 268 1433 q 324 1482 324 1433 q 321 1497 324 1487 q 316 1509 317 1503 q 330 1517 320 1517 q 354 1503 346 1517 q 362 1470 362 1489 q 352 1434 362 1451 q 324 1407 341 1417 q 288 1396 307 1396 q 240 1410 265 1396 q 200 1439 215 1423 q 165 1478 187 1452 l 155 1482 q 119 1472 135 1482 q 104 1445 104 1461 q 111 1416 104 1438 l 96 1395 z "},"Ȍ":{"ha":512,"x_min":-97,"x_max":420,"o":"m 277 -29 q 85 639 85 -29 l 85 695 q 87 803 85 758 q 98 897 90 848 q 121 986 106 951 q 161 1042 136 1020 q 222 1065 186 1065 q 283 1053 256 1065 q 329 1018 311 1040 q 357 968 345 999 q 376 906 370 937 q 387 840 384 867 q 420 419 420 606 l 420 415 q 418 287 420 346 q 413 217 416 246 q 403 141 410 188 q 387 76 397 103 q 360 21 376 50 q 277 -29 330 -29 m 280 9 q 321 35 302 9 q 349 106 339 61 q 376 298 372 204 q 380 443 380 387 l 380 449 q 378 588 380 517 q 363 764 374 664 l 361 783 q 343 873 355 833 q 315 955 332 913 q 278 1010 300 991 q 229 1029 256 1029 q 186 1007 205 1029 q 158 945 168 985 q 140 860 146 901 q 130 772 133 820 q 126 631 126 690 l 126 564 q 144 328 126 469 q 173 170 157 236 q 216 58 189 104 q 280 9 245 9 m 338 1113 q 281 1143 315 1118 q 233 1175 248 1168 q 106 1273 206 1193 q 98 1286 98 1278 q 104 1300 98 1293 q 113 1308 110 1308 q 177 1264 120 1308 q 289 1175 235 1221 q 345 1120 342 1129 l 338 1113 m 163 1117 q 134 1132 157 1117 q 84 1164 108 1148 l 68 1175 q 50 1185 52 1185 q -24 1223 -2 1213 l -97 1263 q -85 1286 -95 1274 q -68 1297 -76 1297 q 9 1257 -62 1297 q 104 1188 33 1242 q 170 1127 170 1137 q 163 1117 170 1117 z "},"Ö":{"ha":512,"x_min":85,"x_max":420,"o":"m 277 -29 q 85 639 85 -29 l 85 695 q 87 803 85 758 q 98 897 90 848 q 121 986 106 951 q 161 1042 136 1020 q 222 1065 186 1065 q 283 1053 256 1065 q 329 1018 311 1040 q 357 968 345 999 q 376 906 370 937 q 387 840 384 867 q 420 419 420 606 l 420 415 q 418 287 420 346 q 413 217 416 246 q 403 141 410 188 q 387 76 397 103 q 360 21 376 50 q 277 -29 330 -29 m 280 9 q 321 35 302 9 q 349 106 339 61 q 376 298 372 204 q 380 443 380 387 l 380 449 q 378 588 380 517 q 363 764 374 664 l 361 783 q 343 873 355 833 q 315 955 332 913 q 278 1010 300 991 q 229 1029 256 1029 q 186 1007 205 1029 q 158 945 168 985 q 140 860 146 901 q 130 772 133 820 q 126 631 126 690 l 126 564 q 144 328 126 469 q 173 170 157 236 q 216 58 189 104 q 280 9 245 9 m 313 1144 q 294 1154 302 1144 q 285 1175 285 1164 q 295 1198 285 1187 q 319 1209 306 1209 q 340 1198 330 1209 q 349 1176 349 1187 q 313 1144 349 1144 m 128 1139 q 110 1149 117 1139 q 102 1173 102 1160 q 112 1197 102 1185 q 135 1208 123 1208 q 156 1195 149 1208 q 163 1162 163 1181 q 152 1145 163 1152 q 128 1139 142 1139 z "},"Ȫ":{"ha":512,"x_min":85,"x_max":420,"o":"m 277 -29 q 85 639 85 -29 l 85 695 q 87 803 85 758 q 98 897 90 848 q 121 986 106 951 q 161 1042 136 1020 q 222 1065 186 1065 q 283 1053 256 1065 q 329 1018 311 1040 q 357 968 345 999 q 376 906 370 937 q 387 840 384 867 q 420 419 420 606 l 420 415 q 418 287 420 346 q 413 217 416 246 q 403 141 410 188 q 387 76 397 103 q 360 21 376 50 q 277 -29 330 -29 m 280 9 q 321 35 302 9 q 349 106 339 61 q 376 298 372 204 q 380 443 380 387 l 380 449 q 378 588 380 517 q 363 764 374 664 l 361 783 q 343 873 355 833 q 315 955 332 913 q 278 1010 300 991 q 229 1029 256 1029 q 186 1007 205 1029 q 158 945 168 985 q 140 860 146 901 q 130 772 133 820 q 126 631 126 690 l 126 564 q 144 328 126 469 q 173 170 157 236 q 216 58 189 104 q 280 9 245 9 m 313 1144 q 294 1154 302 1144 q 285 1175 285 1164 q 295 1198 285 1187 q 319 1209 306 1209 q 340 1198 330 1209 q 349 1176 349 1187 q 313 1144 349 1144 m 128 1139 q 110 1149 117 1139 q 102 1173 102 1160 q 112 1197 102 1185 q 135 1208 123 1208 q 156 1195 149 1208 q 163 1162 163 1181 q 152 1145 163 1152 q 128 1139 142 1139 m 162 1297 q 118 1300 131 1297 q 92 1310 96 1305 q 88 1320 88 1315 q 177 1331 90 1331 l 256 1331 q 295 1331 279 1331 q 326 1329 311 1331 q 349 1322 342 1326 q 356 1309 356 1317 q 267 1297 355 1297 l 189 1297 l 162 1297 z "},"Ȯ":{"ha":512,"x_min":85,"x_max":420,"o":"m 277 -29 q 85 639 85 -29 l 85 695 q 87 803 85 758 q 98 897 90 848 q 121 986 106 951 q 161 1042 136 1020 q 222 1065 186 1065 q 283 1053 256 1065 q 329 1018 311 1040 q 357 968 345 999 q 376 906 370 937 q 387 840 384 867 q 420 419 420 606 l 420 415 q 418 287 420 346 q 413 217 416 246 q 403 141 410 188 q 387 76 397 103 q 360 21 376 50 q 277 -29 330 -29 m 280 9 q 321 35 302 9 q 349 106 339 61 q 376 298 372 204 q 380 443 380 387 l 380 449 q 378 588 380 517 q 363 764 374 664 l 361 783 q 343 873 355 833 q 315 955 332 913 q 278 1010 300 991 q 229 1029 256 1029 q 186 1007 205 1029 q 158 945 168 985 q 140 860 146 901 q 130 772 133 820 q 126 631 126 690 l 126 564 q 144 328 126 469 q 173 170 157 236 q 216 58 189 104 q 280 9 245 9 m 218 1137 q 197 1147 206 1137 q 188 1170 188 1158 q 199 1195 188 1183 q 224 1207 210 1207 q 247 1195 236 1207 q 257 1171 257 1183 q 218 1137 257 1137 z "},"Ȱ":{"ha":512,"x_min":85,"x_max":420,"o":"m 277 -29 q 85 639 85 -29 l 85 695 q 87 803 85 758 q 98 897 90 848 q 121 986 106 951 q 161 1042 136 1020 q 222 1065 186 1065 q 283 1053 256 1065 q 329 1018 311 1040 q 357 968 345 999 q 376 906 370 937 q 387 840 384 867 q 420 419 420 606 l 420 415 q 418 287 420 346 q 413 217 416 246 q 403 141 410 188 q 387 76 397 103 q 360 21 376 50 q 277 -29 330 -29 m 280 9 q 321 35 302 9 q 349 106 339 61 q 376 298 372 204 q 380 443 380 387 l 380 449 q 378 588 380 517 q 363 764 374 664 l 361 783 q 343 873 355 833 q 315 955 332 913 q 278 1010 300 991 q 229 1029 256 1029 q 186 1007 205 1029 q 158 945 168 985 q 140 860 146 901 q 130 772 133 820 q 126 631 126 690 l 126 564 q 144 328 126 469 q 173 170 157 236 q 216 58 189 104 q 280 9 245 9 m 218 1137 q 197 1147 206 1137 q 188 1170 188 1158 q 199 1195 188 1183 q 224 1207 210 1207 q 247 1195 236 1207 q 257 1171 257 1183 q 218 1137 257 1137 m 162 1295 q 118 1298 131 1295 q 92 1308 96 1303 q 88 1318 88 1313 q 177 1329 90 1329 l 256 1329 q 295 1329 279 1329 q 326 1326 311 1329 q 349 1320 342 1324 q 356 1307 356 1315 q 267 1295 355 1295 l 189 1295 l 162 1295 z "},"Ọ":{"ha":512,"x_min":85,"x_max":420,"o":"m 277 -29 q 85 639 85 -29 l 85 695 q 87 803 85 758 q 98 897 90 848 q 121 986 106 951 q 161 1042 136 1020 q 222 1065 186 1065 q 283 1053 256 1065 q 329 1018 311 1040 q 357 968 345 999 q 376 906 370 937 q 387 840 384 867 q 420 419 420 606 l 420 415 q 418 287 420 346 q 413 217 416 246 q 403 141 410 188 q 387 76 397 103 q 360 21 376 50 q 277 -29 330 -29 m 280 9 q 321 35 302 9 q 349 106 339 61 q 376 298 372 204 q 380 443 380 387 l 380 449 q 378 588 380 517 q 363 764 374 664 l 361 783 q 343 873 355 833 q 315 955 332 913 q 278 1010 300 991 q 229 1029 256 1029 q 186 1007 205 1029 q 158 945 168 985 q 140 860 146 901 q 130 772 133 820 q 126 631 126 690 l 126 564 q 144 328 126 469 q 173 170 157 236 q 216 58 189 104 q 280 9 245 9 m 252 -163 q 231 -152 240 -163 q 222 -130 222 -142 q 233 -104 222 -116 q 258 -92 244 -92 q 280 -104 270 -92 q 291 -128 291 -116 q 252 -163 291 -163 z "},"Ò":{"ha":512,"x_min":78,"x_max":420,"o":"m 277 -29 q 85 639 85 -29 l 85 695 q 87 803 85 758 q 98 897 90 848 q 121 986 106 951 q 161 1042 136 1020 q 222 1065 186 1065 q 283 1053 256 1065 q 329 1018 311 1040 q 357 968 345 999 q 376 906 370 937 q 387 840 384 867 q 420 419 420 606 l 420 415 q 418 287 420 346 q 413 217 416 246 q 403 141 410 188 q 387 76 397 103 q 360 21 376 50 q 277 -29 330 -29 m 280 9 q 321 35 302 9 q 349 106 339 61 q 376 298 372 204 q 380 443 380 387 l 380 449 q 378 588 380 517 q 363 764 374 664 l 361 783 q 343 873 355 833 q 315 955 332 913 q 278 1010 300 991 q 229 1029 256 1029 q 186 1007 205 1029 q 158 945 168 985 q 140 860 146 901 q 130 772 133 820 q 126 631 126 690 l 126 564 q 144 328 126 469 q 173 170 157 236 q 216 58 189 104 q 280 9 245 9 m 273 1095 q 209 1130 270 1095 q 143 1168 148 1164 l 136 1168 q 121 1170 129 1168 q 79 1205 73 1178 q 92 1234 83 1230 l 101 1232 q 151 1208 142 1225 l 167 1200 q 218 1170 181 1192 q 269 1134 250 1149 q 290 1103 292 1115 q 284 1097 290 1099 q 273 1095 278 1094 z "},"Ỏ":{"ha":512,"x_min":85,"x_max":420,"o":"m 277 -29 q 85 639 85 -29 l 85 695 q 87 803 85 758 q 98 897 90 848 q 121 986 106 951 q 161 1042 136 1020 q 222 1065 186 1065 q 283 1053 256 1065 q 329 1018 311 1040 q 357 968 345 999 q 376 906 370 937 q 387 840 384 867 q 420 419 420 606 l 420 415 q 418 287 420 346 q 413 217 416 246 q 403 141 410 188 q 387 76 397 103 q 360 21 376 50 q 277 -29 330 -29 m 280 9 q 321 35 302 9 q 349 106 339 61 q 376 298 372 204 q 380 443 380 387 l 380 449 q 378 588 380 517 q 363 764 374 664 l 361 783 q 343 873 355 833 q 315 955 332 913 q 278 1010 300 991 q 229 1029 256 1029 q 186 1007 205 1029 q 158 945 168 985 q 140 860 146 901 q 130 772 133 820 q 126 631 126 690 l 126 564 q 144 328 126 469 q 173 170 157 236 q 216 58 189 104 q 280 9 245 9 m 230 1087 q 214 1103 216 1087 l 214 1111 q 222 1128 214 1121 q 246 1147 230 1136 q 268 1164 260 1156 q 275 1179 275 1171 q 231 1206 275 1206 q 192 1199 205 1206 q 180 1177 180 1192 q 182 1158 180 1168 q 168 1155 173 1155 q 149 1179 149 1155 q 168 1217 149 1202 q 231 1232 188 1232 q 292 1219 274 1232 q 309 1179 309 1205 q 300 1157 309 1166 q 273 1135 291 1147 q 252 1118 258 1124 q 245 1105 245 1112 l 245 1096 q 230 1087 240 1087 z "},"Ơ":{"ha":512,"x_min":85,"x_max":426,"o":"m 376 906 q 387 840 384 867 q 420 419 420 606 l 420 415 q 418 287 420 346 q 413 217 416 246 q 403 141 410 188 q 387 76 397 103 q 360 21 376 50 q 277 -29 330 -29 q 85 639 85 -29 l 85 695 q 87 803 85 758 q 98 897 90 848 q 121 986 106 951 q 161 1042 136 1020 q 222 1065 186 1065 q 305 1040 269 1065 q 333 1033 320 1033 q 363 1046 351 1033 q 374 1078 374 1059 q 368 1111 374 1092 q 363 1131 363 1124 q 370 1149 363 1143 q 388 1155 376 1155 q 417 1141 408 1155 q 426 1099 426 1127 q 414 1046 426 1069 q 384 1012 403 1024 q 347 1000 366 1000 l 341 1000 q 362 955 353 981 q 376 906 371 930 m 380 449 q 378 588 380 517 q 363 764 374 664 l 361 783 q 343 873 355 833 q 315 955 332 913 q 278 1010 300 991 q 229 1029 256 1029 q 186 1007 205 1029 q 158 945 168 985 q 140 860 146 901 q 130 772 133 820 q 126 631 126 690 l 126 564 q 144 328 126 469 q 173 170 157 236 q 216 58 189 104 q 280 9 245 9 q 321 35 302 9 q 349 106 339 61 q 376 298 372 204 q 380 443 380 387 l 380 449 z "},"Ớ":{"ha":512,"x_min":85,"x_max":426,"o":"m 376 906 q 387 840 384 867 q 420 419 420 606 l 420 415 q 418 287 420 346 q 413 217 416 246 q 403 141 410 188 q 387 76 397 103 q 360 21 376 50 q 277 -29 330 -29 q 85 639 85 -29 l 85 695 q 87 803 85 758 q 98 897 90 848 q 121 986 106 951 q 161 1042 136 1020 q 222 1065 186 1065 q 305 1040 269 1065 q 333 1033 320 1033 q 363 1046 351 1033 q 374 1078 374 1059 q 368 1111 374 1092 q 363 1131 363 1124 q 370 1149 363 1143 q 388 1155 376 1155 q 417 1141 408 1155 q 426 1099 426 1127 q 414 1046 426 1069 q 384 1012 403 1024 q 347 1000 366 1000 l 341 1000 q 362 955 353 981 q 376 906 371 930 m 380 449 q 378 588 380 517 q 363 764 374 664 l 361 783 q 343 873 355 833 q 315 955 332 913 q 278 1010 300 991 q 229 1029 256 1029 q 186 1007 205 1029 q 158 945 168 985 q 140 860 146 901 q 130 772 133 820 q 126 631 126 690 l 126 564 q 144 328 126 469 q 173 170 157 236 q 216 58 189 104 q 280 9 245 9 q 321 35 302 9 q 349 106 339 61 q 376 298 372 204 q 380 443 380 387 l 380 449 m 220 1132 q 202 1137 210 1132 q 195 1152 195 1143 q 233 1188 195 1158 q 316 1253 264 1213 q 368 1294 363 1289 q 398 1272 398 1294 l 394 1251 q 220 1132 323 1219 z "},"Ợ":{"ha":512,"x_min":85,"x_max":426,"o":"m 376 906 q 387 840 384 867 q 420 419 420 606 l 420 415 q 418 287 420 346 q 413 217 416 246 q 403 141 410 188 q 387 76 397 103 q 360 21 376 50 q 277 -29 330 -29 q 85 639 85 -29 l 85 695 q 87 803 85 758 q 98 897 90 848 q 121 986 106 951 q 161 1042 136 1020 q 222 1065 186 1065 q 305 1040 269 1065 q 333 1033 320 1033 q 363 1046 351 1033 q 374 1078 374 1059 q 368 1111 374 1092 q 363 1131 363 1124 q 370 1149 363 1143 q 388 1155 376 1155 q 417 1141 408 1155 q 426 1099 426 1127 q 414 1046 426 1069 q 384 1012 403 1024 q 347 1000 366 1000 l 341 1000 q 362 955 353 981 q 376 906 371 930 m 380 449 q 378 588 380 517 q 363 764 374 664 l 361 783 q 343 873 355 833 q 315 955 332 913 q 278 1010 300 991 q 229 1029 256 1029 q 186 1007 205 1029 q 158 945 168 985 q 140 860 146 901 q 130 772 133 820 q 126 631 126 690 l 126 564 q 144 328 126 469 q 173 170 157 236 q 216 58 189 104 q 280 9 245 9 q 321 35 302 9 q 349 106 339 61 q 376 298 372 204 q 380 443 380 387 l 380 449 m 252 -163 q 231 -152 240 -163 q 222 -130 222 -142 q 233 -104 222 -116 q 258 -92 244 -92 q 280 -104 270 -92 q 291 -128 291 -116 q 252 -163 291 -163 z "},"Ờ":{"ha":512,"x_min":78,"x_max":426,"o":"m 376 906 q 387 840 384 867 q 420 419 420 606 l 420 415 q 418 287 420 346 q 413 217 416 246 q 403 141 410 188 q 387 76 397 103 q 360 21 376 50 q 277 -29 330 -29 q 85 639 85 -29 l 85 695 q 87 803 85 758 q 98 897 90 848 q 121 986 106 951 q 161 1042 136 1020 q 222 1065 186 1065 q 305 1040 269 1065 q 333 1033 320 1033 q 363 1046 351 1033 q 374 1078 374 1059 q 368 1111 374 1092 q 363 1131 363 1124 q 370 1149 363 1143 q 388 1155 376 1155 q 417 1141 408 1155 q 426 1099 426 1127 q 414 1046 426 1069 q 384 1012 403 1024 q 347 1000 366 1000 l 341 1000 q 362 955 353 981 q 376 906 371 930 m 380 449 q 378 588 380 517 q 363 764 374 664 l 361 783 q 343 873 355 833 q 315 955 332 913 q 278 1010 300 991 q 229 1029 256 1029 q 186 1007 205 1029 q 158 945 168 985 q 140 860 146 901 q 130 772 133 820 q 126 631 126 690 l 126 564 q 144 328 126 469 q 173 170 157 236 q 216 58 189 104 q 280 9 245 9 q 321 35 302 9 q 349 106 339 61 q 376 298 372 204 q 380 443 380 387 l 380 449 m 273 1095 q 209 1130 270 1095 q 143 1168 148 1164 l 136 1168 q 121 1170 129 1168 q 79 1205 73 1178 q 92 1234 83 1230 l 101 1232 q 151 1208 142 1225 l 167 1200 q 218 1170 181 1192 q 269 1134 250 1149 q 290 1103 292 1115 q 284 1097 290 1099 q 273 1095 278 1094 z "},"Ở":{"ha":512,"x_min":85,"x_max":426,"o":"m 376 906 q 387 840 384 867 q 420 419 420 606 l 420 415 q 418 287 420 346 q 413 217 416 246 q 403 141 410 188 q 387 76 397 103 q 360 21 376 50 q 277 -29 330 -29 q 85 639 85 -29 l 85 695 q 87 803 85 758 q 98 897 90 848 q 121 986 106 951 q 161 1042 136 1020 q 222 1065 186 1065 q 305 1040 269 1065 q 333 1033 320 1033 q 363 1046 351 1033 q 374 1078 374 1059 q 368 1111 374 1092 q 363 1131 363 1124 q 370 1149 363 1143 q 388 1155 376 1155 q 417 1141 408 1155 q 426 1099 426 1127 q 414 1046 426 1069 q 384 1012 403 1024 q 347 1000 366 1000 l 341 1000 q 362 955 353 981 q 376 906 371 930 m 380 449 q 378 588 380 517 q 363 764 374 664 l 361 783 q 343 873 355 833 q 315 955 332 913 q 278 1010 300 991 q 229 1029 256 1029 q 186 1007 205 1029 q 158 945 168 985 q 140 860 146 901 q 130 772 133 820 q 126 631 126 690 l 126 564 q 144 328 126 469 q 173 170 157 236 q 216 58 189 104 q 280 9 245 9 q 321 35 302 9 q 349 106 339 61 q 376 298 372 204 q 380 443 380 387 l 380 449 m 230 1087 q 214 1103 216 1087 l 214 1111 q 222 1128 214 1121 q 246 1147 230 1136 q 268 1164 260 1156 q 275 1179 275 1171 q 231 1206 275 1206 q 192 1199 205 1206 q 180 1177 180 1192 q 182 1158 180 1168 q 168 1155 173 1155 q 149 1179 149 1155 q 168 1217 149 1202 q 231 1232 188 1232 q 292 1219 274 1232 q 309 1179 309 1205 q 300 1157 309 1166 q 273 1135 291 1147 q 252 1118 258 1124 q 245 1105 245 1112 l 245 1096 q 230 1087 240 1087 z "},"Ỡ":{"ha":512,"x_min":76,"x_max":426,"o":"m 376 906 q 387 840 384 867 q 420 419 420 606 l 420 415 q 418 287 420 346 q 413 217 416 246 q 403 141 410 188 q 387 76 397 103 q 360 21 376 50 q 277 -29 330 -29 q 85 639 85 -29 l 85 695 q 87 803 85 758 q 98 897 90 848 q 121 986 106 951 q 161 1042 136 1020 q 222 1065 186 1065 q 305 1040 269 1065 q 333 1033 320 1033 q 363 1046 351 1033 q 374 1078 374 1059 q 368 1111 374 1092 q 363 1131 363 1124 q 370 1149 363 1143 q 388 1155 376 1155 q 417 1141 408 1155 q 426 1099 426 1127 q 414 1046 426 1069 q 384 1012 403 1024 q 347 1000 366 1000 l 341 1000 q 362 955 353 981 q 376 906 371 930 m 380 449 q 378 588 380 517 q 363 764 374 664 l 361 783 q 343 873 355 833 q 315 955 332 913 q 278 1010 300 991 q 229 1029 256 1029 q 186 1007 205 1029 q 158 945 168 985 q 140 860 146 901 q 130 772 133 820 q 126 631 126 690 l 126 564 q 144 328 126 469 q 173 170 157 236 q 216 58 189 104 q 280 9 245 9 q 321 35 302 9 q 349 106 339 61 q 376 298 372 204 q 380 443 380 387 l 380 449 m 102 1110 q 85 1118 94 1110 q 76 1134 76 1126 q 99 1204 76 1177 q 157 1230 123 1230 q 216 1202 191 1230 q 250 1165 226 1181 q 295 1148 275 1148 q 331 1198 331 1148 q 328 1212 331 1202 q 323 1224 324 1219 q 337 1232 327 1232 q 361 1218 353 1232 q 369 1185 369 1204 q 358 1149 369 1166 q 331 1122 348 1132 q 295 1112 314 1112 q 247 1125 272 1112 q 207 1154 222 1139 q 172 1194 194 1167 l 162 1198 q 126 1187 142 1198 q 111 1160 111 1176 q 117 1131 111 1154 l 102 1110 z "},"Ő":{"ha":512,"x_min":85,"x_max":578,"o":"m 277 -29 q 85 639 85 -29 l 85 695 q 87 803 85 758 q 98 897 90 848 q 121 986 106 951 q 161 1042 136 1020 q 222 1065 186 1065 q 283 1053 256 1065 q 329 1018 311 1040 q 357 968 345 999 q 376 906 370 937 q 387 840 384 867 q 420 419 420 606 l 420 415 q 418 287 420 346 q 413 217 416 246 q 403 141 410 188 q 387 76 397 103 q 360 21 376 50 q 277 -29 330 -29 m 280 9 q 321 35 302 9 q 349 106 339 61 q 376 298 372 204 q 380 443 380 387 l 380 449 q 378 588 380 517 q 363 764 374 664 l 361 783 q 343 873 355 833 q 315 955 332 913 q 278 1010 300 991 q 229 1029 256 1029 q 186 1007 205 1029 q 158 945 168 985 q 140 860 146 901 q 130 772 133 820 q 126 631 126 690 l 126 564 q 144 328 126 469 q 173 170 157 236 q 216 58 189 104 q 280 9 245 9 m 92 1103 q 150 1159 94 1112 q 267 1250 207 1206 q 334 1294 326 1294 q 343 1286 337 1294 q 350 1273 350 1279 q 340 1259 350 1265 q 203 1157 223 1170 q 156 1126 187 1149 q 98 1095 121 1100 l 92 1103 m 308 1099 q 300 1109 300 1099 q 365 1168 300 1119 q 472 1243 430 1217 q 549 1284 543 1284 q 566 1272 557 1284 q 578 1250 576 1261 l 506 1209 q 431 1172 491 1204 q 395 1149 425 1170 q 339 1115 372 1135 q 308 1099 313 1099 z "},"Ȏ":{"ha":512,"x_min":85,"x_max":420,"o":"m 277 -29 q 85 639 85 -29 l 85 695 q 87 803 85 758 q 98 897 90 848 q 121 986 106 951 q 161 1042 136 1020 q 222 1065 186 1065 q 283 1053 256 1065 q 329 1018 311 1040 q 357 968 345 999 q 376 906 370 937 q 387 840 384 867 q 420 419 420 606 l 420 415 q 418 287 420 346 q 413 217 416 246 q 403 141 410 188 q 387 76 397 103 q 360 21 376 50 q 277 -29 330 -29 m 280 9 q 321 35 302 9 q 349 106 339 61 q 376 298 372 204 q 380 443 380 387 l 380 449 q 378 588 380 517 q 363 764 374 664 l 361 783 q 343 873 355 833 q 315 955 332 913 q 278 1010 300 991 q 229 1029 256 1029 q 186 1007 205 1029 q 158 945 168 985 q 140 860 146 901 q 130 772 133 820 q 126 631 126 690 l 126 564 q 144 328 126 469 q 173 170 157 236 q 216 58 189 104 q 280 9 245 9 m 110 1105 q 131 1200 110 1157 q 162 1235 142 1222 q 211 1247 183 1247 q 262 1234 237 1247 q 290 1198 275 1227 q 294 1190 291 1196 q 300 1175 296 1185 q 307 1159 304 1164 q 311 1150 310 1153 l 308 1140 l 312 1130 q 315 1118 315 1121 q 309 1104 315 1110 q 294 1099 302 1099 q 269 1125 269 1099 q 270 1135 269 1131 q 271 1145 271 1139 q 264 1175 271 1158 q 246 1203 257 1192 q 223 1215 235 1215 l 189 1215 l 174 1204 q 151 1170 159 1194 q 138 1115 144 1147 q 125 1093 134 1095 l 110 1105 z "},"Ō":{"ha":512,"x_min":85,"x_max":420,"o":"m 277 -29 q 85 639 85 -29 l 85 695 q 87 803 85 758 q 98 897 90 848 q 121 986 106 951 q 161 1042 136 1020 q 222 1065 186 1065 q 283 1053 256 1065 q 329 1018 311 1040 q 357 968 345 999 q 376 906 370 937 q 387 840 384 867 q 420 419 420 606 l 420 415 q 418 287 420 346 q 413 217 416 246 q 403 141 410 188 q 387 76 397 103 q 360 21 376 50 q 277 -29 330 -29 m 280 9 q 321 35 302 9 q 349 106 339 61 q 376 298 372 204 q 380 443 380 387 l 380 449 q 378 588 380 517 q 363 764 374 664 l 361 783 q 343 873 355 833 q 315 955 332 913 q 278 1010 300 991 q 229 1029 256 1029 q 186 1007 205 1029 q 158 945 168 985 q 140 860 146 901 q 130 772 133 820 q 126 631 126 690 l 126 564 q 144 328 126 469 q 173 170 157 236 q 216 58 189 104 q 280 9 245 9 m 162 1156 q 118 1158 131 1156 q 92 1168 96 1163 q 88 1178 88 1173 q 177 1190 90 1190 l 256 1190 q 295 1189 279 1190 q 326 1187 311 1189 q 349 1180 342 1185 q 356 1167 356 1175 q 267 1156 355 1156 l 189 1156 l 162 1156 z "},"Ǫ":{"ha":512,"x_min":85,"x_max":420,"o":"m 387 840 q 420 419 420 606 l 420 415 q 418 287 420 346 q 413 217 416 246 q 403 141 410 188 q 387 76 397 103 q 360 21 376 50 q 351 7 357 16 l 352 7 l 353 7 l 354 7 q 342 -11 354 6 q 314 -53 326 -33 q 291 -98 301 -73 q 279 -152 279 -128 q 276 -184 279 -167 l 275 -197 q 275 -213 275 -204 q 290 -251 275 -231 q 321 -270 305 -270 q 344 -262 329 -270 q 366 -256 357 -256 q 381 -270 381 -256 q 362 -297 381 -287 q 321 -307 343 -307 q 271 -289 295 -307 q 231 -245 246 -271 q 216 -197 216 -219 q 226 -132 216 -165 q 250 -72 235 -98 q 277 -29 270 -39 q 85 639 85 -29 l 85 695 q 87 803 85 758 q 98 897 90 848 q 121 986 106 951 q 161 1042 136 1020 q 222 1065 186 1065 q 283 1053 256 1065 q 329 1018 311 1040 q 357 968 345 999 q 376 906 370 937 q 387 840 384 867 m 380 449 q 378 588 380 517 q 363 764 374 664 l 361 783 q 343 873 355 833 q 315 955 332 913 q 278 1010 300 991 q 229 1029 256 1029 q 186 1007 205 1029 q 158 945 168 985 q 140 860 146 901 q 130 772 133 820 q 126 631 126 690 l 126 564 q 144 328 126 469 q 173 170 157 236 q 216 58 189 104 q 280 9 245 9 q 321 35 302 9 q 349 106 339 61 q 376 298 372 204 q 380 443 380 387 l 380 449 z "},"Ø":{"ha":442,"x_min":85,"x_max":351,"o":"m 86 -163 q 90 -129 87 -145 q 100 -77 92 -112 l 106 -45 q 127 75 117 6 q 121 102 127 83 q 114 125 115 119 q 85 646 85 304 l 85 733 q 186 1064 85 1064 q 208 1057 194 1064 q 227 1048 221 1048 l 232 1051 l 239 1044 q 262 1145 252 1082 l 275 1219 l 300 1219 l 299 1179 l 270 1011 q 290 971 270 995 l 289 968 q 303 938 292 954 q 307 931 305 934 q 310 926 309 928 q 326 833 326 888 l 323 832 q 333 705 323 791 q 343 576 343 618 l 343 568 l 346 564 q 349 432 346 510 q 351 301 351 345 q 349 212 351 253 q 343 162 347 184 q 333 109 340 141 q 318 62 328 82 q 292 23 308 43 q 213 -14 264 -14 q 144 14 165 -14 l 143 14 q 107 -179 136 -36 l 86 -163 m 143 186 q 156 252 146 190 q 186 527 165 320 l 191 575 l 207 739 l 216 832 q 222 881 218 857 q 229 938 227 911 q 232 987 232 966 q 219 1015 232 1004 q 188 1026 205 1026 l 182 1025 l 172 1021 q 165 1018 165 1018 l 157 1021 q 114 578 114 994 l 114 569 q 127 478 114 507 q 135 332 127 430 q 143 186 143 235 m 224 16 q 314 271 314 16 q 264 942 314 844 q 222 554 244 818 q 172 146 199 279 q 163 81 163 92 q 177 31 163 46 q 224 16 191 16 z "},"Ǿ":{"ha":442,"x_min":85,"x_max":351,"o":"m 86 -163 q 90 -129 87 -145 q 100 -77 92 -112 l 106 -45 q 127 75 117 6 q 121 102 127 83 q 114 125 115 119 q 85 646 85 304 l 85 733 q 186 1064 85 1064 q 208 1057 194 1064 q 227 1048 221 1048 l 232 1051 l 239 1044 q 262 1145 252 1082 l 275 1219 l 300 1219 l 299 1179 l 270 1011 q 290 971 270 995 l 289 968 q 303 938 292 954 q 307 931 305 934 q 310 926 309 928 q 326 833 326 888 l 323 832 q 333 705 323 791 q 343 576 343 618 l 343 568 l 346 564 q 349 432 346 510 q 351 301 351 345 q 349 212 351 253 q 343 162 347 184 q 333 109 340 141 q 318 62 328 82 q 292 23 308 43 q 213 -14 264 -14 q 144 14 165 -14 l 143 14 q 107 -179 136 -36 l 86 -163 m 143 186 q 156 252 146 190 q 186 527 165 320 l 191 575 l 207 739 l 216 832 q 222 881 218 857 q 229 938 227 911 q 232 987 232 966 q 219 1015 232 1004 q 188 1026 205 1026 l 182 1025 l 172 1021 q 165 1018 165 1018 l 157 1021 q 114 578 114 994 l 114 569 q 127 478 114 507 q 135 332 127 430 q 143 186 143 235 m 224 16 q 314 271 314 16 q 264 942 314 844 q 222 554 244 818 q 172 146 199 279 q 163 81 163 92 q 177 31 163 46 q 224 16 191 16 m 151 1152 q 133 1158 140 1152 q 126 1173 126 1163 q 164 1208 126 1178 q 247 1274 195 1234 q 298 1314 294 1310 q 329 1293 329 1314 l 325 1272 q 151 1152 254 1240 z "},"Õ":{"ha":512,"x_min":76,"x_max":420,"o":"m 277 -29 q 85 639 85 -29 l 85 695 q 87 803 85 758 q 98 897 90 848 q 121 986 106 951 q 161 1042 136 1020 q 222 1065 186 1065 q 283 1053 256 1065 q 329 1018 311 1040 q 357 968 345 999 q 376 906 370 937 q 387 840 384 867 q 420 419 420 606 l 420 415 q 418 287 420 346 q 413 217 416 246 q 403 141 410 188 q 387 76 397 103 q 360 21 376 50 q 277 -29 330 -29 m 280 9 q 321 35 302 9 q 349 106 339 61 q 376 298 372 204 q 380 443 380 387 l 380 449 q 378 588 380 517 q 363 764 374 664 l 361 783 q 343 873 355 833 q 315 955 332 913 q 278 1010 300 991 q 229 1029 256 1029 q 186 1007 205 1029 q 158 945 168 985 q 140 860 146 901 q 130 772 133 820 q 126 631 126 690 l 126 564 q 144 328 126 469 q 173 170 157 236 q 216 58 189 104 q 280 9 245 9 m 102 1110 q 85 1118 94 1110 q 76 1134 76 1126 q 99 1204 76 1177 q 157 1230 123 1230 q 216 1202 191 1230 q 250 1165 226 1181 q 295 1148 275 1148 q 331 1198 331 1148 q 328 1212 331 1202 q 323 1224 324 1219 q 337 1232 327 1232 q 361 1218 353 1232 q 369 1185 369 1204 q 358 1149 369 1166 q 331 1122 348 1132 q 295 1112 314 1112 q 247 1125 272 1112 q 207 1154 222 1139 q 172 1194 194 1167 l 162 1198 q 126 1187 142 1198 q 111 1160 111 1176 q 117 1131 111 1154 l 102 1110 z "},"Ȭ":{"ha":512,"x_min":76,"x_max":420,"o":"m 277 -29 q 85 639 85 -29 l 85 695 q 87 803 85 758 q 98 897 90 848 q 121 986 106 951 q 161 1042 136 1020 q 222 1065 186 1065 q 283 1053 256 1065 q 329 1018 311 1040 q 357 968 345 999 q 376 906 370 937 q 387 840 384 867 q 420 419 420 606 l 420 415 q 418 287 420 346 q 413 217 416 246 q 403 141 410 188 q 387 76 397 103 q 360 21 376 50 q 277 -29 330 -29 m 280 9 q 321 35 302 9 q 349 106 339 61 q 376 298 372 204 q 380 443 380 387 l 380 449 q 378 588 380 517 q 363 764 374 664 l 361 783 q 343 873 355 833 q 315 955 332 913 q 278 1010 300 991 q 229 1029 256 1029 q 186 1007 205 1029 q 158 945 168 985 q 140 860 146 901 q 130 772 133 820 q 126 631 126 690 l 126 564 q 144 328 126 469 q 173 170 157 236 q 216 58 189 104 q 280 9 245 9 m 102 1110 q 85 1118 94 1110 q 76 1134 76 1126 q 99 1204 76 1177 q 157 1230 123 1230 q 216 1202 191 1230 q 250 1165 226 1181 q 295 1148 275 1148 q 331 1198 331 1148 q 328 1212 331 1202 q 323 1224 324 1219 q 337 1232 327 1232 q 361 1218 353 1232 q 369 1185 369 1204 q 358 1149 369 1166 q 331 1122 348 1132 q 295 1112 314 1112 q 247 1125 272 1112 q 207 1154 222 1139 q 172 1194 194 1167 l 162 1198 q 126 1187 142 1198 q 111 1160 111 1176 q 117 1131 111 1154 l 102 1110 m 162 1320 q 118 1323 131 1320 q 92 1333 96 1328 q 88 1343 88 1338 q 177 1354 90 1354 l 256 1354 q 295 1354 279 1354 q 326 1352 311 1354 q 349 1345 342 1350 q 356 1332 356 1340 q 267 1320 355 1320 l 189 1320 l 162 1320 z "},"Œ":{"ha":770,"x_min":85,"x_max":757,"o":"m 538 -14 q 505 7 507 -14 l 513 29 q 466 17 498 27 q 414 7 433 7 q 276 35 338 7 q 173 113 214 63 q 112 228 133 163 q 92 370 92 294 q 88 512 92 406 q 85 654 85 618 q 100 812 85 727 q 160 977 116 904 q 214 1032 182 1012 q 286 1053 247 1053 q 486 999 437 1053 l 482 1014 l 503 1043 q 530 1039 512 1043 q 557 1035 548 1035 l 660 1035 l 675 1036 l 690 1038 q 705 1025 698 1033 q 711 1013 711 1018 q 686 997 711 997 q 604 1000 665 997 q 522 1003 555 1003 q 532 849 522 952 q 542 694 542 743 l 541 659 l 539 623 q 546 566 539 588 l 600 564 q 618 566 606 564 l 636 567 q 669 550 656 567 q 665 532 669 537 q 648 528 661 528 q 616 530 637 528 q 585 532 595 532 q 545 519 545 532 q 549 272 545 426 q 554 24 554 117 l 604 27 q 661 29 642 29 q 757 3 757 29 l 749 -9 q 644 -12 714 -9 q 538 -14 574 -14 m 380 49 q 462 58 418 49 q 503 75 488 63 q 518 104 518 87 q 509 444 518 210 q 499 782 499 677 q 495 866 499 810 q 490 950 490 918 q 417 999 465 983 q 310 1015 369 1015 q 237 998 270 1015 q 184 950 205 981 q 130 804 142 885 q 118 656 118 729 q 119 606 118 628 q 119 557 119 583 q 118 507 119 530 l 121 503 q 137 300 121 434 q 163 186 145 235 q 203 134 180 137 q 380 49 281 49 z "},"P":{"ha":383,"x_min":88,"x_max":315,"o":"m 123 -8 q 106 40 106 -8 q 104 164 106 82 q 102 289 102 247 q 101 401 102 352 q 100 514 100 451 q 94 859 100 677 q 88 1042 88 983 l 92 1047 q 97 1055 94 1051 q 104 1060 100 1059 q 114 1061 106 1061 q 202 1039 162 1061 q 267 978 242 1017 q 303 896 290 941 q 315 804 315 851 q 295 677 315 742 q 235 559 275 612 q 142 492 193 503 q 148 263 142 415 q 153 35 153 102 q 147 2 153 12 q 123 -8 140 -8 m 142 543 q 167 554 155 544 l 177 565 l 186 575 q 277 802 277 665 q 245 946 277 881 q 197 1001 229 981 q 123 1021 165 1021 q 131 783 123 941 q 139 546 139 626 l 142 543 z "},"Ṗ":{"ha":383,"x_min":88,"x_max":315,"o":"m 123 -8 q 106 40 106 -8 q 104 164 106 82 q 102 289 102 247 q 101 401 102 352 q 100 514 100 451 q 94 859 100 677 q 88 1042 88 983 l 92 1047 q 97 1055 94 1051 q 104 1060 100 1059 q 114 1061 106 1061 q 202 1039 162 1061 q 267 978 242 1017 q 303 896 290 941 q 315 804 315 851 q 295 677 315 742 q 235 559 275 612 q 142 492 193 503 q 148 263 142 415 q 153 35 153 102 q 147 2 153 12 q 123 -8 140 -8 m 142 543 q 167 554 155 544 l 177 565 l 186 575 q 277 802 277 665 q 245 946 277 881 q 197 1001 229 981 q 123 1021 165 1021 q 131 783 123 941 q 139 546 139 626 l 142 543 m 140 1116 q 119 1127 128 1116 q 110 1149 110 1137 q 121 1175 110 1163 q 146 1187 132 1187 q 169 1175 158 1187 q 179 1151 179 1163 q 140 1116 179 1116 z "},"Þ":{"ha":442,"x_min":95,"x_max":374,"o":"m 137 -8 q 120 40 120 -8 q 121 127 120 97 q 121 215 121 158 q 120 300 121 237 q 119 386 119 364 q 111 635 119 474 l 106 746 q 101 827 101 823 q 96 926 96 886 q 95 946 95 936 l 96 984 q 97 1027 97 1005 l 97 1034 l 96 1038 q 106 1048 96 1046 q 126 1045 113 1048 q 130 1044 130 1044 q 133 952 132 1011 q 136 860 134 897 l 136 859 q 229 843 187 858 q 298 802 271 827 q 342 743 324 777 q 368 674 360 709 q 374 602 374 641 q 361 502 374 556 q 323 401 347 448 q 271 331 300 354 q 252 321 264 326 q 235 311 244 317 q 160 290 222 303 q 164 162 160 213 q 168 35 168 106 q 161 2 168 12 q 137 -8 155 -8 m 160 340 q 207 352 178 342 q 245 372 236 363 q 336 599 336 463 q 141 819 336 819 l 141 783 q 151 559 142 692 q 160 340 159 404 z "},"Q":{"ha":512,"x_min":85,"x_max":458,"o":"m 405 -192 q 383 -183 399 -192 q 363 -174 368 -175 q 325 -133 338 -163 q 302 -48 311 -103 q 290 18 294 4 q 218 32 250 18 q 163 68 185 45 q 128 122 144 89 q 104 188 113 155 q 93 255 97 215 q 87 327 88 294 q 85 389 85 362 l 85 452 q 85 519 85 481 q 89 708 85 623 q 107 886 92 795 q 150 1017 120 962 q 229 1069 178 1069 q 294 1051 260 1069 q 352 1003 328 1033 q 381 943 376 974 q 419 403 419 727 q 333 36 419 159 q 340 10 334 24 l 347 -9 q 352 -47 349 -16 q 359 -99 355 -83 q 374 -130 362 -116 q 409 -147 387 -147 l 414 -147 q 458 -165 458 -147 q 405 -192 458 -192 m 273 54 q 347 185 324 54 q 370 602 370 315 l 370 638 q 368 762 370 694 q 362 822 366 797 q 351 890 358 848 q 334 944 345 920 q 307 990 323 968 q 272 1021 293 1010 q 226 1031 251 1031 q 187 1000 205 1031 q 161 922 172 972 q 142 806 150 873 q 126 569 131 718 q 125 484 125 508 l 125 400 q 141 240 125 321 q 167 147 151 185 q 210 82 183 109 q 273 54 237 54 z "},"R":{"ha":393,"x_min":88,"x_max":359,"o":"m 338 -14 q 304 14 311 -14 q 287 75 300 27 q 230 293 243 228 q 203 428 226 311 q 167 590 183 529 l 153 583 q 134 574 140 575 l 137 39 l 137 18 q 112 -9 137 -9 q 95 -3 102 -9 q 88 14 88 3 l 88 35 q 94 450 88 157 q 98 864 98 705 l 98 1043 q 123 1055 98 1055 q 191 1036 161 1055 q 241 984 222 1017 q 268 913 258 951 q 277 835 277 875 q 250 696 277 770 q 230 649 243 676 q 208 612 217 621 l 357 32 q 359 16 359 25 q 353 -5 359 3 q 338 -14 348 -14 m 134 619 q 171 645 145 619 q 208 690 197 671 q 225 748 218 709 q 231 818 231 787 q 213 935 231 873 q 183 990 202 969 q 140 1012 164 1012 l 137 1012 q 134 1011 136 1011 l 134 619 z "},"Ŕ":{"ha":393,"x_min":88,"x_max":359,"o":"m 338 -14 q 304 14 311 -14 q 287 75 300 27 q 230 293 243 228 q 203 428 226 311 q 167 590 183 529 l 153 583 q 134 574 140 575 l 137 39 l 137 18 q 112 -9 137 -9 q 95 -3 102 -9 q 88 14 88 3 l 88 35 q 94 450 88 157 q 98 864 98 705 l 98 1043 q 123 1055 98 1055 q 191 1036 161 1055 q 241 984 222 1017 q 268 913 258 951 q 277 835 277 875 q 250 696 277 770 q 230 649 243 676 q 208 612 217 621 l 357 32 q 359 16 359 25 q 353 -5 359 3 q 338 -14 348 -14 m 134 619 q 171 645 145 619 q 208 690 197 671 q 225 748 218 709 q 231 818 231 787 q 213 935 231 873 q 183 990 202 969 q 140 1012 164 1012 l 137 1012 q 134 1011 136 1011 l 134 619 m 147 1112 q 129 1117 136 1112 q 122 1132 122 1122 q 160 1168 122 1137 q 243 1233 191 1193 q 294 1274 290 1269 q 325 1252 325 1274 l 321 1231 q 147 1112 250 1199 z "},"Ř":{"ha":393,"x_min":54,"x_max":359,"o":"m 338 -14 q 304 14 311 -14 q 287 75 300 27 q 230 293 243 228 q 203 428 226 311 q 167 590 183 529 l 153 583 q 134 574 140 575 l 137 39 l 137 18 q 112 -9 137 -9 q 95 -3 102 -9 q 88 14 88 3 l 88 35 q 94 450 88 157 q 98 864 98 705 l 98 1043 q 123 1055 98 1055 q 191 1036 161 1055 q 241 984 222 1017 q 268 913 258 951 q 277 835 277 875 q 250 696 277 770 q 230 649 243 676 q 208 612 217 621 l 357 32 q 359 16 359 25 q 353 -5 359 3 q 338 -14 348 -14 m 134 619 q 171 645 145 619 q 208 690 197 671 q 225 748 218 709 q 231 818 231 787 q 213 935 231 873 q 183 990 202 969 q 140 1012 164 1012 l 137 1012 q 134 1011 136 1011 l 134 619 m 170 1088 q 130 1137 157 1088 q 78 1244 102 1186 q 54 1323 54 1303 l 79 1341 l 102 1310 q 115 1262 104 1295 q 139 1189 124 1232 q 161 1129 155 1145 q 201 1337 193 1250 l 219 1348 q 244 1332 244 1344 q 239 1316 244 1329 l 240 1310 l 230 1289 l 231 1280 q 215 1230 225 1261 q 196 1169 202 1195 q 190 1118 190 1143 q 170 1088 190 1088 z "},"Ŗ":{"ha":393,"x_min":88,"x_max":359,"o":"m 338 -14 q 304 14 311 -14 q 287 75 300 27 q 230 293 243 228 q 203 428 226 311 q 167 590 183 529 l 153 583 q 134 574 140 575 l 137 39 l 137 18 q 112 -9 137 -9 q 95 -3 102 -9 q 88 14 88 3 l 88 35 q 94 450 88 157 q 98 864 98 705 l 98 1043 q 123 1055 98 1055 q 191 1036 161 1055 q 241 984 222 1017 q 268 913 258 951 q 277 835 277 875 q 250 696 277 770 q 230 649 243 676 q 208 612 217 621 l 357 32 q 359 16 359 25 q 353 -5 359 3 q 338 -14 348 -14 m 134 619 q 171 645 145 619 q 208 690 197 671 q 225 748 218 709 q 231 818 231 787 q 213 935 231 873 q 183 990 202 969 q 140 1012 164 1012 l 137 1012 q 134 1011 136 1011 l 134 619 m 130 -288 l 132 -275 q 151 -259 139 -270 q 171 -239 162 -248 q 201 -197 195 -213 q 205 -174 205 -186 q 176 -146 187 -163 q 164 -113 164 -130 q 180 -82 164 -94 q 217 -69 197 -69 q 263 -110 248 -69 l 260 -114 q 263 -131 263 -119 q 245 -194 263 -155 q 202 -265 228 -234 q 152 -298 175 -298 l 130 -288 z "},"Ȑ":{"ha":393,"x_min":-170,"x_max":359,"o":"m 338 -14 q 304 14 311 -14 q 287 75 300 27 q 230 293 243 228 q 203 428 226 311 q 167 590 183 529 l 153 583 q 134 574 140 575 l 137 39 l 137 18 q 112 -9 137 -9 q 95 -3 102 -9 q 88 14 88 3 l 88 35 q 94 450 88 157 q 98 864 98 705 l 98 1043 q 123 1055 98 1055 q 191 1036 161 1055 q 241 984 222 1017 q 268 913 258 951 q 277 835 277 875 q 250 696 277 770 q 230 649 243 676 q 208 612 217 621 l 357 32 q 359 16 359 25 q 353 -5 359 3 q 338 -14 348 -14 m 134 619 q 171 645 145 619 q 208 690 197 671 q 225 748 218 709 q 231 818 231 787 q 213 935 231 873 q 183 990 202 969 q 140 1012 164 1012 l 137 1012 q 134 1011 136 1011 l 134 619 m 265 1093 q 208 1123 242 1097 q 159 1154 175 1147 q 33 1253 133 1173 q 24 1266 24 1257 q 31 1280 24 1272 q 39 1287 37 1287 q 104 1244 47 1287 q 215 1155 161 1201 q 271 1100 269 1109 l 265 1093 m 90 1097 q 61 1112 84 1097 q 11 1144 35 1128 l -5 1154 q -23 1165 -21 1164 q -98 1202 -75 1193 l -170 1243 q -159 1265 -168 1254 q -142 1277 -149 1277 q -64 1236 -135 1277 q 31 1168 -41 1222 q 97 1107 97 1117 q 90 1097 97 1097 z "},"Ȓ":{"ha":393,"x_min":37,"x_max":359,"o":"m 338 -14 q 304 14 311 -14 q 287 75 300 27 q 230 293 243 228 q 203 428 226 311 q 167 590 183 529 l 153 583 q 134 574 140 575 l 137 39 l 137 18 q 112 -9 137 -9 q 95 -3 102 -9 q 88 14 88 3 l 88 35 q 94 450 88 157 q 98 864 98 705 l 98 1043 q 123 1055 98 1055 q 191 1036 161 1055 q 241 984 222 1017 q 268 913 258 951 q 277 835 277 875 q 250 696 277 770 q 230 649 243 676 q 208 612 217 621 l 357 32 q 359 16 359 25 q 353 -5 359 3 q 338 -14 348 -14 m 134 619 q 171 645 145 619 q 208 690 197 671 q 225 748 218 709 q 231 818 231 787 q 213 935 231 873 q 183 990 202 969 q 140 1012 164 1012 l 137 1012 q 134 1011 136 1011 l 134 619 m 37 1085 q 58 1179 37 1137 q 89 1214 68 1202 q 138 1227 110 1227 q 189 1213 164 1227 q 216 1178 201 1206 q 220 1170 218 1175 q 227 1154 223 1164 q 234 1138 231 1144 q 238 1130 237 1133 l 235 1120 l 239 1109 q 242 1098 242 1101 q 236 1084 242 1090 q 221 1078 229 1078 q 196 1105 196 1078 q 197 1115 196 1110 q 197 1124 197 1119 q 191 1155 197 1138 q 173 1183 184 1171 q 150 1195 161 1195 l 115 1195 l 100 1184 q 78 1150 85 1173 q 65 1095 71 1126 q 52 1073 61 1074 l 37 1085 z "},"S":{"ha":421,"x_min":68,"x_max":333,"o":"m 159 -31 q 122 -29 134 -31 q 94 -20 109 -27 q 68 4 77 -12 q 83 21 68 21 q 122 11 97 21 q 159 0 146 0 q 216 25 191 0 q 256 90 241 50 q 276 164 269 127 q 283 231 283 201 q 264 368 283 298 q 213 499 245 437 l 194 536 q 140 644 161 600 q 104 739 120 688 q 84 873 84 806 q 99 962 84 920 q 146 1035 115 1004 q 223 1067 179 1067 q 249 1061 233 1067 q 276 1045 264 1055 q 288 1027 288 1036 q 279 1017 288 1017 q 256 1024 270 1017 q 233 1031 243 1031 q 177 1007 202 1031 q 142 949 153 983 q 132 885 132 918 q 146 772 132 830 q 184 665 160 715 q 233 564 206 617 l 245 536 q 290 438 274 479 q 318 349 307 398 q 333 224 333 288 q 322 141 333 184 q 292 60 312 98 q 236 -6 271 19 q 159 -31 201 -31 z "},"Ś":{"ha":421,"x_min":68,"x_max":387,"o":"m 159 -31 q 122 -29 134 -31 q 94 -20 109 -27 q 68 4 77 -12 q 83 21 68 21 q 122 11 97 21 q 159 0 146 0 q 216 25 191 0 q 256 90 241 50 q 276 164 269 127 q 283 231 283 201 q 264 368 283 298 q 213 499 245 437 l 194 536 q 140 644 161 600 q 104 739 120 688 q 84 873 84 806 q 99 962 84 920 q 146 1035 115 1004 q 223 1067 179 1067 q 249 1061 233 1067 q 276 1045 264 1055 q 288 1027 288 1036 q 279 1017 288 1017 q 256 1024 270 1017 q 233 1031 243 1031 q 177 1007 202 1031 q 142 949 153 983 q 132 885 132 918 q 146 772 132 830 q 184 665 160 715 q 233 564 206 617 l 245 536 q 290 438 274 479 q 318 349 307 398 q 333 224 333 288 q 322 141 333 184 q 292 60 312 98 q 236 -6 271 19 q 159 -31 201 -31 m 209 1112 q 191 1117 198 1112 q 184 1132 184 1122 q 222 1168 184 1137 q 304 1233 252 1193 q 356 1274 351 1269 q 387 1252 387 1274 l 382 1231 q 209 1112 311 1199 z "},"Š":{"ha":421,"x_min":68,"x_max":333,"o":"m 159 -31 q 122 -29 134 -31 q 94 -20 109 -27 q 68 4 77 -12 q 83 21 68 21 q 122 11 97 21 q 159 0 146 0 q 216 25 191 0 q 256 90 241 50 q 276 164 269 127 q 283 231 283 201 q 264 368 283 298 q 213 499 245 437 l 194 536 q 140 644 161 600 q 104 739 120 688 q 84 873 84 806 q 99 962 84 920 q 146 1035 115 1004 q 223 1067 179 1067 q 249 1061 233 1067 q 276 1045 264 1055 q 288 1027 288 1036 q 279 1017 288 1017 q 256 1024 270 1017 q 233 1031 243 1031 q 177 1007 202 1031 q 142 949 153 983 q 132 885 132 918 q 146 772 132 830 q 184 665 160 715 q 233 564 206 617 l 245 536 q 290 438 274 479 q 318 349 307 398 q 333 224 333 288 q 322 141 333 184 q 292 60 312 98 q 236 -6 271 19 q 159 -31 201 -31 m 232 1088 q 192 1137 219 1088 q 140 1244 164 1186 q 115 1323 116 1303 l 140 1341 l 164 1310 q 176 1262 165 1295 q 201 1189 186 1232 q 222 1129 216 1145 q 262 1337 255 1250 l 281 1348 q 306 1332 306 1344 q 300 1316 306 1329 l 302 1310 l 292 1289 l 293 1280 q 277 1230 287 1261 q 258 1169 264 1195 q 252 1118 252 1143 q 232 1088 252 1088 z "},"Ş":{"ha":421,"x_min":68,"x_max":333,"o":"m 192 -75 q 293 -215 293 -83 q 278 -263 293 -237 q 239 -307 263 -289 q 188 -325 214 -325 q 147 -315 166 -325 q 128 -288 128 -304 q 143 -273 128 -273 q 165 -280 152 -273 q 188 -288 180 -288 q 227 -258 212 -288 q 242 -191 242 -229 q 221 -129 242 -145 q 203 -131 215 -129 q 184 -134 191 -134 q 146 -106 163 -134 q 157 -31 157 -79 q 121 -29 133 -31 q 94 -20 109 -27 q 68 4 77 -12 q 83 21 68 21 q 122 11 97 21 q 159 0 146 0 q 216 25 191 0 q 256 90 241 50 q 276 164 269 127 q 283 231 283 201 q 264 368 283 298 q 213 499 245 437 l 194 536 q 140 644 161 600 q 104 739 120 688 q 84 873 84 806 q 99 962 84 920 q 146 1035 115 1004 q 223 1067 179 1067 q 249 1061 233 1067 q 276 1045 264 1055 q 288 1027 288 1036 q 279 1017 288 1017 q 256 1024 270 1017 q 233 1031 243 1031 q 177 1007 202 1031 q 142 949 153 983 q 132 885 132 918 q 146 772 132 830 q 184 665 160 715 q 233 564 206 617 l 245 536 q 290 438 274 479 q 318 349 307 398 q 333 224 333 288 q 322 141 333 184 q 292 60 312 98 q 251 6 276 28 q 195 -26 225 -17 q 192 -75 192 -47 z "},"Ŝ":{"ha":421,"x_min":68,"x_max":333,"o":"m 159 -31 q 122 -29 134 -31 q 94 -20 109 -27 q 68 4 77 -12 q 83 21 68 21 q 122 11 97 21 q 159 0 146 0 q 216 25 191 0 q 256 90 241 50 q 276 164 269 127 q 283 231 283 201 q 264 368 283 298 q 213 499 245 437 l 194 536 q 140 644 161 600 q 104 739 120 688 q 84 873 84 806 q 99 962 84 920 q 146 1035 115 1004 q 223 1067 179 1067 q 249 1061 233 1067 q 276 1045 264 1055 q 288 1027 288 1036 q 279 1017 288 1017 q 256 1024 270 1017 q 233 1031 243 1031 q 177 1007 202 1031 q 142 949 153 983 q 132 885 132 918 q 146 772 132 830 q 184 665 160 715 q 233 564 206 617 l 245 536 q 290 438 274 479 q 318 349 307 398 q 333 224 333 288 q 322 141 333 184 q 292 60 312 98 q 236 -6 271 19 q 159 -31 201 -31 m 256 1084 q 216 1292 248 1171 q 194 1232 210 1276 q 170 1159 179 1189 q 157 1112 159 1126 l 134 1080 l 109 1097 q 133 1176 109 1118 q 185 1283 157 1234 q 225 1332 212 1332 q 245 1303 245 1332 q 251 1251 245 1277 q 270 1191 257 1225 q 286 1141 280 1160 l 285 1132 l 295 1112 l 294 1104 q 299 1089 299 1092 q 274 1072 299 1076 l 256 1084 z "},"Ș":{"ha":421,"x_min":68,"x_max":333,"o":"m 159 -31 q 122 -29 134 -31 q 94 -20 109 -27 q 68 4 77 -12 q 83 21 68 21 q 122 11 97 21 q 159 0 146 0 q 216 25 191 0 q 256 90 241 50 q 276 164 269 127 q 283 231 283 201 q 264 368 283 298 q 213 499 245 437 l 194 536 q 140 644 161 600 q 104 739 120 688 q 84 873 84 806 q 99 962 84 920 q 146 1035 115 1004 q 223 1067 179 1067 q 249 1061 233 1067 q 276 1045 264 1055 q 288 1027 288 1036 q 279 1017 288 1017 q 256 1024 270 1017 q 233 1031 243 1031 q 177 1007 202 1031 q 142 949 153 983 q 132 885 132 918 q 146 772 132 830 q 184 665 160 715 q 233 564 206 617 l 245 536 q 290 438 274 479 q 318 349 307 398 q 333 224 333 288 q 322 141 333 184 q 292 60 312 98 q 236 -6 271 19 q 159 -31 201 -31 m 110 -308 l 113 -296 q 131 -279 119 -290 q 151 -260 142 -269 q 181 -218 176 -233 q 185 -194 185 -207 q 156 -166 168 -183 q 144 -133 144 -150 q 161 -102 144 -115 q 197 -90 177 -90 q 243 -130 229 -90 l 241 -134 q 243 -151 243 -139 q 226 -215 243 -175 q 182 -286 208 -254 q 132 -319 155 -318 l 110 -308 z "},"Ṡ":{"ha":421,"x_min":68,"x_max":333,"o":"m 159 -31 q 122 -29 134 -31 q 94 -20 109 -27 q 68 4 77 -12 q 83 21 68 21 q 122 11 97 21 q 159 0 146 0 q 216 25 191 0 q 256 90 241 50 q 276 164 269 127 q 283 231 283 201 q 264 368 283 298 q 213 499 245 437 l 194 536 q 140 644 161 600 q 104 739 120 688 q 84 873 84 806 q 99 962 84 920 q 146 1035 115 1004 q 223 1067 179 1067 q 249 1061 233 1067 q 276 1045 264 1055 q 288 1027 288 1036 q 279 1017 288 1017 q 256 1024 270 1017 q 233 1031 243 1031 q 177 1007 202 1031 q 142 949 153 983 q 132 885 132 918 q 146 772 132 830 q 184 665 160 715 q 233 564 206 617 l 245 536 q 290 438 274 479 q 318 349 307 398 q 333 224 333 288 q 322 141 333 184 q 292 60 312 98 q 236 -6 271 19 q 159 -31 201 -31 m 207 1116 q 185 1127 195 1116 q 176 1149 176 1137 q 188 1175 176 1163 q 212 1187 199 1187 q 235 1175 224 1187 q 245 1151 245 1163 q 207 1116 245 1116 z "},"ẞ":{"ha":488,"x_min":122,"x_max":383,"o":"m 150 -8 q 125 11 125 -8 q 128 187 125 56 q 132 363 132 317 q 127 611 132 458 q 122 859 122 764 q 227 1042 122 1042 q 287 1014 262 1042 q 325 937 312 986 q 338 823 338 888 q 316 685 338 749 q 250 579 294 621 q 349 479 314 547 q 383 321 383 411 l 383 289 q 380 204 383 236 q 366 136 376 172 q 262 18 344 60 q 250 16 254 16 q 230 22 239 16 q 220 36 220 28 q 237 60 220 47 q 293 95 265 73 q 325 134 321 117 q 344 244 344 169 l 344 252 q 320 420 344 338 q 281 500 307 466 q 222 550 256 534 q 206 564 213 554 q 199 582 199 573 q 203 594 199 589 q 211 600 206 599 l 220 603 q 258 644 239 608 q 290 725 277 679 q 302 807 302 772 q 281 942 302 889 q 229 994 259 994 q 165 851 165 994 q 168 726 165 800 q 170 602 170 652 l 170 549 q 174 291 170 482 q 177 33 177 100 q 151 -8 177 -8 l 150 -8 z "},"Ə":{"ha":620,"x_min":102,"x_max":515,"o":"m 313 950 q 422 906 375 950 q 492 787 469 862 q 515 619 515 713 l 515 387 q 514 312 515 341 q 510 245 513 282 q 500 179 507 207 q 481 119 494 151 q 453 67 469 89 q 411 26 436 45 q 355 -3 387 8 q 296 -8 328 -8 q 148 59 193 -8 q 102 270 102 127 l 102 309 q 146 472 102 414 q 277 529 191 529 l 466 529 q 468 641 468 585 q 449 783 468 722 q 392 877 429 844 q 302 910 355 910 q 144 852 233 910 q 123 859 132 852 q 123 867 119 863 q 313 950 227 950 m 272 488 q 243 486 253 488 q 219 481 233 485 q 197 467 205 476 q 177 440 188 458 q 163 399 168 423 q 153 333 157 374 q 150 245 150 291 q 165 125 150 170 q 217 59 181 80 q 315 38 253 38 q 385 76 353 38 q 432 174 416 115 q 455 275 447 227 q 463 355 463 323 l 463 361 q 465 488 463 425 l 272 488 z "},"T":{"ha":444,"x_min":7,"x_max":410,"o":"m 229 -8 q 208 2 216 -8 q 201 27 201 12 q 201 151 201 52 l 201 275 q 198 497 201 332 q 195 720 195 661 l 195 760 q 196 850 196 782 q 193 1000 196 1000 l 36 1000 q 16 1005 24 1000 q 7 1021 7 1010 q 11 1036 7 1031 q 33 1044 16 1040 q 89 1047 54 1047 l 228 1048 l 380 1048 q 404 1043 397 1048 q 410 1025 410 1037 q 383 1004 410 1004 l 321 1004 l 259 1004 l 247 1002 l 248 1002 l 248 922 l 248 814 l 248 250 l 249 135 l 250 33 l 250 28 q 249 9 250 15 q 243 -2 248 3 q 229 -8 239 -8 z "},"Ŧ":{"ha":488,"x_min":89,"x_max":376,"o":"m 256 -8 q 235 10 243 -8 q 227 47 227 28 q 233 159 228 82 q 239 275 239 240 q 231 470 239 340 q 147 465 187 465 q 127 471 136 465 q 118 485 118 477 q 228 509 118 498 q 219 720 219 635 l 220 760 q 220 850 220 782 q 197 993 220 993 q 157 989 182 993 q 118 985 132 985 q 98 991 107 985 q 89 1008 89 998 q 132 1027 89 1017 q 233 1042 175 1036 q 328 1048 290 1048 q 348 1041 338 1048 q 357 1025 357 1034 q 330 1004 357 1004 q 304 1006 323 1004 q 279 1008 286 1008 q 250 994 255 1008 q 260 814 260 907 q 259 730 260 767 l 258 646 q 261 511 258 562 q 355 517 326 517 q 370 512 363 517 q 376 501 376 507 q 265 474 376 488 q 277 410 269 439 q 273 370 273 389 q 277 207 273 328 q 280 46 280 86 q 256 -8 280 -8 z "},"Ť":{"ha":444,"x_min":7,"x_max":410,"o":"m 229 -8 q 208 2 216 -8 q 201 27 201 12 q 201 151 201 52 l 201 275 q 198 497 201 332 q 195 720 195 661 l 195 760 q 196 850 196 782 q 193 1000 196 1000 l 36 1000 q 16 1005 24 1000 q 7 1021 7 1010 q 11 1036 7 1031 q 33 1044 16 1040 q 89 1047 54 1047 l 228 1048 l 380 1048 q 404 1043 397 1048 q 410 1025 410 1037 q 383 1004 410 1004 l 321 1004 l 259 1004 l 247 1002 l 248 1002 l 248 922 l 248 814 l 248 250 l 249 135 l 250 33 l 250 28 q 249 9 250 15 q 243 -2 248 3 q 229 -8 239 -8 m 243 1088 q 202 1137 230 1088 q 151 1244 175 1186 q 126 1323 127 1303 l 151 1341 l 175 1310 q 187 1262 176 1295 q 212 1189 197 1232 q 233 1129 227 1145 q 273 1337 266 1250 l 292 1348 q 317 1332 317 1344 q 311 1316 317 1329 l 313 1310 l 302 1289 l 304 1280 q 288 1230 298 1261 q 269 1169 275 1195 q 262 1118 262 1143 q 243 1088 262 1088 z "},"Ţ":{"ha":444,"x_min":7,"x_max":410,"o":"m 380 1048 q 404 1043 397 1048 q 410 1025 410 1037 q 383 1004 410 1004 l 321 1004 l 259 1004 l 247 1002 l 248 1002 l 248 922 l 248 814 l 248 250 l 249 135 l 250 33 l 250 28 q 249 9 250 15 q 243 -2 248 3 q 239 -5 241 -5 q 237 -55 237 -26 q 338 -195 338 -62 q 323 -242 338 -216 q 283 -287 308 -269 q 233 -304 259 -304 q 192 -294 211 -304 q 173 -267 173 -284 q 188 -253 173 -253 q 210 -260 197 -253 q 233 -267 225 -267 q 272 -238 256 -267 q 287 -170 287 -209 q 266 -109 287 -125 q 248 -111 260 -109 q 229 -113 236 -113 q 191 -85 208 -113 q 202 -6 202 -58 l 202 9 l 204 9 q 201 27 201 18 q 201 151 201 52 l 201 275 q 198 497 201 332 q 195 720 195 661 l 195 760 q 196 850 196 782 q 193 1000 196 1000 l 36 1000 q 16 1005 24 1000 q 7 1021 7 1010 q 11 1036 7 1031 q 33 1044 16 1040 q 89 1047 54 1047 l 228 1048 l 380 1048 z "},"Ț":{"ha":444,"x_min":7,"x_max":410,"o":"m 229 -8 q 208 2 216 -8 q 201 27 201 12 q 201 151 201 52 l 201 275 q 198 497 201 332 q 195 720 195 661 l 195 760 q 196 850 196 782 q 193 1000 196 1000 l 36 1000 q 16 1005 24 1000 q 7 1021 7 1010 q 11 1036 7 1031 q 33 1044 16 1040 q 89 1047 54 1047 l 228 1048 l 380 1048 q 404 1043 397 1048 q 410 1025 410 1037 q 383 1004 410 1004 l 321 1004 l 259 1004 l 247 1002 l 248 1002 l 248 922 l 248 814 l 248 250 l 249 135 l 250 33 l 250 28 q 249 9 250 15 q 243 -2 248 3 q 229 -8 239 -8 m 155 -288 l 157 -275 q 176 -259 164 -270 q 196 -239 187 -248 q 226 -197 220 -213 q 230 -174 230 -186 q 201 -146 212 -163 q 189 -113 189 -130 q 205 -82 189 -94 q 242 -69 222 -69 q 288 -110 273 -69 l 286 -114 q 288 -131 288 -119 q 271 -194 288 -155 q 227 -265 253 -234 q 177 -298 200 -298 l 155 -288 z "},"Ṫ":{"ha":444,"x_min":7,"x_max":410,"o":"m 229 -8 q 208 2 216 -8 q 201 27 201 12 q 201 151 201 52 l 201 275 q 198 497 201 332 q 195 720 195 661 l 195 760 q 196 850 196 782 q 193 1000 196 1000 l 36 1000 q 16 1005 24 1000 q 7 1021 7 1010 q 11 1036 7 1031 q 33 1044 16 1040 q 89 1047 54 1047 l 228 1048 l 380 1048 q 404 1043 397 1048 q 410 1025 410 1037 q 383 1004 410 1004 l 321 1004 l 259 1004 l 247 1002 l 248 1002 l 248 922 l 248 814 l 248 250 l 249 135 l 250 33 l 250 28 q 249 9 250 15 q 243 -2 248 3 q 229 -8 239 -8 m 218 1116 q 196 1127 205 1116 q 187 1149 187 1137 q 198 1175 187 1163 q 223 1187 210 1187 q 246 1175 235 1187 q 256 1151 256 1163 q 218 1116 256 1116 z "},"U":{"ha":516,"x_min":75,"x_max":421,"o":"m 288 -26 q 228 -13 256 -26 q 182 23 200 1 q 150 75 164 44 q 127 136 136 105 q 115 196 120 162 q 107 254 109 230 q 104 298 106 269 l 103 321 q 86 619 96 387 q 75 982 75 852 l 75 991 q 75 1003 75 996 q 96 1039 75 1039 q 119 1031 113 1039 q 125 1006 125 1023 l 125 996 q 124 985 124 991 q 134 602 124 822 q 153 286 143 382 q 176 161 159 226 q 201 89 187 118 q 235 40 214 60 q 283 18 257 18 q 325 29 307 18 q 355 58 344 40 q 370 97 364 73 q 378 144 376 121 q 380 191 380 172 l 380 349 q 374 608 380 437 l 368 786 q 365 904 368 834 q 361 1022 361 991 q 369 1046 361 1037 q 389 1055 377 1055 q 408 1046 400 1055 q 416 1022 416 1037 l 416 917 q 416 791 416 847 l 416 667 q 419 430 416 566 q 421 200 421 277 q 418 140 421 167 q 408 83 416 114 q 385 27 399 50 q 346 -11 370 4 q 288 -26 320 -26 z "}}}
